<svg xmlns="http://www.w3.org/2000/svg" viewBox="0 0 573.53 327.7"><defs><style>.cls-1{font-size:203.41px;font-family:Afolkalips-Regular, Afolkalips;}.cls-1,.cls-2,.cls-7,.cls-8{fill:#fff;}.cls-2{font-size:16.96px;font-family:Raleway-ExtraBoldItalic, Raleway;font-weight:800;font-style:italic;}.cls-3{letter-spacing:-0.04em;}.cls-4{letter-spacing:-0.03em;}.cls-5{letter-spacing:-0.01em;}.cls-6{letter-spacing:-0.01em;}.cls-8{stroke:#000;stroke-miterlimit:10;stroke-width:0.48px;}</style></defs><g id="Layer_2" data-name="Layer 2"><g id="Layer_1-2" data-name="Layer 1"><text class="cls-1" transform="translate(184.62 222.02)">HORIZON</text><text class="cls-2" transform="translate(189.06 258.84)"><tspan xml:space="preserve">WITH HOPE   </tspan><tspan class="cls-3" x="104.65" y="0"> </tspan><tspan x="107.92" y="0" xml:space="preserve">WE RISE   </tspan><tspan class="cls-4" x="186.19" y="0"> </tspan><tspan class="cls-5" x="189.61" y="0">T</tspan><tspan x="199.63" y="0">O EMBLA</tspan><tspan class="cls-6" x="271.35" y="0">Z</tspan><tspan x="281.24" y="0">ON</tspan></text><circle class="cls-7" cx="290.29" cy="253.45" r="2.25"/><circle class="cls-7" cx="372.05" cy="253.45" r="2.25"/><path class="cls-7" d="M54.77,143.78,33.4,160.13l9.9,2.22c-11,9.4-19.51,16.7-23.15,19.89A81.87,81.87,0,0,0,.77,206.31v-104l9.31-9.25,8.69,5.86-1.11-13.4L30.34,72.92l9.58,30.49,1-41L54.73,48.69h0Z"/><path class="cls-7" d="M23.34,241.45c-5.83,18.81-6.92,32.58-6,42.43a99.88,99.88,0,0,1-16.88-52c2.51-19.31,11.7-33,24.3-44.12C29.05,184,40.11,174.41,54,162.45v27C39.3,209.14,27.59,227.71,23.34,241.45Z"/><path class="cls-7" d="M88.54,327.7a99.77,99.77,0,0,1-40.9-14.46l-5.72-30.89-6.73,21.71c-1.49-1.29-2.95-2.62-4.36-4l.06-.07-.15-.12c-.42-.44-3.36-3.66-4.94-11.44s-2.06-22.08,4.94-44.68c3.11-10,11-23.93,23.28-41.17v21.28l-9.55,8.8L54,230.51A160.28,160.28,0,0,0,88.54,327.7Z"/><path class="cls-7" d="M147.78,46.44H137.1L147.78,54V72.24c-1.17,1-26.2,22.28-54,46V83.39L112,53.4,93.78,65V50.59l21-20.85,14.42-14.33,2.93,3.9L147.78,0Z"/><path class="cls-7" d="M93.78,128.81c22.7-19.47,44.43-38.07,54-46.26v.8c-9.56,9.76-31.25,32.28-54,58.26Z"/><path class="cls-7" d="M147.78,173.48c0,1.13,0,2.26,0,3.4s0,2.36,0,3.53v13.66a66.71,66.71,0,0,1-2.49,18L120,187.53l13.5,47.79a64.29,64.29,0,0,1-5.28,5.93l-5.94,5.93-1.12,1.11L110.8,225.84l-3.92,36.46.1.06L93.81,275.47v-.8c0-1.14,0-88,0-89.16V158.62l16-16.55-1.58-5.47c15.68-17.54,30.21-32.85,39.56-42.52Z"/><line class="cls-8" x1="137.62" y1="92.86" x2="16.04" y2="214.44"/><path class="cls-7" d="M25.94,305.75s-17.78-14.51-2.35-64.3S152.32,78.39,152.32,78.39,41.13,173.55,25,187.74-1.66,220.41.21,249.4,16,296.8,25.94,305.75Z"/><path class="cls-7" d="M26.27,306h-.35l-.05,0,0,0,0,0,0-.05a.1.1,0,0,1,0,0l0,0M152.29,78.41h0M25.65,305.48l0,0m0,0h0m0,0,0,0h0m-.17-.1h0l0,0h.75v-.23h-.75m-1.47-1.52.48.48.48.45.47.45.33.3h0a13.22,13.22,0,0,1-1-1.1l-.28-.35c-.21-.27-.42-.57-.65-.89l-.23-.34-.19-.29c-.17-.27-.35-.55-.52-.85l-.18-.31c-.1-.16-.19-.32-.28-.49l-.28-.53c-.11-.2-.21-.41-.32-.63s-.32-.66-.47-1a3.73,3.73,0,0,1-.16-.35c-.11-.25-.21-.5-.31-.75s-.11-.26-.16-.39l-.16-.39-.15-.41-.27-.78c-.06-.17-.12-.34-.17-.51l-.2-.62-.09-.29s0,0,0,0c-.09-.31-.18-.62-.26-.94s-.11-.37-.16-.57c0,0,0-.05,0-.08-.06-.21-.11-.42-.16-.64l-.18-.74c0-.2-.09-.41-.13-.61s-.07-.32-.1-.48c-.08-.37-.15-.74-.22-1.13,0-.19-.07-.39-.1-.58s-.07-.4-.1-.59-.08-.52-.12-.77l-.06-.46,0-.18c-.07-.48-.13-1-.18-1.46l-.09-.95c-.05-.49-.08-1-.12-1.5,0-.25,0-.51-.05-.77s0-.38,0-.57,0-.45,0-.69l0-.33c0-.18,0-.36,0-.54s0-.42,0-.64v-.46c-.11-9.3,1.47-21.39,6.29-36.93.12-.39.25-.79.38-1.18,0-.13.08-.26.13-.38.12-.36.24-.71.37-1.07s.17-.45.25-.67l.13-.35c0-.11.09-.22.13-.34l.22-.57c.18-.46.37-.91.56-1.38l.07-.18c.09-.22.18-.44.28-.66l.23-.53,0-.07v0c.12-.27.23-.54.36-.81a4.52,4.52,0,0,1,.23-.5,2.71,2.71,0,0,1,.13-.3c.05-.12.11-.24.17-.36v0a.33.33,0,0,0,.05-.12l0-.05.23-.48q.32-.67.66-1.38c.1-.21.2-.43.31-.65l.35-.68c.12-.25.25-.51.39-.77l.31-.61c.12-.24.24-.47.37-.7l.18-.35c0-.09.09-.17.13-.25l.43-.81.1-.18.09-.18.2-.35.18-.34.31-.56.06-.11.24-.43.2-.36c.07-.12.14-.24.2-.36s.21-.37.31-.55a1.62,1.62,0,0,0,.1-.18l.38-.65,0-.08.42-.74c.29-.49.57-1,.87-1.48l.33-.56.57-.93c.22-.39.46-.77.69-1.15l.23-.36.4-.66.41-.66c.28-.43.55-.87.83-1.31l.27-.43.5-.78.5-.77.07-.11.18-.28.38-.59.38-.59.52-.78.41-.63c.14-.2.27-.4.4-.6l.58-.87.6-.88.12-.19L44.15,204s0,0,0,0l.61-.89.6-.86,0,0,.93-1.33.08-.12.06-.08.06-.09v0c.87-1.23,1.76-2.49,2.66-3.74l.66-.91.65-.91h-.27s0,0,0,0q2-2.73,4.05-5.49c.55-.75,1.12-1.49,1.68-2.24L57.67,185s0,0,0,0l2.3-3,1.18-1.52,1.18-1.51,1.19-1.52L65,175.59c.31-.38.61-.77.92-1.16l.93-1.17c1.86-2.33,3.76-4.66,5.66-7q1.4-1.71,2.8-3.4c.46-.57.93-1.13,1.41-1.69q1.47-1.78,3-3.54l2.7-3.2,1.42-1.67q2.44-2.88,4.91-5.72l2.21-2.56c.9-1,1.79-2.06,2.69-3.08l.15-.17,1.42-1.62,1.41-1.6,1.24-1.4c1-1.2,2.1-2.37,3.14-3.54.87-1,1.75-2,2.61-2.93l.5-.55,2.06-2.29.2-.22c.45-.5.9-1,1.36-1.5l.73-.81.67-.74.08-.09c.13-.13.25-.27.37-.4a.7.7,0,0,0,.08-.1l.14-.15.42-.46.39-.43.38-.42.78-.85.68-.74,1.73-1.9.22-.24c.44-.47.87-1,1.31-1.41,2.07-2.27,4.1-4.45,6.07-6.57l.84-.9.61-.66,3-3.23c.17-.19.35-.38.53-.56l.43-.47c.13-.12.24-.25.36-.38l.36-.38.06-.06.77-.81,0,0,0,0,.24-.25.45-.49.21-.22c.15-.15.3-.31.44-.47l.32-.33.13-.14.65-.69.23-.23s0,0,.05-.06l.55-.59.25-.25.1-.11.47-.5.47-.49,1-1.09.25-.27.25-.26,1-1,.37-.38a1.36,1.36,0,0,1,.12-.12c.08-.09.16-.17.16-.26h0a1.11,1.11,0,0,0,.32-.25,3.77,3.77,0,0,0,.43-.49h0c.37-.33.68-.65,1-1l.24-.24.15-.16s0,0,0,0l0,0h0c.16-.15.31-.32.46-.47l.44-.46.44-.46,1.7-1.76L142,89c.41-.41.8-.82,1.19-1.22l.21-.22,0,0,.07-.08.25-.25.55-.57.21-.21.17-.17.16-.17.72-.74c.07-.07.14-.15.22-.22l1.5-1.55.18-.17.57-.59,1.28-1.3.29-.29c.14-.15.27-.28.41-.41l.18-.19.19-.2.19-.19.18-.18c.11-.12.23-.23.33-.33l.15-.16.28-.28q.38-.39.6-.6l.06-.06.11-.11,0,0,0,0s0,0,0,0l0,0-.25.21-.14.12-1,.87-.09.08-.36.31,0,0-.56.48-.68.58-.18.16-.19.16-.12.1-.53.46-.56.48-.27.23-.33.27-.3.27-.08.06,0,0-.09.08-.09.08,0,0-.06.06-.2.17-.2.17-.53.44-.34.3-.16.14a0,0,0,0,0,0,0l-.53.45-.38.32-.37.32-.38.33A13.25,13.25,0,0,0,142,87.69h0s0-.42,0-.41l-.6.51h0l-.2.17-.42.36h0l-.63.55h0l-.2.16-.44.38,0,0-.87.75-.89.76-1.84,1.58-.48.4-.1.09h0l-.06.06a1.19,1.19,0,0,0-.18.15l-.26.22-.31.27-.7.6-.29.25-.29.25-1.46,1.25,0,0c-.11.11-.23.21-.36.32l-.3.25-1.44,1.24-.73.62-2.57,2.21-.88.75-.89.76-1,.87-.33.28-1.5,1.29-.29.25-.49.42-.74.63-3.76,3.23a3.88,3.88,0,0,0-.31.26l-.31.27-.22.18-.18.15-1.16,1-.4.34-1.3,1.12-.3.25s0,0,0,0L112,113l-.82.7-.06,0-.1.09,0,0-.09.08-.31.26-.77.66-.66.57-.12.09,0,.05-.19.16-.19.16a.69.69,0,0,1-.13.11l-1.34,1.16-1,.85-1,.87-.32.27-5.91,5.07-2.1,1.8-1,.9-1,.85-.06.06-1,.9-.29.24L91,130.88,76.5,143.36l-3.87,3.32-1.13,1-1.12,1c-.25.21-.49.43-.74.63L67,151.56l-2.1,1.8-2.17,1.87-2,1.71-5.35,4.6-1,.91-2.58,2.21-.6.52-.59.51-.58.5-.73.63-1.57,1.34-.56.49-.56.48-.56.48-.34.3h0l-.19.16-.54.47-1.07.92-.49.43c-1.13,1-2.22,1.91-3.27,2.81l-.33.29-1.44,1.24-.47.41-.47.4-.38.33-.07.06-.84.72-.47.41-.92.79-.44.39-.17.14-.19.17-.21.18c-.11.09-.21.17-.3.26l-.07.06-.36.31-1.23,1.06-.09.08-.08.08a.1.1,0,0,0-.05,0l-.05,0,0,0-.09.08-.77.67-.18.16-.11.09h0l-.08.07-.17.15-.54.46a1.06,1.06,0,0,0-.34.58h0c0-.23-.09-.19-.14-.15l-.09.08-.08.07-.67.58-.23.2,0,0s0,0,0,0l-.09.09-.11.1-.1.08-.09.08-.09.08-.53.46-.25.22-.15.13-.73.64,0,0-.6.53c-.24.2-.47.41-.7.62l-1.37,1.25-.67.64-.67.64-.6.59,0,.05-.63.63-.15.16-.16.15-.21.23a.94.94,0,0,0-.1.1s-.05,0-.05,0l-.12.12-.33.35a.52.52,0,0,0-.1.11c-.24.24-.48.49-.7.74s-.18.19-.26.29h0l-.08.08-.15.17,0,0-.09.09v0l-.05,0s0,0,0,0l-.21.23c-.07.08-.14.15-.2.23h0l-.09.11c-.14.15-.27.3-.4.46h0l-.14.16h0l-.05.07c-.06.07-.13.14-.18.21l-.28.33-.12.14c-.07.07-.12.14-.19.22l-.17.21-.59.72,0,0-.47.58c-.07.09-.13.18-.2.26l-.09.11-.55.72c-.19.24-.37.49-.55.73l0,.06-.07.09-.34.47v0l-.08.1-.3.43a.76.76,0,0,0-.08.11l-.07.11-.08.1-.15.22-.32.46,0,.07h0l-.06.1,0,0-.17.26-.18.28h0l-.05.07-.08.13a1,1,0,0,1-.08.11l-.07.12c-.09.13-.18.27-.26.41a.47.47,0,0,0-.06.09l-.3.47-.15.24-.08.13-.33.54v0l0,.06,0,0c-.06.1-.12.19-.17.29l-.06.1-.06.1v0l0,0-.11.2-.17.27-.27.49c-.16.28-.32.56-.47.85l-.22.41-.22.41-.43.83c0,.08-.09.17-.12.25s-.13.26-.19.39c-.17.32-.32.64-.48,1a1,1,0,0,1,0,.1c-.13.28-.26.55-.38.83s-.27.57-.39.87-.21.47-.31.71a.84.84,0,0,1-.06.14.25.25,0,0,1,0,.07l-.34.83c-.12.3-.24.6-.35.9l-.09.23-.24.64a0,0,0,0,1,0,0l-.54,1.52c0,.14-.09.29-.14.43s-.18.54-.26.82-.2.62-.29.94a1.72,1.72,0,0,1-.07.21,2,2,0,0,0-.07.26l0,.1-.05.18a.19.19,0,0,0,0,.07l-.07.22-.24.87-.3,1.19a1.82,1.82,0,0,1-.07.25c0,.06,0,.13,0,.19v.06c-.11.42-.2.84-.3,1.26l-.21,1c0,.13-.06.26-.08.4a0,0,0,0,0,0,0c0,.19-.08.37-.11.56a.5.5,0,0,0,0,.12s0,.07,0,.11-.07.36-.1.55a2.56,2.56,0,0,0-.05.27s0,.08,0,.11a.68.68,0,0,1-.42.56h0c.31.06.3.12.29.18a.13.13,0,0,1,0,.06.28.28,0,0,0,0,.09.09.09,0,0,0,0,0c-.06.33-.11.68-.16,1,0,.16-.05.33-.07.49s0,.19,0,.29-.05.32-.07.49l.83,0h0a.17.17,0,0,0,0,.07c-.05.32-.08.65-.12,1s-.07.57-.1.86l-.09,1c-.08.81-.15,1.64-.2,2.48-.07,1.08-.12,2.18-.14,3.29-.08,2.85,0,5.8.18,8.88a94.9,94.9,0,0,0,1.22,10.28s0,.07,0,.1c.14.82.3,1.63.46,2.43.08.41.17.81.26,1.2q.24,1.13.51,2.22c0,.12.06.25.1.38.07.3.15.6.23.9l.3,1.14c.1.38.21.75.32,1.13l.33,1.1c.16.54.33,1.07.5,1.59.08.23.15.47.23.7l.39,1.11c.13.38.26.74.4,1.11a.69.69,0,0,0,.05.13c0,.05,0,.09,0,.13l.2.54L7,276.66c.12.32.25.63.38.95l.51,1.23.45,1.05a.2.2,0,0,1,0,.08l.09.2.4.87c.17.38.35.74.52,1.11l.22.45c.07.15.15.3.23.45.19.39.38.77.58,1.15l.09.19.57,1.09.27.48c.18.34.37.67.56,1s.47.84.71,1.24l.4.68c.52.86,1.05,1.7,1.58,2.52l.47.7c.16.25.33.49.5.74l1,1.46c.33.46.66.91,1,1.34l.51.66c.24.32.49.63.73.94l0,0c.25.32.5.63.76.94l.51.61.5.6.24.28c.13.14.26.29.38.44l.38.43,1,1.09c.49.53,1,1.05,1.47,1.54l.48.48"/></g></g></svg>