<svg xmlns="http://www.w3.org/2000/svg" viewBox="0 0 99.87 99.87"><defs><style>.cls-1{fill:#fff;}</style></defs><g id="Layer_2" data-name="Layer 2"><g id="Layer_1-2" data-name="Layer 1"><path class="cls-1" d="M72.85,49.94A22.92,22.92,0,0,0,40.68,29a2.68,2.68,0,0,0-.1.69v1.27a2.64,2.64,0,0,0,2.64,2.64h9a3.28,3.28,0,1,1,0,6.55H36.07a2.64,2.64,0,0,0-2.64,2.64V44a2.64,2.64,0,0,0,2.64,2.64H59.72a3.28,3.28,0,0,1,0,6.55H36.52a2.65,2.65,0,0,0-2.64,2.64v1.27a2.65,2.65,0,0,0,2.64,2.64H52.27a3.28,3.28,0,1,1,0,6.55H43.21A2.64,2.64,0,0,0,40.57,69v1.26a2.62,2.62,0,0,0,.11.69,22.92,22.92,0,0,0,32.17-21Z"/><path class="cls-1" d="M51.6,0A49.74,49.74,0,0,0,17.69,11.81a4.78,4.78,0,0,0,3.11,8.42H49.58A29.71,29.71,0,1,1,31,27H22.57A22.53,22.53,0,0,0,0,49.17c0,.2,0,.4,0,.6A49.94,49.94,0,1,0,51.6,0Z"/></g></g></svg>