<svg width="34" height="26" viewBox="0 0 34 26" fill="none" xmlns="http://www.w3.org/2000/svg">
<path d="M15.63 24.615C15.7829 24.8371 15.9875 25.0186 16.2262 25.1441C16.4648 25.2695 16.7304 25.335 17 25.335C17.2696 25.335 17.5352 25.2695 17.7739 25.1441C18.0125 25.0186 18.2171 24.8371 18.37 24.615L33.37 2.94833C33.5436 2.69842 33.6455 2.40571 33.6644 2.10201C33.6834 1.7983 33.6187 1.4952 33.4775 1.22565C33.3363 0.956103 33.1239 0.730409 32.8634 0.573092C32.6029 0.415775 32.3043 0.332851 32 0.33333H2.00002C1.69642 0.334584 1.39891 0.418575 1.13948 0.576269C0.880055 0.733962 0.668521 0.959393 0.527631 1.22832C0.386741 1.49724 0.321825 1.79949 0.339865 2.10255C0.357905 2.40561 0.458218 2.69802 0.630016 2.94833L15.63 24.615Z" fill="white"/>
</svg>
