<svg xmlns="http://www.w3.org/2000/svg" viewBox="0 0 74.3 30.92"><defs><style>.cls-1{fill:#fff;}.cls-2{fill:none;}.cls-3{fill:#ffc600;fill-rule:evenodd;}</style></defs><g id="Layer_2" data-name="Layer 2"><g id="Layer_1-2" data-name="Layer 1"><line class="cls-1" y1="15.46" x2="74.3" y2="15.46"/><rect class="cls-2" width="74.3" height="30.92"/><path class="cls-3" d="M1.1,17.3c.06.23.13.25.2.09C1.23,17.39,1.17,17.09,1.1,17.3Z"/><path class="cls-3" d="M1.29,16.69c.07-.06.13.29.2.09S1.36,16.38,1.29,16.69Z"/><path class="cls-3" d="M1.81,17.91c.07.16.07-.05.18-.11,0-.16-.07-.13-.11-.2C1.83,17.7,1.86,17.81,1.81,17.91Z"/><path class="cls-3" d="M3.77,23.66l.09.26c.05-.22.09-.06.14-.23S3.85,23.43,3.77,23.66Z"/><path class="cls-3" d="M1.67,16.8c0,.19.11.41.15.22s-.05-.09-.1-.34C1.71,16.78,1.7,16.87,1.67,16.8Z"/><path class="cls-3" d="M4.08,23.83c.09,0,.09.22.13.4a1.55,1.55,0,0,0,0-.64Z"/><path class="cls-3" d="M3,18.64c0,.23.13.33.18,0S3,18.88,3,18.64Z"/><path class="cls-3" d="M4.92,24.45s.1-.06.07.08.09-.19.14-.24a.82.82,0,0,0,.19.47c0-.51.16-.45.28-.6-.06,0-.13.05-.2-.21,0,.35,0,.2-.14.36a.78.78,0,0,0,0-.26c-.06.14-.12.14-.18,0A1.39,1.39,0,0,0,4.92,24.45Z"/><path class="cls-3" d="M3.27,18.87l.09.27c0-.09,0-.27.07-.18C3.46,18.78,3.32,18.61,3.27,18.87Z"/><path class="cls-3" d="M3.57,17.13c.07.08.13,0,.2-.16S3.58,16.81,3.57,17.13Z"/><path class="cls-3" d="M6.78,26.11c.06.2.18.16.18-.1C6.9,26,6.84,26,6.78,26.11Z"/><path class="cls-3" d="M4.24,17.35c.07,0,.14.37.22,0C4.39,17.29,4.32,17.19,4.24,17.35Z"/><path class="cls-3" d="M6.52,21.81c.09.12.08-.17.2-.29a.28.28,0,0,1-.08-.14C6.6,21.79,6.49,21.44,6.52,21.81Z"/><path class="cls-3" d="M5,16.56c0-.2-.12-.22-.17-.53C4.77,16.31,5,16.44,5,16.56Z"/><path class="cls-3" d="M5.79,17.12c.08,0,.15.1.23-.1-.09-.11-.18-.11-.27-.29C5.67,16.85,5.87,17,5.79,17.12Z"/><path class="cls-3" d="M8.22,24.59c0,.39.13.08.18.15C8.43,24.42,8.27,24.64,8.22,24.59Z"/><path class="cls-3" d="M8.4,23.28c-.05-.26-.11.12-.15-.22a1,1,0,0,0,0,.51C8.3,23.26,8.4,23.59,8.4,23.28Z"/><path class="cls-3" d="M9.63,27.14c.08.16.16.29.25.1C9.8,27.19,9.72,27.06,9.63,27.14Z"/><path class="cls-3" d="M5.29,13.42c0,.24.09.08.13.27a.64.64,0,0,0,0-.52C5.36,13.26,5.32,13.34,5.29,13.42Z"/><path class="cls-3" d="M5.87,15.09c0,.28.12.21.17.28C6.07,15.18,5.92,14.8,5.87,15.09Z"/><path class="cls-3" d="M5.76,13.67c0,.07,0,0,0,0,.18.35.36.05.54.33.1-.2,0-.42.1-.63-.1-.2-.09.21-.16.17s0-.32-.11-.33c0,.35-.13.24-.21.42,0-.25-.1-.18-.15-.34C5.71,13.41,5.86,13.56,5.76,13.67Z"/><path class="cls-3" d="M9.46,23.93c0-.08.09-.22.12-.17.05-.33-.09,0-.11-.21-.09.14,0,.29-.07.44a1,1,0,0,0,.17.28C9.64,24.07,9.52,23.93,9.46,23.93Z"/><path class="cls-3" d="M4.29,7.74c.07.15.14.45.22.15C4.44,7.82,4.37,7.6,4.29,7.74Z"/><path class="cls-3" d="M4.28,7.29c0,.22.11.24.15.08C4.39,7,4.33,7.39,4.28,7.29Z"/><path class="cls-3" d="M4.58,7.84a3.11,3.11,0,0,0,.08-.44c0-.06-.08,0-.12-.08A1.33,1.33,0,0,0,4.58,7.84Z"/><path class="cls-3" d="M9.74,23.84c0,.4.17.15.24.35C10,23.78,9.81,23.81,9.74,23.84Z"/><path class="cls-3" d="M3.82,3.59c.07.09.17-.08.3-.4C4,3.31,3.93,3.26,3.82,3.59Z"/><path class="cls-3" d="M10.58,24.34c0-.21-.11-.49-.18-.28S10.51,24.63,10.58,24.34Z"/><path class="cls-3" d="M5.91,9.87c.07.26.33.09.21-.29C6.05,9.92,6,9.74,5.91,9.87Z"/><path class="cls-3" d="M7.41,14.16c0,.34.22.37.31,0a.34.34,0,0,1,0-.26C7.63,13.63,7.51,14.36,7.41,14.16Z"/><path class="cls-3" d="M5,5.79c.08.33.17.33.26.17C5.17,6,5.09,5.57,5,5.79Z"/><path class="cls-3" d="M11,24.59a.09.09,0,0,1,0,.13c.15-.27.28.15.43-.13C11.26,24.6,11.17,23.85,11,24.59Z"/><path class="cls-3" d="M6.89,10.26c.05.29.11-.08.16-.17S7,10.05,7,10A.84.84,0,0,1,6.89,10.26Z"/><path class="cls-3" d="M11.52,24.6c-.06.22.06.08.08.26,0-.39.08,0,.16-.29s-.11.25-.15-.09C11.58,24.57,11.54,24.66,11.52,24.6Z"/><path class="cls-3" d="M11.78,24.76c.15.12.17.63.29.36-.14-.23,0-.42-.08-.65C12,24.92,11.86,24.54,11.78,24.76Z"/><path class="cls-3" d="M7,7.54c.1.08.25-.09.16-.43C7.08,7.3,7.05,7.24,7,7.54Z"/><path class="cls-3" d="M12.54,24.87c.09.3.18.07.27.16a.67.67,0,0,1-.07.44c.15.19.15-.45.36-.34,0-.27,0-.15-.13-.4-.1.23,0,.09.06.33C12.87,25.07,12.71,24.64,12.54,24.87Z"/><path class="cls-3" d="M10.41,15.78c.1.2.21-.07.25-.28C10.57,15.45,10.45,15.44,10.41,15.78Z"/><path class="cls-3" d="M9,11.07c.09,0,0,.09.09.26a2.12,2.12,0,0,0,0-.44C9.11,10.82,9.07,11,9,11.07Z"/><path class="cls-3" d="M11.08,12.11c.1.07.19.12.29-.15C11.28,12.07,11.11,11.79,11.08,12.11Z"/><path class="cls-3" d="M9.8,4.48c0,.18.1.11.15.21.08-.11-.12-.27,0-.38S9.84,4.4,9.8,4.48Z"/><path class="cls-3" d="M8.69.89c.09.17.18,0,.27-.22C8.88.72,8.71.62,8.69.89Z"/><path class="cls-3" d="M13.37,14.34l.09.27c0-.1,0-.19,0-.12C13.55,14.3,13.41,14.12,13.37,14.34Z"/><path class="cls-3" d="M10.36,3.16c.09.22.19,0,.28.35a1.31,1.31,0,0,0,0-.44c.06-.11.16.13.16-.17,0-.11-.11.18-.16-.09C10.59,3.26,10.46,2.88,10.36,3.16Z"/><path class="cls-3" d="M13.82,12.94s.08.14.11.08,0-.46,0-.46S13.93,12.82,13.82,12.94Z"/><path class="cls-3" d="M11.66,3.08c0,.32.3.45.31,0C11.87,3.16,11.76,3.33,11.66,3.08Z"/><path class="cls-3" d="M11.5.83c.07.2.14.16.22-.1C11.65.78,11.57.66,11.5.83Z"/><path class="cls-3" d="M12.76,4.25c.08.06.15.24.22,0S12.84,4.1,12.76,4.25Z"/><path class="cls-3" d="M13.56,4.87c0,.12.1,0,.15.09a.66.66,0,0,0-.06-.33Z"/><path class="cls-3" d="M13.9,4.73c0,.24.12,0,.17.15C14.1,4.74,14,4.42,13.9,4.73Z"/><path class="cls-3" d="M17,14s0-.08,0-.13.05.07.08.14,0-.44.12-.3c.08-.22-.12-.09,0-.26A.45.45,0,0,0,17,14Z"/><path class="cls-3" d="M17.27,13.54c0,.14.06.08.09,0a.49.49,0,0,1,0,.26c0,.07.07-.09.11-.17s-.07-.22-.1-.34C17.36,13.53,17.32,13.37,17.27,13.54Z"/><path class="cls-3" d="M17.76,14.82c.06.09.12,0,.18-.1S17.82,14.63,17.76,14.82Z"/><path class="cls-3" d="M15.11,5.72c.1.09.1-.36.06-.5S15.13,5.54,15.11,5.72Z"/><path class="cls-3" d="M15,4.94c.11.12.28.32.34-.15C15.17,4.91,15.07,4.49,15,4.94Z"/><path class="cls-3" d="M15.27,5.68c.08,0,.15.08.23-.09-.08-.08-.15,0-.22-.16C15.26,5.51,15.3,5.6,15.27,5.68Z"/><path class="cls-3" d="M15.63,6.82c.2-.1.25.12.12-.56A2.15,2.15,0,0,0,15.63,6.82Z"/><path class="cls-3" d="M18.44,14.78c.07.2.14.21.22,0C18.59,14.75,18.51,14.57,18.44,14.78Z"/><path class="cls-3" d="M19.52,15.51c.22-.34.4,0,.53-.51a.63.63,0,0,0-.5.19.45.45,0,0,1,.05-.25C19.45,14.7,19.44,15.21,19.52,15.51Z"/><path class="cls-3" d="M17,6.36c.11.19.05-.48.11-.3C17.12,5.65,17,6.22,17,6.36Z"/><path class="cls-3" d="M17.1,6.19c.07.09.13.09.21-.16C17.24,5.94,17.17,6,17.1,6.19Z"/><path class="cls-3" d="M20.56,15.14a2.76,2.76,0,0,1,.08.27c.05-.1,0-.21.08-.31S20.61,15,20.56,15.14Z"/><path class="cls-3" d="M18.57,8c0-.15,0-.3.08-.44C18.54,7.46,18.41,7.93,18.57,8Z"/><path class="cls-3" d="M21.76,2.69c.1.39.19,0,.21-.29C21.9,2.39,21.83,2.56,21.76,2.69Z"/><path class="cls-3" d="M24,3.19c.09.25.09-.31.2,0s-.09.15-.12.3.17,0,.21-.29c-.06,0-.08-.1-.09-.27s.19.19.3-.15c-.05,0-.11,0-.16-.21-.13.3-.24.15-.31,0C24.05,2.73,24.14,3,24,3.19Z"/><path class="cls-3" d="M24.87,3.18a2.76,2.76,0,0,1,.08.27c.09-.22.09-.1.14-.36s-.21.3-.13-.15C24.91,2.78,24.88,3.13,24.87,3.18Z"/><path class="cls-3" d="M25.2,3.55a1.44,1.44,0,0,1,.14-.49l-.06-.2c0,.08-.05.09-.07.05,0,.24,0,.17-.07.31S25.15,3.43,25.2,3.55Z"/><path class="cls-3" d="M25.55,3.85c.08-.23.15,0,.23-.22-.09-.16-.2.12-.29-.23C25.45,3.67,25.52,3.56,25.55,3.85Z"/><path class="cls-3" d="M25.92,3.26a.54.54,0,0,0,0,.45A.17.17,0,0,0,26,3.59,1.05,1.05,0,0,0,25.92,3.26Z"/><path class="cls-3" d="M26,3.46c.05.12,0,.22.07.33,0-.09,0-.27.07-.18a1,1,0,0,0-.06-.33Z"/><path class="cls-3" d="M26.13,3c0,.13.15.55.22.29C26.27,3.13,26.2,2.91,26.13,3Z"/><path class="cls-3" d="M27.42,3.79c0-.23.1-.15.16-.3s-.11,0-.16-.21A.69.69,0,0,0,27.42,3.79Z"/><path class="cls-3" d="M28.11,3.69c.06.17.12.17.18,0a2.76,2.76,0,0,1-.08-.27A2.44,2.44,0,0,0,28.11,3.69Z"/><path class="cls-3" d="M28.54,3.81A1.06,1.06,0,0,0,28.8,4c.08-.14-.13-.32-.06-.45s0,.1-.07.18S28.59,3.55,28.54,3.81Z"/><path class="cls-3" d="M28.84,3.16c.05.12.11-.17.16-.05,0-.24-.07-.28-.15-.34C28.8,2.9,28.9,3,28.84,3.16Z"/><path class="cls-3" d="M29.34,4.18c.14-.35.27,0,.4.06.09-.39-.16-.46-.21-.8,0,.36,0,.4-.14.49-.1-.28-.08-.48-.2-.47A1.2,1.2,0,0,0,29.34,4.18Z"/><path class="cls-3" d="M29.37,3.36c.1.1.2,0,.29.1C29.66,3.28,29.46,3,29.37,3.36Z"/><path class="cls-3" d="M29.85,3.1c0,.13.07.07.11.21.06-.18-.05-.39,0-.57s-.09,0-.14.11S30,2.91,29.85,3.1Z"/><path class="cls-3" d="M30.5,3.13c0,.17.07.14.11.21,0-.15,0-.29,0-.45C30.58,3.12,30.56,3,30.5,3.13Z"/><path class="cls-3" d="M38.22,5.47c.11.22.22.07.34-.14-.1-.12-.19-.32-.29-.36C38.24,5.13,38.24,5.3,38.22,5.47Z"/><path class="cls-3" d="M40.41,4.56c.05.27.11,0,.16.09C40.6,4.47,40.46,4.29,40.41,4.56Z"/><path class="cls-3" d="M42.69,5.13c0,.25.19.28.27,0C42.87,5.06,42.78,5.14,42.69,5.13Z"/><path class="cls-3" d="M43.78,5.35c.11-.17.31-.16.35-.4C44,4.92,43.82,5,43.78,5.35Z"/><path class="cls-3" d="M46,5c.08.16.16,0,.24.1C46.24,4.91,46.06,4.73,46,5Z"/><path class="cls-3" d="M48.3,6.09c0-.14.07-.28.08-.43s-.09,0-.14.11S48.26,6,48.3,6.09Z"/><path class="cls-3" d="M55.82,28c.18.19.37-.37.54-.18C56.28,27.36,56,27.84,55.82,28Z"/><path class="cls-3" d="M56.39,27.66c.07.21.15.16.22-.09C56.54,27.51,56.47,27.54,56.39,27.66Z"/><path class="cls-3" d="M52.51,5.21a.59.59,0,0,0,0-.32.34.34,0,0,0,.36-.08c-.14-.18-.29-.2-.44-.06A2.52,2.52,0,0,1,52.51,5.21Z"/><path class="cls-3" d="M53.21,6.2c0-.19.11-.37,0-.57C53.15,5.62,53.14,6,53.21,6.2Z"/><path class="cls-3" d="M53,5a1,1,0,0,0,.06.33,1,1,0,0,0,.1-.37C53.14,4.8,53.08,5.17,53,5Z"/><path class="cls-3" d="M58.39,4.05c.08.12.12-.16.16-.3s-.09,0-.14.11S58.4,4,58.39,4.05Z"/><path class="cls-3" d="M58.73,3.27c.06.12.15-.27.15-.37S58.74,3,58.73,3.27Z"/><path class="cls-3" d="M59.13,3.7c.19.18.39,0,.58-.05,0-.3.09-.23.17-.42C59.61,3.23,59.43,3.59,59.13,3.7Z"/><path class="cls-3" d="M59.81,3.54c.08.18.16-.09.25-.16C60,3.25,59.89,3.25,59.81,3.54Z"/><path class="cls-3" d="M60.15,3.39c.08,0,.17.17.26,0S60.24,3.08,60.15,3.39Z"/><path class="cls-3" d="M60.38,3.87c.12,0,.16.17.22.29a1,1,0,0,0,.06-.63C60.64,4,60.47,3.66,60.38,3.87Z"/><path class="cls-3" d="M60.58.33c0,.29.13.16.18,0s-.07-.14-.11-.21C60.6.24,60.63.42,60.58.33Z"/><path class="cls-3" d="M61.59,2.83a.19.19,0,0,0,0,.13l0,.13c.07-.29.29,0,.43-.39a.41.41,0,0,1,0-.19c-.1.16-.21.12-.32.34-.1-.33.06-.22.06-.5s-.11.38-.16.17C61.58,2.59,61.71,3,61.59,2.83Z"/><path class="cls-3" d="M61,.26c.15,0,.29,0,.43-.26C61.27,0,61.13.1,61,.26Z"/><path class="cls-3" d="M62.18,2.66c.07,0,.06.41.17.4,0-.26,0-.4.1-.49C62.36,2.41,62.27,2.56,62.18,2.66Z"/><path class="cls-3" d="M62.34,2.23c.1.16.21-.06.32-.21C62.51,1.9,62.48,2.11,62.34,2.23Z"/><path class="cls-3" d="M63.35,2.31c0-.1-.06-.22,0-.32-.15,0-.31.58-.45.19C62.87,2.88,63.21,2.06,63.35,2.31Z"/><path class="cls-3" d="M62.84,1.92c.15.21.32-.18.48-.38C63.16,1.3,63,1.75,62.84,1.92Z"/><path class="cls-3" d="M63.22,1c0,.34.16,0,.22-.1S63.29,1.08,63.22,1Z"/><path class="cls-3" d="M63.3,1.34c.12.1.25.32.38-.13C63.55,1.49,63.43,1.05,63.3,1.34Z"/><path class="cls-3" d="M63.94,1.88c-.13-.32,0-.58.12-.43s-.06.32-.12.43c.05.31.12-.12.18.15a3.81,3.81,0,0,1,.49-1.4c0-.45-.31.33-.32.6,0-.38-.17-.1-.11-.46-.17.38-.32.85-.56,1.45C63.72,2.42,63.83,2.19,63.94,1.88Z"/><path class="cls-3" d="M64.56,1.26a.65.65,0,0,0,.06.33c.06,0,.12-.28.18-.23,0-.1,0-.22,0-.31S64.74,1,64.7.9C64.63,1.06,64.68,1.46,64.56,1.26Z"/><path class="cls-3" d="M64.82,1.81a.31.31,0,0,0,.11-.43A2.26,2.26,0,0,0,64.82,1.81Z"/><path class="cls-3" d="M65,1.06c0,.3.1,0,.13.28,0-.24,0-.26.1-.37C65.12.76,65,1.09,65,1.06Z"/><path class="cls-3" d="M.13,16.27c0-.15.07-.28,0-.44,0,.11-.08,0-.12.17.18.06-.09,1.13.11.33.19.08.39,0,.57.34.1-.27.12-.17.16.08,0-.08,0-.17,0-.25s0,.25.11.33a3.6,3.6,0,0,1,.19-.74c-.08-.12-.16.16-.25.29-.06-.37-.13-.14-.2-.09-.14-.6-.36-.3-.44-.57-.1.26.11.49.15.46C.31,16.47.23,16,.13,16.27Z"/><path class="cls-3" d="M2,18.89c.11.18.23.13.35.05-.07-.14,0-.25-.08-.39C2.26,19.08,2.14,18.7,2,18.89Z"/><path class="cls-3" d="M2.59,19c.07,0,.1-.14,0-.31s.06.07.09.14c.09-.14.06-.29.12-.43.13,0,.27.16.4-.07.16.67.33.12.49.32,0,.51-.25.15-.28.6.26-.17.4.3.68-.16.06.29.1.53.22.16a.87.87,0,0,1-.08.68c0,.19.08,0,.11.08,0-.21.11-.41,0-.63.15.35.32-.1.47,0-.2.24-.34.5-.39.52.06.47.33-.15.48-.25,0,.33.16.26.24.22s0-.17,0-.25,0,0,.06-.06c0,.11,0,.21,0,.32s.38-.2.57-.24a.68.68,0,0,0,0,.2c-.21.1-.27.32-.46.44.15.31.31.08.47.26,0-.23-.07-.09-.09-.27s.08-.11.12-.17c.1.2,0,.51.12.52s0-.21.07-.3,0,0-.06,0c0-.15,0-.66-.09-.27-.13-.36,0-.49.12-.43-.11.18.12.25,0,.52s.12-.32.18-.23a.36.36,0,0,1-.16.42c-.06.16,0,.35,0,.51s.16-.11.24.1-.09.18-.14.49.17-.11.24.22c0-.22-.1-.12-.13-.4.07,0,.14,0,.2.09a1.38,1.38,0,0,1,0-.7s0,0,.07,0c.1.14-.06.24,0,.39.1-.41.62,0,.58.46.06-.23.13-.1.14-.37.11.21,0,.39.1.59-.11-.08-.23.17-.34,0a.31.31,0,0,0,.47.25c0,.14,0,.25,0,.39.09-.18.2-.39.33,0,0-.32.11-.26.06-.63.06.29.15-.11.27.17-.06-.47.18-.17.18-.48.16.21-.1.36,0,.57.07-.25.13-.25.2-.16a3.25,3.25,0,0,1,0,.44c-.23.13-.45-.14-.63.17.05.25.11-.13.15.21.31-.69.58.48.88-.07.27.68.8.07.93.76.09.07.18.08.26.17.06-.48.21-.11.32-.21a.88.88,0,0,0,0,.32c0-.33.17-.32.16,0,.25-.35.49.23.74,0-.07-.19,0-.28.09-.36,0,.15-.1.28-.07.43.2.34.42,0,.63,0,0,.48.23.54.28.23,0,.24.09.09.13.27.13-.68.57.37.84-.2.18.73.56-.38.71.35-.07-.08-.14,0-.2,0,0,.36.27-.11.44.06s.32.49.34.11c.05-.14.08.21.13.27.16-.23.31,0,.47-.25.18.27.58.25.87.31,7.53,2.47,15.1,2.12,22.67,1.73a.67.67,0,0,1,0,.44c-.56-.47-1.14.29-1.7-.11,0,.26-.08.22-.16.3,0-.13,0-.05.07-.19s-.19.31-.27,0c-.07.16,0,.34-.06.5-.23-.63-.62-.45-.94-.13-.25-.11-.5-.32-.76,0a.32.32,0,0,1,0-.19c-.4.35-1-.15-1.21.34-.06-.18,0-.23-.09-.27a.57.57,0,0,0,0,.26c-.5-.44-.91.35-1.43-.19-.05.41-.3,0-.43,0s-.36.41-.45.07c-.18.26-.36.27-.53-.08-.11.12.05.26-.06.38s-.13-.22-.08-.27c-.13.33-.24,0-.36.21a.33.33,0,0,1,0-.26c-.16.33-.31.09-.47.26,0-.48,0-.06-.13-.28,0,.17-.06.31-.12.31a1,1,0,0,0-.06-.33c-.11.47-.33-.2-.55.3a.65.65,0,0,1,0-.31c-.27.13-.88,0-.95.25-.14.06-.26-.38-.4.07-.13-.31-.35-.5-.41-.18-.84-.29-1.61,0-2.48-.28,0,.08,0,.16-.05.24-.07-.19-.09-.12-.19-.34-.48.37-1.12-.42-1.67.15,0-.11,0-.21-.06-.32-.21,0-.42.2-.63,0,0,.18.05.73-.15.87-.05-.26,0-.41-.12-.53s.12-.44.16-.17c.08-.3-.15-.46-.13-.14-.28-.52-.58.16-.85-.38-.07.44-.26.28-.38-.11a.28.28,0,0,0,0,.25c-.25-.24-.51-.1-.76-.36a3.16,3.16,0,0,1,0,.32c-.36-.26-.87.14-1.13-.48,0,.06,0,.13,0,.2-.4-.16-.8,0-1.2-.42-.29.25-.76-.07-1.12-.16-.09.14,0,.3-.07.44s-.06.05-.09,0c.09-.69-.27-.35-.4-.56,0,.34.1.08.13.27s-.1.19-.14.24c-.13-.84-.44-.37-.66-.73-.08.14,0,.3-.07.44s-.06-.09-.09,0a.66.66,0,0,1,.07-.3c-.06-.18-.13-.18-.2,0s.07.27,0,.38.09-.08.14.15-.15-.11-.23.22c-.07-.38-.15-.21-.22-.28,0-.32.14.08.2-.17-.14-.44.07-.15.12-.3-.21-.48-.2,0-.4-.31,0,.12.06.26,0,.39s0,0-.07-.07c0,.16,0,.23,0,.26-.11.34-.22.19-.34.52a.46.46,0,0,1-.08-.39c-.1,0-.21.51-.3.28s.07-.25.1-.37-.14.13-.12.3-.13-.28-.2-.09c0-.13.05-.25,0-.39-.11.47-.45.55-.45.07-.1,0-.19-.22-.29.15-.12-.53-.31.05-.36-.43-.12.74-.4-.46-.6.1-.19-.19-.38,0-.56-.27s.12,0,0-.25c-.31.56-.6-.3-.9,0,0,.13.07.07.11.21s0,.17,0,.26c-.13-.08-.26-.4-.39-.44,0,.15,0,.13.06.2,0,.23-.1-.07-.14.23,0-.16,0-.23-.08-.26-.13.71-.36-.3-.55.18a.6.6,0,0,1,0-.51c-.05-.24-.12,0-.17-.15a.66.66,0,0,0,.06.33c-.07.26-.12.18-.18.22a.48.48,0,0,1,0-.37c-.16.22-.32,0-.47,0s0-.25,0-.39c-.1.65-.57.13-.73.41,0-.32-.22-.26-.08-.52-.09-.08-.1.09-.12.3-.09,0-.1-.62-.24-.35,0,.23.09,0,.14.14a.26.26,0,0,0,0,.19c-.22-.05-.44-.44-.67,0a1.79,1.79,0,0,0-.08-.65,1,1,0,0,0,.06.58c-.13.5-.24-.34-.36.08-.14-.25.06-.46,0-.7a3.17,3.17,0,0,0-.07.69c-.09.22-.09-.26-.14-.15a.58.58,0,0,1,.08-.31c-.08-.1-.21.07-.17.3-.15-.45-.15-.06-.26-.55-.15.24-.16.14-.31,0,0,.17.06.35,0,.5s.07.22.1.34,0-.33.14,0a.27.27,0,0,0,0-.25c.14,0,.57-.05.49.58,0,.15.09-.19.13-.24a.6.6,0,0,1-.07.56c0,.09.27.08.18-.23.1-.08.19.21.3-.15,0,.16-.1.29-.08.44s.31-.2.24.35c.06.16.08-.19,0-.25s.16,0,.24.23c0-.11,0-.22,0-.32s.1.06.16,0a1.73,1.73,0,0,1,0,.32.38.38,0,0,1,.59-.05c0,.18-.07,0-.1.24s.14-.08.2.22c-.09.13-.18.13-.27-.17-.07.53-.3-.12-.45.2.3.2.56.09.8.24.06-.23-.06-.09-.08-.27.15-.34.14.57.29.23-.05-.07-.09-.08-.14-.15.07-.32.12.1.19-.23a.39.39,0,0,1,0,.32s.08-.07.11.08c0-.43.43-.13.61,0,0,.31-.1-.15-.14.11a1,1,0,0,1,.92.19.54.54,0,0,1-.08.3c.09.34.17-.1.17-.29s0,.37.12.52c.13-.13-.08-.3,0-.44.18,0,.38-.32.55.14.08-.44.16-.22.28-.35.08.14,0,.26.08.4.15-.26.29-.17.43-.13,0,.24-.12.14-.16.16.09.28.26.12.38-.13.09.16,0,.29.06.45s-.15,0-.16.3c.28.06.47-.09.73-.41.12.2-.09.37,0,.57a.63.63,0,0,1,.71.35c.13-.4.2,0,.27,0,0-.12,0-.26,0-.37.17.44.58-.2.6.4.28,0,.66.39.87.05.14.38.29,0,.42.51.1-.35.2,0,.3-.41.08.14,0,.26.08.4.52.08,1.05,0,1.56.47,0-.17.08-.31,0-.32.43.28.86.52,1.29.3.11-.14.21.34.31.3s0-.17,0-.25c.13.14.3.32.49.06,0,.14.08.27.13.4.46-.28.91,0,1.36.26,0-.07,0-.13,0-.19.78.38,1.58.19,2.37.45.12-.38.66,0,1,.08s.34-.21.47.13l.1-.25c.08.48.29-.13.44.32.38-.41.92.2,1.37-.13l.09.27c.58-.39,1.14.21,1.73-.21.24.42.51-.18.75.23.16-.36.3.11.46-.19a1.24,1.24,0,0,0,1.25,0c.93.21,1.86-.2,2.78,0,0-.09.07-.17.1-.25s0,.12,0,.2c.49-.18.85-.12,1.35-.33,0,.09.05.18.08.27s0-.46.19-.23,0,0-.07.18.15,0,.15-.17c3.65.14,7.19-1,10.82-1.37a1.34,1.34,0,0,1,.07-.18c.49.2,1-.43,1.48-.06.09-.07.16-.5.18-.1.07-.18.27-.31.4-.07a2.44,2.44,0,0,0,.1-.24c.17,0,.34.13.52-.12.82.33,1.66-.5,2.48.15l.1-.24c.13.31.37.22.45-.07,0,.12,0,.22.06.33.06-.47.14-.18.2,0,.22-.39.48-.28.77-.27a.5.5,0,0,1,0,.32c.07.06.09-.45.21-.16a.47.47,0,0,0,0-.2c.07-.11.13.13.21-.16a.31.31,0,0,1,0,.25c.08-.16.23-.35.37-.33.05.33-.08.17-.15.37a7.65,7.65,0,0,1,.82-.66c0,.11.07.23.11.34,0,.28.06-.16,0-.26.13-.32.24-.24.41-.46,0,.28.19.18.08.4.08.1.08-.37.23,0,.1-.26-.06-.21-.09-.27.16-.33.32,0,.48-.38a.53.53,0,0,1,0,.25c0,.08.09-.13.13.14,0-.35.08-.13.17-.42.38.5.83-.82,1.16-.09.08-.57.32-.46.46-.58,0,.41-.19.1-.27.35s.07.06.11.2a6.16,6.16,0,0,1-.4.65c0-.66-.33,0-.4.07.26.33.68.12.93-.44a.6.6,0,0,1-.08.31c.14-.08.43-.08.44-.65.09-.12.06.26.11.34.26-.4.42-.39.71-.86a1,1,0,0,0,1-.62c.2.1.53-.2.66-.61.44.27,1.19-1.33,1.76-.4-.14-.81.33-.44.31-1.16.12.06.25-.68.36-.21.48-.7,1-.75,1.42-.12a1.52,1.52,0,0,0,.1-.63c.07-.07.15,0,.22.29.07-.29.13-.15.2-.16,0-.35.1-.3.15-.62s-.1.1-.14,0c.3-.44.79-.43,1.14.22.05-.46.18-.56.32-.46a3.8,3.8,0,0,1,1-1.78c0,.14.09.27.13.41,0-.42.2-.31.3-.54a.57.57,0,0,1,0,.26,1.49,1.49,0,0,0,.89-.83,1.66,1.66,0,0,0,1.08-1.07c.23.07.66-.67.84-1a6.65,6.65,0,0,0,.84-1.55c-.09,0-.09-.22-.13-.4s.12,0,.18-.23c-.11-.12-.16.12-.22-.15-.11.43-.3-.19-.34.27-.06.12-.1-.26-.15-.34a.82.82,0,0,1-.43.13,7,7,0,0,0,.37-.84,2.92,2.92,0,0,0-1.88,1.08c-.06.07-.12,0-.17-.15a1.74,1.74,0,0,0,0,.32c-.06,0-.13.09-.2.16-.1-.58-.36.35-.49.76a1.1,1.1,0,0,1,.1-.62c-.06.07-.15-.11-.15-.34s.14,0,.21-.42c0-.19-.11.4-.16.05-.08.11,0,.25-.09.36s-.06.05-.09,0,.1-.41.1-.62c0,0,0,0,.07-.06-.06.39.14.1.22,0,0,.12,0,.22.06.33.2-.19.24-.84.42-1,0,.24-.15.45-.21.67.08,0,.25-.11.21-.42.21.23.44-.3.66-.61-.13-.2-.27.29-.41.46.08-.61.36-.79.5-.44.18-.33.35-.62.52-.38.55-.84,1.07-.56,1.62-1.24-.12-.31-.24-.1-.35-.56-.13.12-.26.1-.38-.24,0,.08,0,.17,0,.25-.09-.44-.19,0-.29-.23a.67.67,0,0,1,.08-.44c-.12-.27-.24,0-.36-.05s0-.29,0-.45-.27.28-.47.38A1.26,1.26,0,0,1,70,10s-.08-.08-.11-.2c0,.06,0,.12,0,.19s-.14-.12-.19.23c0-.11,0-.22-.06-.33-.15.21-.3.14-.45.07a.85.85,0,0,0,0,.5c0,.17-.09.23-.13.24a6.94,6.94,0,0,1-.08-.77,1.56,1.56,0,0,0,.51-1.08c.28-.13.56-.31.83-.08-.06-.51.14-.33.25-.28,0,.27-.11,0-.16.17.12.29.25-.26.37-.33.08.17-.06.31.06.32,0-.43.34-.43.5-.31.14-.39.29-.2.48-.38,0-.43-.17-.1-.23-.16.16-.25.54-.71.82-.27.19-.52.83,0,.89-1.09.16.16.23-.4.36-.2s-.09.14-.07.43a3.09,3.09,0,0,0,.75-1.93A1.31,1.31,0,0,1,74.11,4c-.19-.3-.5-.22-.54-1-.1.35-.26.2-.28.6,0,.07.06,0,.09-.11,0,.24,0,.16-.07.3-.06-.25-.12-.31-.18-.27a.54.54,0,0,1,0-.45c-.06,0-.11,0-.11.18-.14-.47-.46-.07-.68.16-.24-.59-.51.22-.77.66l0-.14c.11-.67.36-.69.49-1.14,0-.18-.09,0-.13-.27-.39.69-.62.43-1,.88a1.11,1.11,0,0,0,0-.19,1.21,1.21,0,0,0,.42-.71c-.06-.2-.12,0-.18-.15,0,.27,0,.33-.11.17A2.9,2.9,0,0,1,71,3c-.13-.15-.43.07-.37.59-.06.2,0-.4-.11-.21,0-.13.09-.12,0-.37-.09-.05-.17.43-.14.61s0-.33-.11-.46c-.12.18,0,.38-.12.56s-.07-.21,0-.26-.07.28-.1.37a.93.93,0,0,1-.12-.4c0-.23.1-.15.16-.3-.13-.23-.2.22-.19.49-.16,0-.3.07-.41.58-.12-.19,0-.34,0-.52a2.61,2.61,0,0,1,.27-.22,1.16,1.16,0,0,1,0-.76c-.06-.14-.11,0-.12.18,0-.31-.1,0-.13-.4-.12.33-.24.31-.41.32,0-.18.13-.32.16,0,0,0,0-.08,0-.13l0-.12c-.08-.23-.18,0-.27.09,0-.26,0-.51,0-.77-.05.27-.05.15-.14.37a2.78,2.78,0,0,1-.11-.46,1.63,1.63,0,0,0-.07.3c-.06-.13,0-.25-.08-.39-.14.14-.27.09-.41.07,0-.29.06-.15.12-.43s-.13.21-.2-.09a1.15,1.15,0,0,0,0,.32c-.33-.27-.67.32-1,.11,0,.09,0,.18,0,.27s-.11.3-.17.29c-.07-1-.44.24-.62,0,.06-.9.3-.63.48-1-.09-.21-.21.23-.24-.23l-.14.36A1.2,1.2,0,0,1,66.4,1c.06,0,.12-.27.18-.1,0-.29.06-.16.07-.44-.09-.51-.22.62-.31.08-.11.35-.21.7-.31,1a.62.62,0,0,1,0-.5C66,.76,65.89,1,65.82.93a.84.84,0,0,1-.1.49c0,.08.09-.13.13.15s-.15.14-.22,0l-.21.54c0-.37,0-.3-.11-.33s0-.33,0-.51c0,.61-.16.41-.3.91-.14-.12-.27-.13-.4-.31a2.78,2.78,0,0,1-.4,1c-.1-.19.08-.33,0-.51-.2,0-.42.89-.51,1.34.21.16.28-.68.41-.84a.59.59,0,0,1,0,.32c.06.12.15-.27.1-.37.18.52.56-1,.81-.27-.16.74-.51.76-.73.67-.15.87-.47.78-.75.85a6.31,6.31,0,0,0,.15-1.13c-.07.27-.12.14-.19.36-.19-.7-.28.35-.46-.26a1.62,1.62,0,0,1-.35.4c.06.12,0,.21,0,.32s-.12,0-.18.23c-.1-.24,0-.38.09-.37,0-.29-.28.06-.27.35-.09,0-.18.21-.27-.17-.12,0-.26.61-.39.4a2.74,2.74,0,0,1,.13-1.07c-.16,0-.23.56-.45.45s0-.31-.13-.27c-.08.23.14.09.06.32.07,0,.13.08.2,0,0,.33,0,.29.13.27a.43.43,0,0,1,0,.25c-.06.11-.11-.36-.17-.28a1.63,1.63,0,0,0,0,.31c-.08.1-.15,0-.22,0,0-.17,0-.23.05-.25s0,.11.06.2a1.57,1.57,0,0,0,0-.57c-.32,1-.62.94-.92,1.4a.35.35,0,0,1,0-.26c0,.2-.27.55-.42.58,0-.33.23-.48.22-.67.06.28.11.14,0-.06-.26.29-.49.43-.68.41-.07-.43.24-.26.24-.73-.09,0-.12-.12-.16.17-.3-.35-.83.61-1.14.74-.06-.18.18-.32.06-.51a.7.7,0,0,1-.26.54c.07.07.13.18.2.1a1.37,1.37,0,0,0,0,.19c-.14.22-.27-.25-.41.2,0-.11,0-.22-.06-.33-.11.29-.21.08-.32.21a.58.58,0,0,1,0-.32c-.05-.1-.11.18-.16-.09a.3.3,0,0,0,0,.26,1.88,1.88,0,0,0-1.11.17.55.55,0,0,1,.06-.38c-.07,0-.14.11-.21,0-.11.15,0,.34-.05.5-.1-.27-.21-.17-.32.08-.06-.13,0-.25-.08-.39,0,.14,0,.3,0,.44-.12-.37-.1,0-.27.09-.06-.13,0-.25-.08-.39a.7.7,0,0,0,0,.32C55.25,6,55,5.53,55,5.1c-.22.23.16.39,0,.77-.08,0-.05-.18-.15-.34-.11.24-.23,0-.28.47-.1,0-.21,0-.24-.35L54.2,6c.08.35,0-.26.11.08s-.39.11-.59.43c0-.25,0-.47.12-.56-.15-.36-.18.48-.34.53-.1-.42-.21-.06-.32.08-.12-.36-.25-.2-.38-.11,0-.28.12-.09.17-.3s.06-.37,0-.57c-.13.37-.31.43-.42.84,0-.13-.09,0-.18-.16,0-.37.27,0,.1-.49.07-.25.14.09.21-.16s-.26.2-.25-.23c-.07.22-.15.12-.27.34,0-.51-.13,0-.24-.35-.14.37-.28.25-.41.46s.1.46.17.27c0,.45-.21.18-.29.16a.85.85,0,0,1,.07-.44,3.86,3.86,0,0,1-.08-.52c0,.57-.13.14-.25.54,0,.34.1,0,.15.21-.08,0-.15.25-.23,0,0-.13,0,0,.08-.18s-.1-.07-.07-.2,0,.41-.11,0a1.48,1.48,0,0,1,0,.63c-.11,0,0-.21-.09-.39a.93.93,0,0,0,0,.44s-.07-.09-.11,0c-.11-.29.08-.54,0-.83a2.83,2.83,0,0,0,0,.5c-.08.28-.14-.29-.23.1a2.72,2.72,0,0,1-.1-.46c-.1.25-.2.08-.29,0-.06.44-.23.3-.34.27s.12-.24,0-.38c-.1.39-.21.18-.36.2s0,.31,0,.45,0-.38-.12-.53c-.06,0-.09.07-.1.24-.21-.73-.45.34-.67-.09-.08.42-.13.35-.28.6,0,0-.06-.26-.15-.21,0-.33.13-.16.18-.36-.13-.21-.24,0-.34.27-.11-.12-.06-.27-.12-.53-.09.08-.14-.1-.19.23l-.08-.26c0,.34-.21.46-.29,0-.08.46-.14.26-.25.16-.1.22,0,.07,0,.26s-.11,0-.16,0a.78.78,0,0,1,0-.51c-.1,0-.19-.09-.29-.49,0-.08,0-.09.07,0,0-.24-.22-.14-.31-.17.24.21.19.62.42.76-.22.52-.24-.4-.4-.31,0,.28.16.57.14.85-.06-.25-.21-.22-.26-.55-.07.27-.07.54-.13.81,0-.45-.08-.43-.16-.66s.09-.32,0-.51a1.42,1.42,0,0,0,0,.51c-.06,0-.14-.24-.09.11-.07,0-.13-.2-.2-.35s.21,0,.17-.42c-.12.22-.67.72-.56,0-.07,0-.14.27-.21,0-.1.6-.33.1-.5.7,0-.43-.18-.17-.13-.53-.07-.11-.06.33-.16.42s-.34-.24-.52.12c0-.35-.16-.26-.18,0-.06-.35-.13-.13-.19-.35,0,.21,0,.22.08.53-.09,0-.19-.24-.22-.42s-.07.37-.22,0a.85.85,0,0,1,0,.32c.1-.08.19,0,.29.23a1.73,1.73,0,0,0-.5-.07c0-.07,0-.13,0-.19s.22.16.23-.23c-.11-.21-.22.29-.38-.11,0,.09-.06.18-.09.11a.58.58,0,0,0,0,.32c-.1.21-.2,0-.3.15-.08-.14,0-.26-.08-.39C42,5.83,42.1,6,42,6c-.08-.18.05-.31-.06-.33s0,.21,0,.31c-.34-.79-.77-.07-1-.46,0-.13.07-.24,0-.37s-.26.42-.38-.12a.7.7,0,0,0,0,.32c-.05.23-.09.07-.14.24a.44.44,0,0,1,0-.32c-.06-.17-.13,0-.2-.09a.59.59,0,0,0,0,.26c0,.22-.09,0-.14.11a.69.69,0,0,0,0-.32,2.44,2.44,0,0,1-.1.24c-.06-.13,0-.25-.08-.39a1.16,1.16,0,0,1-.65.1l.06.2c-.06,0-.12.27-.18.1a.37.37,0,0,1,0-.31c-.13-.17-.37.14-.43.26,0-.27-.09-.34-.18-.16.11.26,0,.26,0,.38.21-.11.29.27.51.13,0-.11,0,0,0-.13,0-.28.09.17.14-.11a2.74,2.74,0,0,0,.17.53c-.26-.29-.62.21-.8-.23,0,.06,0,.12,0,.18s0-.24-.06-.32c-.15.5-.27.17-.41.07,0,.35-.13.31-.23.22a1.9,1.9,0,0,0,.06-.75c.07-.08.18,0,.19-.23-.09,0-.09,0-.13-.28,0,.29-.1.22-.12.43s-.15-.16-.23.1c-.08-.47-.29-.24-.45-.06,0-.39-.08-.36-.2-.09a.69.69,0,0,1,0-.32c-.15-.2-.3.22-.45.07,0,.12.05.26,0,.38s-.08-.34-.13,0a.59.59,0,0,1,0-.32c-.07-.07,0,.35-.11.17a.51.51,0,0,1,0-.38c-.12.17-.32-.19-.36.2-.06-.13,0-.25-.09-.39,0,.39-.11,0-.11,0-.16,0-.21.53-.38.13,0,.38-.22.18-.32.22a.93.93,0,0,0,0-.33c-.07.41-.18,0-.3.41s.12.35.16.21c0,.06-.11.28-.14.24,0,.3.1.08.13.14a.67.67,0,0,1-.07.31s-.12-.41-.22,0a.66.66,0,0,1-.06-.45c-.08-.24-.17.09-.25-.23,0,.17,0,.39-.09.37a2,2,0,0,1,.4-1c-.08,0-.15-.2-.22-.28,0,.12,0,.38-.12.17a3.16,3.16,0,0,1,0,.32c-.1.16,0-.16-.15-.34,0,.53-.38.56-.42,0,0,.32-.1,0-.17.3s.15-.08.23.16-.2,0-.27,0a1,1,0,0,1-.1.37c-.05.14-.05-.2,0-.25s-.09.32,0,.44c0-.09.1.08.15-.17,0,.13,0,.26,0,.39s-.2-.24-.31-.05c0-.25.16-.69,0-.76,0,.35,0,.17-.11.3,0-.38.07-.16-.09-.39,0,.24,0,.33-.12.43,0-.49-.17.15-.26-.29.27,0,.49-.42.79-.09-.11-.44.2-.17.16-.67,0-.13-.07-.07-.1-.21-.05.41-.24.09-.27-.16.06.37-.11.32,0,.69-.05,0-.12.18-.17,0s.18,0,0-.32c0-.28.09.17.14-.11,0-.11,0-.21-.06-.32-.14.41-.17.07-.2-.22,0,.53-.29.15-.43.26s0,.17.06.32c-.15.42-.4,0-.48.38-.09-.16,0-.29,0-.44.12,0,.24-.08.36.05a1.25,1.25,0,0,0,0-.51c0,.12-.07.06-.09,0a.57.57,0,0,0,0,.26c-.12-.4-.46-.05-.54.31.06-.64-.16-.33-.21-.8,0,.11-.08.11-.12.05,0,.34.1.08.13.27s-.09.43-.21.8c-.1-.36.1-.35.1-.62s-.09,0-.21.16a2.3,2.3,0,0,1,0,.45c-.05.09-.1-.21-.16,0,.09.27.2-.25.29.23.12-.25.23-.46.34-.4s-.1.1-.13.11c0,.23.11.25.09,0,0,1.25-.65.12-1,.5a.48.48,0,0,1,0,.26c0,.19.11-.19.16.08s-.17.4-.23.1c0,.3-.15.68-.23.35,0-.07.14-.26.18-.1a2.42,2.42,0,0,1,.08-.69c-.1-.16-.06-.25-.17-.41.16-.12.25.14.45-.32-.09-.31,0-.3-.12-.53,0,.22.08.44-.06.63-.15,0-.3-.16-.45-.06a.54.54,0,0,1,0,.39.3.3,0,0,0,.2.09.68.68,0,0,1-.14.36.31.31,0,0,1,0-.25c-.13-.19,0,.36-.19.23a5.44,5.44,0,0,0,0-.57c-.16.46-.46-.05-.63.42,0-.15,0-.29-.06-.45-.09.13-.16,0-.25.28A1.18,1.18,0,0,1,29.3,5c-.11.14-.21,0-.32.21,0-.25.09-.72.19-.35-.05-.2,0-.38,0-.58-.1.44-.2.25-.39.52,0,.27.1-.1.15.09s-.13,0-.21.29c0-.11,0-.22-.06-.33-.06.68-.26,0-.38.27-.06-.48.17-.32.19-.62,0-.06-.05,0-.07.06-.1-.14.06-.25,0-.39-.08.19-.2,0-.16.3s-.15-.15-.23,0c0-.17,0-.41.1-.24,0-.45-.29.32-.31-.3l-.14.36a1.28,1.28,0,0,1,.06.33c-.09.14-.09-.1-.13-.28-.14.5-.27,0-.51-.26-.14.35-.42-.21-.63,0,0,.31.09.09.15.22,0,.33-.25.23-.36.2,0-.32.14,0,.12-.3a1,1,0,0,1-.13-.4c-.05.12-.16.5-.24.73-.1.08-.07-.34-.14-.47s-.23.32-.2-.09c-.18.33-.35.21-.52.12s.09-.37,0-.57c-.13.17,0,.38-.07.56s-.11-.34-.17-.53c-.06.12-.12-.07-.18,0A1,1,0,0,0,24.56,3c0,.1,0,.27-.07.18-.06.18.07,0,.08.27s-.12,0-.18,0c-.05.16.08.24.11.2a3.15,3.15,0,0,1,0,.44c-.08,0-.08-.23-.13.11-.1-.3,0-.22,0-.44s-.09.14-.12.3S24,4,23.93,4c0-.19.08-.37.08-.56s-.18-.63-.31-.43c-.08-.4-.1-.61-.3-.68.06.14.14.16.13.4s-.14.08-.2,0c0,.12,0,.26,0,.37.08,0,.24.35.27,0a.82.82,0,0,1,0,.44c-.07,0,0-.36-.15,0-.1-.14.06-.24,0-.38,0,.38-.11.35-.21.16-.05.23,0,.3.09.27s-.08,0-.12.17c0-.15-.15-.32-.1-.46s-.2.33-.16-.08c-.07-.13-.12.55-.23.35s.05-.21.08-.31-.31-.43-.36-.05c0,.05-.19-.09-.09-.27-.19,0-.45.4-.53,1.14-.05,0-.1-.06-.16,0-.08-.22.09-.41,0-.64.11-.24.1-.07.18,0A.76.76,0,0,0,21.73,3a.47.47,0,0,0,0,.2c-.07.11-.14.25-.2,0s.07,0,.09-.24-.12.16-.17-.15c0,.61-.29.15-.45-.19-.08.22-.14.65,0,.7,0-.33.06-.2.14-.1s0,.11-.07,0c0,.29.27.11.38.24-.37.4-.92,0-1.35.2a.43.43,0,0,1,.05-.25c-.06-.1-.12-.16-.19.1,0-.41-.09-.06-.17-.28s.15-.27,0-.44c-.09.41-.13.16-.29,0-.07.31-.16.51-.27.09-.08.28-.15.06-.23.35C18.83,2.43,18.4,3,18,2.55c0,.28-.1.51-.13.11a.75.75,0,0,0-.08.44s-.06,0-.09,0a1.52,1.52,0,0,1,.08-.56c-.13-.26,0,.53-.18.11,0,.44-.08.28-.21.28a.66.66,0,0,1,.08-.43c-.22.32-.55,0-.71.73-.11.13-.11-.08-.18-.15s.07-.38,0-.58a.88.88,0,0,0,0,.51c-.11-.09-.09.12-.19.22-.06-.34.09-.76.19-.73s0-.2,0-.13c-.15-.38-.36-.81-.61-.15-.08-.18.11-.32,0-.51-.08.35-.3-.08-.45-.06s0,.21-.07.31a.86.86,0,0,0,0-.32c-.09,0,0,.08-.1.24,0-.08,0-.16,0-.25-.1-.28-.2-.07-.19.23,0-.09,0-.11-.06-.08a.42.42,0,0,1,0-.24c-.21-.05-.53-.56-.68-.1-.19-.37-.15.1-.26-.16-.12.49-.19.39-.35.65,0,.18.1.11.15.21s-.13-.13-.2,0a.53.53,0,0,1,.05-.25c-.14,0-.28-.32-.42-.37a.53.53,0,0,1,0-.25c-.07,0-.13-.14-.2,0-.08.69-.52-.33-.74.09a5,5,0,0,1,.77.43c-.09.15-.18,0-.27,0,0,.3.12.09.16.21s-.1.24-.14.37c0-.11,0-.22-.06-.33-.19.14-.19.73-.42.45,0-.22.16-.25.21-.41a1.71,1.71,0,0,1,0-.45c-.05.08-.17.85-.35.52a.59.59,0,0,1,0-.37c-.09-.24-.18.52-.32.34s.07-.33,0-.52c0,0,0,.08,0,.13s-.12,0-.1.37c0-.06-.19-.17-.16.17-.05-.06-.11.09-.15-.09s.15-.44.12-.68a1.56,1.56,0,0,0-.21.29c-.06-.14,0-.26-.08-.4-.14.07-.27,0-.4,0,0-.16.08-.07.11-.3-.17-.22-.22.65-.38.13-.05.06-.1.4-.14.24,0,.17.07,0,.09.27a1.34,1.34,0,0,0-.07.18c-.13-.26-.27,0-.4-.31s.18-.34.24,0c.07-.15.13-.25.19-.23s-.24-.48-.36-.05c-.09-.2,0-.38-.06-.58-.09.44-.35.37-.56.37,0-.24.07-.07.09-.25-.1,0,0-.22-.13-.4-.12.18-.24,0-.36.21C9.21.18,9.21.66,9,1.05c.1,0,.2-.16.29,0a.3.3,0,0,0,0-.26q.11-.12.18,0c.05.12-.07.16-.09.11,0,.21.24.82.35.44.07.38.32.39.47.25.05.19,0,.34.11.08.22.45.45.57.69.41,0,.44.24.13.17.54,0-.13.11-.1.2-.17s-.07-.06-.1-.2.09-.06.13-.11a.47.47,0,0,1,0,.31c.06.21.12.07.18.28,0-.08,0-.16.05-.25,0,.2.1.36.15.09,0,.1.07.28.11.21.06.13-.12.23,0,.38.09-.49.47-.21.55.14.08.16,0-.2.1-.24s0,0,.07-.06c.08.16,0,.3.1.46.15-.38.44,0,.65.15.05-.23.1-.15.16-.29-.11-.3-.09.22-.2,0,.05-.19,0-.14,0-.44.15-.4.28-.16.31.17s-.11-.31-.18,0c.1,0,.15.4.06.58.14,0,.28.22.42.25,0,.35,0,.21.09.4-.08.07-.15,0-.22-.29,0,.12,0,.26,0,.38.08-.08.16.12.25.1A1,1,0,0,0,13.87,4c.12-.07.25.14.38-.14s0-.34,0-.51,0,.33.1.46,0,0-.07.18c.13.46.43.22.57.72.19-.38.36-.09.54,0,.06.33-.13.26-.14.61s.17-.4.19.22a1.66,1.66,0,0,0,0-.63c.15-.14.31-.05.46.13.06-.49.21-.28.32-.22A.43.43,0,0,1,16.2,5c0,.06-.07-.11-.11-.2a.28.28,0,0,0,0,.18L16,5.08c.08.18.17-.19.24.23-.05.16-.1,0-.15,0,0,.34.13.18.17.28-.15.52.17.12.29.36,0-.2,0-.56.12-.56-.07.32,0,.33,0,.71,0-.08.05-.09.07,0,0-.36.12-.3.15-.62.06.06.24.45.38.11a1.09,1.09,0,0,1,0,.51c.12.18.24.22.3.43a2.44,2.44,0,0,0,.1-.24L17.64,6c-.09.35-.16-.08-.24-.1.11-.26.2.16.31-.08,0,.77.24.36.42.75-.07-.09-.14.09-.2-.09,0,.32.17.23.24.23,0-.17,0-.34,0-.5s.06.34.11.46c0-.13.06-.07.09,0,0-.4.11-.38.22,0-.06-.43,0-.14.14-.49.13.37-.16.29,0,.64.05-.47.13-.33.19-.62.11.32-.13.29-.1.5.11,0,.14,0,.21-.29.1.29-.08.14-.05.38.19.47.26,0,.45-.2a1.92,1.92,0,0,0,.11.46c.1-.28.19,0,.29-.15a4.3,4.3,0,0,1,0,.51c0,.12-.06,0-.09.12-.07-.14,0-.26,0-.39-.14,0-.18.27-.34.15.09.12.19.35.28.23.08.19-.12,0,0,.25-.11-.14-.21-.09-.32-.17,0,.08,0,.17,0,.25s0-.24-.11-.33c0,.11-.07.11-.11,0,0,.79-.21-.21-.34.27-.08-.18,0-.39-.08-.39-.07.24,0,.51-.06.75s.12,0,.18.15a.61.61,0,0,0,0-.26c.07-.21.15,0,.22,0,0,.24-.07.1-.1.37-.09,0-.17-.08-.27.09-.08-.18,0-.38-.08-.39-.16.91-.64.18-.92.19,0-.17.09-.33.05-.5.27.13.53.39.8.36.05-.22-.1-.24-.13,0-.07-.23-.16-.18-.06-.46a.77.77,0,0,1-.23.1c0-.17.07-.33,0-.52-.08.36-.1.24-.21.16s0-.29-.06-.45-.36.09-.45.32a1.15,1.15,0,0,1,0-.32c.07-.17,0,.33.09,0-.13-.26-.27-.06-.4-.31-.05.14-.11.28-.16.43a3.41,3.41,0,0,0-.13-.53c-.1.42.05.42.08.65s-.16-.46-.24-.1c-.11-.27.09-.5,0-.77a.41.41,0,0,0,0,.19c-.17.2-.34,0-.51-.13-.1.26,0,.56.12.53-.08.11-.17.7-.25.41s.09-.07.07-.31-.09.14-.13-.15c-.05.24,0,.34-.12.43a.46.46,0,0,1,0-.38c-.12-.27-.12.5-.23.22s.13-.36,0-.56c-.08.13-.06.29-.12.43s-.06,0-.09,0,.13-.19.1-.49c-.11,0-.08-.19-.19-.48s-.43,0-.59.05c.14-.44-.35-.31-.5-.52,0-.33.2.08.29-.27-.17-.34-.34.3-.47-.13a.61.61,0,0,0,0,.26c-.06.3-.11,0-.18.23-.16-.65-.39-.09-.48-.58-.21.27-.33-.1-.5.32.08,0,0,.09.08.26-.25.38-.31-.34-.32-.87-.06.25,0,.51-.06.76-.09-.09-.19-.07-.28-.23s.12-.14.16-.3c0,.15-.34-.27-.4-.18,0-.07,0-.41,0-.26,0-.3-.09,0-.13,0a.46.46,0,0,0,0,.26c-.18,0-.46-.8-.71-.48,0-.11-.07-.22-.11-.33,0,.12-.08-.1-.13.11-.19-.7-.39,0-.57-.72-.21.31-.41,0-.6-.4.12-.18.13-.32.23-.47-.22,0-.46.4-.56,0A9.8,9.8,0,0,0,9.36,4C9.24,4,9.14,3.77,9,3.67c0,.57.4.26.38,1,0,.14-.08-.21-.13-.27,0,.39-.18,0-.27.34A1.15,1.15,0,0,0,8.93,4a.84.84,0,0,1-.17.55c-.06-.25-.19-.59-.2-.21-.07-.19,0-.4-.12-.4,0-.25,0-.17.07-.31-.1-.07-.19-.15-.29,0-.08-.22.09-.41,0-.64,0,.1-.08.61-.16.3a.64.64,0,0,0,0,.45c-.13.13-.11.07-.16.42s-.09-.36-.14-.14.06.26.09.39-.12-.15-.18,0c0-.17.1-.32,0-.5,0,.27-.16.1-.11-.08-.14.48-.37.21-.56-.27C7,3.74,7,3.88,7,4s0,.14.12.4a.4.4,0,0,0,0-.32c.18-.08.36.33.55.52-.16.2-.31-.33-.47-.13a1.05,1.05,0,0,1,.24.35c-.09.14-.18-.21-.27.22,0-.18,0-.34,0-.52,0,.12-.07,0-.11.18a.39.39,0,0,1,0-.32c0-.13-.09.08-.13-.14,0,.36-.17.12-.19.48-.11-.23,0-.42-.07-.65-.1.19-.3-.08-.31-.29-.15.21-.14-.19-.27,0,0-.24.07-.07.09-.24s-.25,0-.37-.25a1.65,1.65,0,0,0-.08.57c-.08-.08-.22,0-.23.35-.1-.14.06-.25,0-.39s-.14.14-.2-.09c-.09.15,0,.31-.12.3-.07-.22.11-.41.1-.62s.1.43.16.08-.2-.28-.29-.1C5,3.24,5,3.12,5,3c-.12.2-.36.43-.39.13,0-.07,0,.1,0,.19s-.17.11-.25-.22c0,.23-.1.06-.16.29.1-.2.19.47.29.11.06.32,0,.44.12.65-.13.41-.16,0-.2-.09-.09.3.09.24.08.52.05-.2.1-.19.14,0,.06-.23.11-.06.12-.3s-.14,0-.11-.34c0-.1.1.28.16.09,0,.25-.07.32,0,.45,0-.44.1,0,.18,0S5,5,4.9,4.83s.2.43.31.29c.08.56.22.22.28.74.12-.1.11-.37.23-.35a.67.67,0,0,1-.07.31c.09.42.19.19.28.36C6,6,6,6,5.89,5.92c.07-.31.16,0,.16-.3,0,.06,0,.41.09.27,0,.25,0,.16-.07.31.11.24.24,0,.35.43,0-.67.16.33.27-.22,0,.39.09.17.11.46-.09,0-.17.11-.25-.22-.08.52-.28.06-.42-.25A1.16,1.16,0,0,1,6,7c.22-.57.63,1,.85-.13.14.08.29,0,.43.25,0-.17,0-.24,0-.26s.09-.25.14-.37.08,0,.13.15-.14,0-.21.29c.07.18.13.17.2.34L7.6,7s.08,0,.11.08a.68.68,0,0,1-.07.44c.16.13.09-.61.27-.35a.59.59,0,0,0,0-.32c.05-.1.1-.16.14-.11-.1.55.25.75.37,1-.14.14-.46-.29-.46.19-.13,0-.26-.25-.4-.18,0,.36.16.13.22.28-.11.16-.1,0-.18.36,0-.56-.13-.08-.17-.66a1.11,1.11,0,0,0,0,.7c-.08.1-.08-.3-.12-.4-.06.14-.11.06-.17.29-.08-.14,0-.26-.08-.39-.1.3-.06,0-.15-.09-.11.19-.21,0-.32.21-.09-.16,0-.29,0-.44.11-.1.31.23.3-.28-.06-.05-.12.18-.18.23a1.17,1.17,0,0,0,0-.26c-.11.26-.13.28-.21,0-.13.22,0,.47-.12.69,0,0,0,0-.07.05-.08-.18,0-.34,0-.51s-.12,0-.17-.28a.33.33,0,0,0,0,.26c-.14.13-.26-.48-.4.07-.24-.25-.43,0-.62-.47-.08.31-.15.06-.23.1a1.62,1.62,0,0,1-.08.56,2.27,2.27,0,0,1,.17.54,3.15,3.15,0,0,1,.1-.5c.1-.07.19.16.3-.15,0,.24-.11.45-.13.68s.22,0,.2.35c.15.12.3-.32.44.19-.09.18-.18,0-.27.21s.12,0,.18.28c0-.26,0-.26.08,0,.18-.44.34.27.52.13.09.14,0,.25,0,.37s.12,0,.17.16a2.35,2.35,0,0,0-.14-.72,1.66,1.66,0,0,1,0-.32s.1.06.15.09-.05.24,0,.38a.78.78,0,0,0,.07-.3s.06.09.09,0c.05.28,0,.14,0,.37s-.13-.24-.2,0a12.11,12.11,0,0,1,2.07,1c0-.52.27-.21.31.17.05-.27,0-.55,0-.82.13-.11.11.4.24.23,0,.08,0,.16-.05.24s.23-.19.34,0c-.15.67.26.41.43.95.09-.12,0-.26,0-.39.18,0,.1.11.26.29,0-.1-.05-.22,0-.32s.09,0,.13.15a.82.82,0,0,1,.1-.37c.1-.19.06.34.18,0a.56.56,0,0,1-.06.38c.27.22.22.41.56.27a.55.55,0,0,1,0,.31c.22-.34.42.05.63-.17a.76.76,0,0,1,0,.26c.08,0,.17-.17.25-.41a.37.37,0,0,1,0,.38c.27-.12.52.63.8,0,.09.16,0,.29.06.46s-.08-.11-.13.1c.21-.07.48-.42.74-.09,0-.27-.17-.22,0-.51.12.28.21.51.31.43.07-.4-.09-.05-.15-.22s.16-.09.25-.15q0,.32-.06.63c.23-.07.4-.52.65-.23,0,.08,0,.16,0,.25s.07.07.11.21c.08-.23,0-.25.14-.37a1.19,1.19,0,0,0,.08.4c.12-.12.23,0,.34,0,.05.17-.07.22-.09.12.08.4.27,0,.34-.4.11.18,0,.34-.05.5.15,0,.32-.49.47-.25s-.07.37-.09.11c0,.28.11.39.22.41,0,0-.14.07-.05.25s-.09-.16-.14.11.15,0,.22.16c0-.18,0-.49.12-.3,0-.12,0-.07-.06-.2a.82.82,0,0,0,.27-.48c.11.19-.05.34,0,.52.07-.2.18-.18.19-.49.19.11.4.31.53.21a.75.75,0,0,1,.08-.44c.06.38-.07.55.12.65-.06.25-.12.07-.18.11,0,.33.21,0,.29.1,0-.1,0-.21,0-.31.07.14.12.05.17.4.09-.14,0-.29.12-.43s.12.58.24.1c.07.14,0,.25.09.39s-.11.09-.16,0c.32.67.86.13,1.27.36a1.44,1.44,0,0,1-.1.5c.08.09.17-.11.25.1A1,1,0,0,0,19,14c.2,0,.55.67.76-.14.07.29-.08.21-.07.43a.56.56,0,0,1,.29.1c0-.1,0-.21,0-.31s.38.66.47.13a2.72,2.72,0,0,0,.1.46c.07-.07.14-.36.2,0,.12-.65.38.21.57-.24,0,.13.08.27,0,.39.11-.12.23-.34.33.11.05-.16.09-.22.14-.24a.78.78,0,0,0,0,.26c0-.2.14-.18.09,0,.07-.18.19-.12.31,0,0-.28,0-.29.12-.3s0,.16-.05.24.22,0,.33.11c-.09.3-.11-.07-.16.3.07.07.13.18.2.09a.67.67,0,0,1-.07.31c-.08,0-.16-.44-.24-.1.1-.07,0,.44.15.34,0,.29-.07.31-.14.37a1.35,1.35,0,0,1,0-.45c-.09-.18-.12.14-.17.3-.07,0-.15.09-.22-.16.17.09.13-.39.25-.28.05-.23-.14-.13,0-.38s0,.39.06.2,0-.15,0-.39c0,0,.06,0,.09,0-.1-.25-.39.09-.56-.14,0,.37-.09.06-.1.37.11,0,.21,0,.32-.21,0,.85-.32.54-.44.77-.16-.34,0-.64-.1-1,0,.42-.14-.14-.22.22.07-.05.26.12.19.47-.12-.43-.12.21-.29-.1s0-.38-.06-.58l-.12.3a.42.42,0,0,1,.05.26c-.22.29-.43.14-.64.3.06.31.14.09.2.22-.13.19-.36.33-.4-.19.06.06.12,0,.18-.23s-.1-.09-.06-.32c-.14,0-.27.54-.36-.05,0,.25-.1.08-.15,0a.8.8,0,0,0,0,.31c-.16-.24-.45.18-.54-.32-.09,0-.19.11-.29.15a1.66,1.66,0,0,1,0-.32c-.08-.14-.06.23-.12.3a1,1,0,0,1,0-.63c-.1-.13-.23,0-.26-.42a2.42,2.42,0,0,1-.06.76c.14.21.06-.55.23-.23a.58.58,0,0,1-.1.5c-.17.09-.33-.55-.51-.39-.06-.36.08-.2.14-.36s-.15,0-.22.09a.78.78,0,0,0,0,.26c-.06.07-.08-.15-.09.12-.13-.28-.26.37-.38-.25,0,.29-.21.31-.22,0-.09.54-.3.49-.43.26-.05.08,0,.17-.05.25-.12-.23-.25-.05-.24-.48-.06.14-.11.28-.17.43-.15-.24.06-.42,0-.65-.1.25-.2.19-.29,0,0,.21-.12.41-.15.61-.06-.26.12-.49,0-.76,0,.62-.3.55-.44.26-.11.11-.1.5-.23.35s.1-.47,0-.39a1.08,1.08,0,0,1,.12-.55c0-.07,0,0,0,0l0-.13c-.07.16,0,.33-.1.49s-.09-.33-.21-.54c-.09.24-.16-.13-.25,0,.08.38.17.3.27.17a1.32,1.32,0,0,0,.1.46c-.1-.08-.09.21-.2-.09-.1.11,0,.26-.05.37-.09-.32-.3-.27-.47-.38,0,.16.13.22.18.15,0,.5-.2.41-.29.28-.07-.31.15,0,.09-.24s-.09.21-.2,0c.14-.59-.35.05-.49-.57-.05.25-.22.38-.34.65,0-.56-.35-.11-.41.07a.49.49,0,0,1,0-.26c0,.19-.13,0-.23.22-.06-.47-.15,0-.31.09,0-.15,0-.29-.06-.45-.29.3-.43,0-.72.15,0-.17,0-.31-.07-.33,0,.51-.15.19-.22-.15,0,.39-.11.65-.23.47s.14,0,.12-.3c0-.13-.08-.07-.11-.21,0,.16,0,.32-.07.31s.06-.2,0-.31-.18,0-.18.23,0-.4-.11-.34c0,.32-.08.41-.18.49,0-.39-.07,0-.15-.34,0,.27-.12.23-.19.1s.05-.07,0-.31c0,.39-.38-.1-.34.52-.08-.19-.17.37-.25.16s.08-.19.14-.49c-.08-.11-.16,0-.24-.1,0,.8-.35.38-.44.51a.79.79,0,0,1,.17-.42.33.33,0,0,1,0,.26c.1.15.07-.18.18-.23-.14-.1-.18,0-.3-.55-.09.13,0,.29,0,.44-.13-.49-.66-.06-.85-.25a.48.48,0,0,0-.12.43c-.12.27-.21-.3-.23.23-.06-.18,0-.34,0-.51s.08.11.11.2c.08-.24,0-.41.1-.49-.12,0-.13.16-.28.34a.82.82,0,0,0,0-.26c-.07.21.05.16,0,.45-.07.11-.13-.13-.21.16a1.84,1.84,0,0,0,1,.52c.09.15-.06.25,0,.39s.06-.14.11-.3c.09.27-.06.5-.14.74-.19,0-.4-.64-.65-.28-.07,0-.13-.26-.2-.21.06.29,0,.25-.09.11-.08.12,0,.25,0,.38-.16-.51-.21-.15-.36-.18s0-.26-.08-.39c0,.27-.07.45-.16.29s.12-.24,0-.38c0,.13-.06.06-.09,0a.87.87,0,0,1-.07.31,1.5,1.5,0,0,1-.44-.57c0,.53-.14-.15-.25.15,0-.24.09-.06.12-.3-.08,0-.16,0-.24-.1,0,0-.1.39-.14.24a.78.78,0,0,1-.12.56c.17,0,.23.36.38.11.07.3-.06.22,0,.45a1,1,0,0,0,.08-.56c0-.09.1,0,.16-.17,0,.42.14.23.22.15,0,.29-.1.23-.12.56.08.07.09,0,.14-.23,0,.1.08.36.21.41a1.27,1.27,0,0,1,.15-.49,2.12,2.12,0,0,0,.07.65c.07-.18.12,0,.18,0,0,.15,0,.3,0,.45.24-.09.48.06.71.23.14-.39.27.19.41-.08.22.7.58-.31.73.55.05-.23.09-.06.14-.24a1.16,1.16,0,0,0,.17.41c-.09.14-.17-.13-.21.29.05-.34,0-.17-.13-.27-.06.26,0,.2.09.26-.11.29-.21.11-.32.09s.11-.2.14-.11c0-.34-.27,0-.38-.12.05.25.1,0,.15.22-.2-.11-.28.19-.47.25-.07-.16.15-.28,0-.44l-.1.24c-.19-.29-.42-.1-.56.11.13-.34-.08-.26-.2-.34,0,.16-.07.3,0,.32-.16.46-.17-.28-.31.08a1.38,1.38,0,0,1,0-.57c-.06-.11-.16.31-.16.42s-.26-.45-.29,0a.37.37,0,0,1-.15-.34c-.1.3-.34.34-.54.06.12-.13.1-.08.21-.42-.08-.15-.15-.26-.22-.41-.07.06.06.46,0,.31,0,.33.1,0,.13,0,0,.42-.25.67-.36.21-.15-.05-.31.76-.45.32a2.44,2.44,0,0,1-.1.24c-.07-.14,0-.26,0-.38s-.18.37-.27.09.09-.16.12-.31c-.26.14-.5.37-.65-.15-.08,0-.15-.05-.23.23a.38.38,0,0,1,0,.31c-.09-.32-.33.07-.49-.32.06-.16.11-.3.16-.17,0-.22-.28-.26-.4-.31-.11.31.08,0,.11.34s-.15,0-.23.22a.58.58,0,0,1,0,.32c.06.18.08,0,.09.26a.17.17,0,0,0-.09.12,1,1,0,0,0-.28-.61c.07-.31.14.2.22-.1s-.1-.09-.15-.34c0,.26-.17.44-.25.41s0-.17,0-.25c-.05-.31-.11,0-.17-.28,0,.12.06.27,0,.39s-.31-.14-.47,0c0,.34.11,0,.17.15s0,.13,0,.2c-.11-.14-.14.1-.27.21,0,.36.11.26.16,0,.1.18-.11.37,0,.39C2.64,18.67,2.49,18.71,2.59,19Zm8.48,4.3c.08-.26.16,0,.24.09C11.23,23.61,11.15,23.49,11.07,23.33Zm6.81,3.23c-.08.27-.23,0-.12.43-.13.16-.26.05-.38-.12a2.39,2.39,0,0,0,.14-.49c0,.09.07.27.11.21s0-.18,0-.26C17.71,26.46,17.8,26.13,17.88,26.56ZM68.81,10.71c.08-.19.07-.45.16-.17S68.87,10.92,68.81,10.71Zm-.06-6.89c.14-.14.16-.21.28-.6,0,.28.1.13.16,0a3.44,3.44,0,0,1,.12.65,1.31,1.31,0,0,0,0-.76c.19.16.16.76.05,1.09-.15-.49-.32.36-.47.12s.09-.13,0-.37C68.88,4.05,68.75,4.06,68.75,3.82Zm-13.89,2c-.09.22-.17-.08-.25,0C54.69,5.64,54.78,5.69,54.86,5.85Zm-7.06.56c0-.23-.18-.18-.15-.47C47.71,6.24,47.88,6,47.8,6.41ZM42.48,5.8c.05.06.12-.16.17.15S42.44,6.06,42.48,5.8Zm-31.25-4c-.09,0-.19,0-.28-.23C11,1.55,11.23,1.43,11.23,1.75Zm1.84,4.39c0,.29-.41.16-.34-.23C12.84,6.24,13,5.78,13.07,6.14Zm-7.87-2a1.09,1.09,0,0,1,.08-.31c0,.14.07.08.11.2S5.26,4.4,5.2,4.17ZM15.49,15.33A.76.76,0,0,1,15,15.2C15.18,15,15.33,15.09,15.49,15.33Zm-4.32-.53c-.07-.05-.25,0-.24-.22C11,14.58,11.18,14.48,11.17,14.8ZM9,14.05c0,.09-.08.53-.14.24S8.93,13.89,9,14.05ZM3.37,18.12c0-.09,0,.1-.07.18-.06-.41-.14.2-.2-.22S3.38,17.9,3.37,18.12Zm3.13,2c-.06,0-.12.21-.18,0C6.42,19.8,6.49,20.12,6.5,20.15Zm3.05,2.46c0,.24-.15.22-.22,0C9.41,22.33,9.48,22.49,9.55,22.61Zm.65.15c-.08.15-.27,0-.26-.29C10,22.65,10.12,22.41,10.2,22.76ZM5.8,9c.14.06.3-.11.44.06C6.1,9.34,5.86,9.21,5.8,9Zm6.3,18.39c0,.29-.17.26-.25,0C11.94,27.06,12,27.17,12.1,27.35Zm-2.88-9c-.07,0-.15.18-.22,0S9.24,18,9.22,18.36ZM5.81,7.82c0-.2-.17.07-.13-.27C5.74,7.62,5.89,7.45,5.81,7.82ZM6,7.65c0,.37.07.09.16.21s0,.22,0,.32-.07-.28-.17,0c0-.07,0-.14-.07-.2A1.73,1.73,0,0,1,6,7.65Zm.42.88c-.08,0-.16.25-.23,0C6.24,8.2,6.31,8.3,6.39,8.53Zm2.75,6.76c0-.11.09-.16.14-.11-.11.19,0,.81-.19.61S9.22,15.5,9.14,15.29ZM7.08,8.44,7,8.68c0-.06,0-.13-.07-.2C7,8.23,7,8.4,7.08,8.44ZM5.78,4.37c0-.44-.09,0-.17-.15C5.6,3.81,5.94,4,5.78,4.37ZM9.64,15.23c.14.29.32-.3.39.31,0-.38.18-.35.25-.16-.21.06-.18.51-.39.77-.08-.53-.08.05-.13-.4-.11.08-.35.34-.38,0,0,0,.14,0,.09-.12-.07.07-.15,0-.22-.16s.12-.05.18.15C9.5,15.46,9.63,15.57,9.64,15.23Zm2.33,8c0,.32-.14.22-.21.17C11.77,23.1,11.9,23,12,23.19ZM9.16,14.27a2.76,2.76,0,0,1,.08.27c0,.15-.09.21-.13.1S9.06,14.38,9.16,14.27ZM6.56,5.05c-.08.28-.13-.31-.21,0-.06-.19,0-.45-.1-.46C6.41,4.2,6.42,5,6.56,5.05ZM7.82,8.86c-.07.19-.15.44-.21.16C7.68,9,7.75,8.61,7.82,8.86ZM7,6.32c-.07-.37.16-.79.26-.54s-.07.41-.12.43C7.1,5.88,7,6.08,7,6.32ZM11,16.43c0-.32-.09-.13-.14.11-.06,0-.08-.09-.09-.26-.16.29-.31-.19-.47.12-.07-.16,0-.56-.11-.2-.07-.2-.07-.71.06-.51a.34.34,0,0,0,0,.26c0-.72.29-.46.44-.64l.1.33c.09,0,.19-.38.28-.09s-.26.44-.37.33c0,.1,0,.11,0,.12s.15.31.22.29c.12-.35.24-.61.34-.27C11,16,11.08,16.28,11,16.43ZM8,8.69c0-.12-.06-.26,0-.38,0,.29.09-.15.13.14A6.21,6.21,0,0,1,8,9.07a1.59,1.59,0,0,0-.07-.2Zm6.37,19.42c0,.2-.13.44-.16.17C14.24,28.19,14.3,27.82,14.35,28.11Zm-1-4.34c-.06.42-.29-.17-.2-.1S13.28,23.51,13.35,23.77ZM7.77,6.3l-.09.25a.5.5,0,0,1,0-.26C7.68,6.38,7.69,6,7.77,6.3ZM8.6,7.82a.36.36,0,0,0,0,.32c0,.1-.08.2-.11.3a2,2,0,0,1-.2-.34C8.4,8.07,8.5,7.89,8.6,7.82ZM7.82,6.18a2.66,2.66,0,0,0,0-.57c0,.14.09-.08.13.15-.19.43.16.24.1.59-.08-.2-.3.19-.31-.3C7.79,6.09,7.8,6.14,7.82,6.18ZM9,8.76c0-.46-.14,0-.24-.22C8.81,8,9.05,8.28,9,8.76Zm.18.16c.08.07,0,.4.09.26s0-.3,0-.44A2.76,2.76,0,0,0,9.36,9a.42.42,0,0,0,0,.31c-.05.16-.11.31-.16.17a.31.31,0,0,0,0-.25c-.09.11,0,.25-.1.37C9,9.36,9.13,9.15,9.16,8.92Zm.6,1.74c-.1.25-.2.22-.29-.11C9.57,10.37,9.66,10.46,9.76,10.66ZM8.15,6.17c.12-.14.22.27.34.11-.1.26-.16.18-.3.15A.35.35,0,0,0,8.15,6.17Zm3.43,9.64-.1.24c-.05-.27-.11-.28-.18,0l-.06-.2C11.36,15.62,11.47,15.77,11.58,15.81ZM8.64,6.74c-.07-.15-.14,0-.2-.22S8.66,6.46,8.64,6.74ZM14.46,24.3c-.12.16-.24-.14-.36-.05C14.15,23.84,14.35,24.14,14.46,24.3ZM8.17,4.89a1.56,1.56,0,0,1,.08-.43.12.12,0,0,1,.18,0,3.57,3.57,0,0,1,0,.57c.11-.44.21-.28.32-.34.08.46.17.4.32.62-.07.33-.31,0-.45-.06a.59.59,0,0,1,0,.32c-.13,0-.17-.13-.11-.33-.1.06-.42.24-.5-.39C8.1,5.06,8.08,4.82,8.17,4.89ZM9.31,8.05c0,.31-.08.48-.21.29C9.25,8.37,9.16,8,9.31,8.05ZM8.47,5.7c.06.1.11,0,.16.21S8.4,6,8.47,5.7Zm3.42,10.16c0,.06.07.05.11,0l.11.33c.16-.28.19,0,.36-.2,0,.12,0,.25-.05.37-.08-.26-.18-.13-.27,0a1.11,1.11,0,0,1-.05.63.79.79,0,0,1-.2-.34c.07-.2.14,0,.21-.29S11.9,16.12,11.89,15.86Zm.06.32c-.08.19-.15.12-.22-.16C11.81,15.89,11.88,16.11,12,16.18ZM9.05,6.29c.1.14-.06.25,0,.39q-.11.21-.18,0C8.91,6.48,9,6.28,9.05,6.29Zm6.34,19.86c-.06.15-.12.3-.18.1S15.33,26.09,15.39,26.15ZM8.92,5.76c.05.11,0,.22.06.33s-.1.11-.15-.09Zm1.91,5a1.05,1.05,0,0,1,.06.33c-.09.06-.19.21-.29-.1C10.68,10.75,10.75,11.11,10.83,10.8ZM9.29,6.39c.12.26.24-.07.36.17-.12-.07-.25.38-.36.08C9.32,6.56,9.27,6.47,9.29,6.39Zm.52,1.47.09-.24a1.74,1.74,0,0,1,.06.45C9.91,7.82,9.85,8.11,9.81,7.86ZM9.19,5.67c0-.16-.14-.36,0-.51.11,0,0,.27.1.46l-.12.3c0-.15-.15-.1-.1-.33C9.09,5.53,9.14,5.69,9.19,5.67Zm3.52,10.62c-.09-.16-.09.25-.2,0C12.57,16.07,12.74,15.94,12.71,16.29Zm-2.3-8.16c-.09,0-.17.14-.25,0C10.25,7.87,10.33,8.06,10.41,8.13ZM16.35,26.6c-.05.09-.11.24-.16,0S16.29,26.31,16.35,26.6ZM11.06,9.5c-.08-.1-.17,0-.25-.23C10.89,9,11.07,9.29,11.06,9.5Zm2.14,6.86c.11,0,.21.09.32.17C13.42,16.78,13.15,16.83,13.2,16.36ZM10.09,4.2c-.09.22,0,.08,0,.26s-.1-.13-.15,0c.06.36.14.23.21.41s.1.55,0,.44c.05-.23-.08-.09-.1-.33-.1.37-.18-.09-.27.09-.07-.32-.11-.4-.22-.42s0,.22,0,.32c-.2-.37-.08-.62,0-1.14a.86.86,0,0,1,0,.32c0-.1.07.15.11.08A1,1,0,0,1,9.67,4c.09-.19.14,0,.12-.3.05,0,.1,0,.15.21s-.09.06-.07.19S10,4.12,10.09,4.2Zm.64,2.26c0-.23.08-.15.14-.24,0,.39.16.14.26.29-.11.37.1,0,.13.4-.1.13-.19-.17-.29-.1-.18.35-.15,1.08-.33.85C10.77,7.45,10.94,6.7,10.73,6.46Zm6.39,19.87c0,.15-.12.28,0,.44.12-.18.07-.38.12-.56,0,.14.07.08.11.21-.08.47-.17.56-.24,1a1.35,1.35,0,0,0-.35-.68C16.83,26.5,17,26.25,17.12,26.33Zm-3.38-9.9c0,.26-.11.32-.2.16A.4.4,0,0,1,13.74,16.43Zm-4.15-13c0,.12.05.27,0,.38S9.49,3.32,9.59,3.43Zm1.55,3.91c-.06.16-.13.32-.19.49,0-.09-.06,0-.09-.14C10.85,7.4,11,7.15,11.14,7.34Zm2.78,9.24c.05.16.11.1.06.33,0-.13-.09.08-.13-.15A1.34,1.34,0,0,1,13.92,16.58Zm-1.46-5.36c.12.31-.09.48-.16.3S12.41,11.45,12.46,11.22Zm-2.2-6.48c.05,0,.13.28.06.45A.81.81,0,0,1,10.26,4.74Zm3.8,11.48a.15.15,0,0,0,0,.13c0-.11.07-.11.11-.05s-.15.24-.23.09S14,16.15,14.06,16.22ZM14,15c-.07-.23-.15.21-.22,0S14,14.68,14,15ZM9.59.76c0,.27.09.13.07-.06a.86.86,0,0,1,0,.45c-.1-.08-.08.1-.22,0C9.48.92,9.53.77,9.59.76Zm9,26.16c-.06.22-.12,0-.18,0Q18.56,26.56,18.63,26.92ZM13.85,11.54c-.06.18-.11.1-.16-.09S13.8,11.35,13.85,11.54Zm1.9,5.8c.1.21,0,.55-.1.25S15.66,17.35,15.75,17.34Zm-1.53-5.43c.1-.25.32-.13.33.24-.09-.38-.19,0-.29,0C14.3,12,14.2,12.14,14.22,11.91Zm5.55,15.48c-.1.07-.2.15-.29-.1C19.57,27.14,19.75,27,19.77,27.39ZM11.56,2.11c0-.1-.2-.15-.17-.4C11.44,1.61,11.6,1.89,11.56,2.11Zm1.82,3.82c.07.33.15.2.22.41-.09.22-.16-.15-.25.29,0-.19-.09,0-.13-.28A1.42,1.42,0,0,0,13.38,5.93Zm3.1,9.28a.66.66,0,0,1,0,.58c-.07-.06-.09-.39-.2-.35C16.36,15.15,16.41,15.44,16.48,15.21ZM13.17,2.84c-.09.21-.17.39-.26.29C13,2.92,13.09,2.59,13.17,2.84ZM15,9c-.05.18-.11.1-.15-.09S14.94,8.77,15,9Zm-.63-2.51c-.08.18-.17.29-.25,0C14.2,6.3,14.28,6.42,14.36,6.45Zm.56,1.22c.12.27.24-.06.36,0-.08.45-.22.25-.38.27s0,.23-.07,0A1,1,0,0,1,14.92,7.67Zm1.85,4.85c-.12.25-.23.2-.34.14C16.55,12.39,16.66,12.46,16.77,12.52ZM13.69,2.34c-.06.15-.12.09-.18.1.05-.2,0-.42.06-.62C13.66,2,13.61,2.16,13.69,2.34Zm-.36.21c0-.33-.09-.19-.17-.41.15,0,.28-.72.36-.2C13.39,2,13.39,2.29,13.33,2.55Zm.37.37c0-.27-.2.06-.17-.28.08,0,.16-.08.24.22a.4.4,0,0,0,0,.32c-.08.16-.15.19-.23.1S13.74,3.17,13.7,2.92Zm1.51,3.9c-.06-.14-.12.09-.18-.15S15.24,6.63,15.21,6.82Zm-.27,0c.07-.14-.07-.3,0-.44C15.06,6.47,15,6.89,14.94,6.78Zm.49,1.28c.07-.22.12-.14.19-.23.05.28.11.22.17.28-.1.12,0,.13-.14.36,0-.25-.06-.35-.16-.08A1.28,1.28,0,0,1,15.43,8.06Zm3.42,9.78c-.06.27-.16.14-.16.42l0-.13s0,.06,0,0C18.65,17.83,18.76,17.65,18.85,17.84Zm2.76,9.42c.06.11.11-.05.11.21S21.54,27.45,21.61,27.26ZM13.91,2.63c-.07,0-.13-.06-.2-.22C13.77,2.08,13.93,2.52,13.91,2.63Zm4.49,13c-.09.14-.18.13-.27,0C18.22,15.42,18.31,15.44,18.4,15.61ZM14.78,3.19c0-.09,0,.09-.07.18-.1-.07-.1-.44-.23-.15s.13.17.06.45c-.09,0-.14-.13-.17-.41C14.5,2.92,14.74,2.79,14.78,3.19Zm3,10c.09.1.2-.26.29.1-.09.24-.17.12-.26.28A.56.56,0,0,1,17.77,13.23ZM16.1,7.32s.08.1.13.28S16,7.51,16.1,7.32Zm-1-4a1.11,1.11,0,0,0,0,.25.46.46,0,0,1-.13-.27C15,3.13,15.05,3.14,15.11,3.3Zm1.43,4.21c-.07,0-.14.41-.2.17S16.48,7.43,16.54,7.51Zm.63,1.17c-.09.3-.11-.07-.16.3A1,1,0,0,1,17,8.65C17,8.42,17.1,8.43,17.17,8.68Zm-.49-.19c.09.28.18-.23.27.16C16.87,9,16.68,8.81,16.68,8.49ZM15.41,4.11c-.07.32-.12,0-.18-.15S15.35,4.05,15.41,4.11Zm1.44,3.7c-.06.25-.12.06-.18.1C16.67,7.62,16.79,7.58,16.85,7.81Zm.28-.47a1.1,1.1,0,0,0-.19.61c-.08,0-.05-.22-.09-.39s.13-.14.19-.23-.09,0-.07-.2.2.13.29.36a1.46,1.46,0,0,1-.07.3C17.1,7.63,17.16,7.49,17.13,7.34Zm.32.74c-.15.23-.3.18-.45.07C17,7.55,17.3,7.86,17.45,8.08ZM15.38,2.13c-.12.1-.23-.07-.34-.11C15.16,1.9,15.27,1.84,15.38,2.13Zm.64,2c0,.17,0,.49-.12.3S16,4,16,4.13Zm-.14-1.49c.13.17-.09.29,0,.45s.13-.25.18,0c-.12.28-.24.14-.36.08C15.71,2.92,15.83,3.05,15.88,2.64Zm1.74,6.23c.15-.37.3.24.23.61A1.14,1.14,0,0,0,17.62,8.87Zm0-.82c0,.1-.08.2-.11.3a.41.41,0,0,1,0-.26C17.54,8.29,17.61,7.69,17.65,8.05Zm-.84-3.18a.69.69,0,0,1,0,.45c0-.08-.06,0-.09-.14Zm-.36-1.51a1.38,1.38,0,0,1,0,.7C16.32,3.81,16.37,3.38,16.45,3.36Zm1.1,4c.07-.28.18.09.18.28S17.65,7.54,17.55,7.33Zm-.71-4c0,.12.07.19.11.2-.12.14-.14-.12-.21.3,0-.41-.11-.09-.2-.35C16.64,3.27,16.73,3.59,16.84,3.35Zm.61.72c-.13-.46-.4.09-.46-.38C17.12,3.73,17.48,3.39,17.45,4.07Zm-.13,0c-.05.12,0,.26-.05.38,0-.07-.08,0-.11-.21S17.22,3.92,17.32,4.05ZM18.1,4c0,.25.11,0,.16.21s-.13.2-.18.1S18.08,4.07,18.1,4Zm1.95,4.47c-.08,0-.32.28-.25-.22C19.87,8.5,20.06,8.17,20.05,8.44Zm2.17,6.93c.1.18,0,.56-.1.37S22.13,15.48,22.22,15.37ZM20,8.12c-.05.18-.1,0-.15-.09s.06-.53.12-.43A4.53,4.53,0,0,0,20,8.12Zm.08-.57c.11.2,0,.64-.07.44A.75.75,0,0,1,20.06,7.55Zm-.87-3.11c.07.37.14-.09.2.22-.11.2-.22.15-.34.14C19.1,4.68,19.15,4.56,19.19,4.44Zm.88,2.61L20,7.29l-.07-.2C20,6.83,20,7,20.07,7.05Zm.38,1.32c.12-.31.1.23.22.29C20.59,8.75,20.45,8.62,20.45,8.37Zm.29.36c0,.09.05.18.08.27s-.21.28-.18,0C20.7,9.13,20.73,8.79,20.74,8.73Zm2.19,6.61c-.05,0-.1-.13-.15-.21a1,1,0,0,1,.94.26c-.1.45-.18-.25-.27.08.05.16.11.1.06.33-.1,0-.05-.28-.15-.46-.1.3-.19-.2-.29.15.05.06.12,0,.17.27s-.09,0-.14.24c-.08-.1,0-.49-.08-.39s.06.3,0,.44-.09,0-.13-.15A2.68,2.68,0,0,0,22.93,15.34ZM20.47,7.48c.09.37.2.08.31.3-.07.25,0,.47-.13.56-.1-.19,0-.35,0-.52-.07.07-.14,0-.21.16A.62.62,0,0,1,20.47,7.48ZM19.71,4.7c-.08.2-.16.46-.23.22C19.55,4.83,19.64,4.49,19.71,4.7Zm1.59,5.38-.1.24-.06-.2C21.19,10,21.25,9.89,21.3,10.08ZM22,8.65c0-.05.08,0,.11.08-.16.31-.24-.51-.32-.62l-.12.3c-.16-.4-.34-.36-.51-.26a1.54,1.54,0,0,1-.14.62c0-.5-.09.16-.18-.16a3.67,3.67,0,0,0,.35-.9c.14.58.4,0,.58,0,0,.12-.14.23-.09.37.08-.17.16-.09.25-.28s-.09,0-.06-.2c.08.22.28-.17.28.23-.1-.19-.28.27-.19.61,0-.46.31-.17.32,0C22.18,8.41,22,8.19,22,8.65Zm.1-.63c0-.14.1-.3.17-.29-.05.19.1.06.13.27S22.19,8.08,22.09,8ZM19.7,4.83c.12-.07.23,0,.34.11C19.93,5.05,19.73,5.19,19.7,4.83Zm.88,2.35c0-.08-.09.13-.13-.15S20.63,7,20.58,7.18Zm.43.25c-.06.17-.23.24-.2-.09C20.87,7.45,20.94,7.31,21,7.43ZM20.24,4.9c0,.19-.12.32-.18.1S20.18,4.84,20.24,4.9ZM24,15.61c0,.28-.13,0-.12.43C23.73,15.85,23.9,15.41,24,15.61Zm.25,0c0,.28-.12.18-.19.48l-.06-.2C24,15.67,24.13,15.38,24.21,15.58Zm-2.6-8c-.06,0-.23.25-.2-.1C21.47,7.56,21.54,7.38,21.61,7.58Zm-.39-2c-.06.17-.11.23-.16,0S21.17,5.35,21.22,5.55ZM22.51,8.4c.06,0,.12,0,.18,0-.07.21-.08.45-.18.35S22.45,8.52,22.51,8.4ZM23,9c0,.12.08.19.11.2l0,.13a.13.13,0,0,1,0,.12c-.12-.3,0,.27-.09.37-.05-.1-.11.05-.16-.21A3.57,3.57,0,0,0,23,9Zm-.24-1.18a1,1,0,0,1,.06.32c-.11-.13-.22.23-.31-.17C22.59,7.83,22.65,8.12,22.73,7.86Zm6.36,19.92a.6.6,0,0,1-.05.51c0-.1-.06-.12-.09-.14S29,27.77,29.09,27.78ZM25.22,15.53c.08-.13.15-.06.22.16s-.09.7-.21.41C25.3,15.85,25.35,15.65,25.22,15.53ZM23.49,9.3c-.09,0-.11-.23-.09-.39-.16.28-.43.11-.51-.39.19.31.41.17.54-.06a1.33,1.33,0,0,0,0,.52c0-.27,0-.29.12-.3a.86.86,0,0,1,0,.32c0-.34,0-.11.14-.11-.06-.27.08-.31.14-.11s-.1.14-.17.42C23.56,9.11,23.55,8.92,23.49,9.3ZM21.88,3.6c.11.28.21-.32.27-.35.09.34,0,.28-.1.63,0-.26-.09,0-.13.11A.54.54,0,0,1,21.88,3.6Zm1.58,4.55c.1.13.19.14.29.23-.07.12-.14.18-.21.16S23.36,8.47,23.46,8.15Zm-.79-3.42c0,.17-.11.48-.17.29S22.62,4.59,22.67,4.73Zm-.12-1.29c-.05.23-.1.06-.16.29s.11.1.06.33c-.06-.09-.25,0-.24-.35C22.31,3.53,22.41,3.2,22.55,3.44ZM24,8.86c0,.31.19-.15.15.21C24.08,9.13,23.91,9.24,24,8.86Zm-.43-2.42c-.09.08-.18,0-.27.09C23.3,6.36,23.56,6.13,23.56,6.44ZM22.77,4a1,1,0,0,0-.05.24c0-.13-.22-.08-.2-.34C22.6,4.07,22.69,3.69,22.77,4Zm2.16,4.88c-.14.17-.37.14-.54.18a.7.7,0,0,1,0,.45c0-.54-.09-.14-.22-.41a1,1,0,0,0,.13-.69C24.45,9.11,24.72,8.56,24.93,8.86Zm5.62,19.06c-.08-.11-.16.27-.23,0C30.39,27.8,30.56,27.62,30.55,27.92ZM26.81,15.68c0,.21.08.22.13,0,.08.4-.15.83-.28.6A1,1,0,0,0,26.81,15.68ZM23.21,4.16c-.13.14-.26,0-.4,0a1.34,1.34,0,0,0,.07-.18C23,4.11,23.11,4,23.21,4.16ZM25.27,11c-.09,0-.3.06-.31-.3C25.05,10.88,25.26,10.56,25.27,11Zm-.2-1.3c.12.29.24.07.35.3-.13.28-.37.09-.42-.12C25,10,25.07,9.8,25.07,9.71ZM23.4,4.06c0,.1,0,.22,0,.32-.05-.14-.12.09-.17-.15S23.35,3.93,23.4,4.06Zm.42.25c-.08.25-.16.21-.23.1C23.67,4.35,23.75,4.15,23.82,4.31Zm1.29,4.58c.13-.28.15,0,.24.35a.82.82,0,0,0-.07.31l-.05-.14C25.28,9.11,25.22,9,25.11,8.89Zm-1.5-5.5c.12.09.24-.17.35.18-.11,0-.08.46-.18.48-.12-.15,0-.58-.08-.52s0,.3-.08.44A1.62,1.62,0,0,1,23.61,3.39Zm.52,1a.79.79,0,0,1-.1.37c-.05-.31-.11,0-.17-.28l.05-.12C24,4.58,24,4.28,24.13,4.35Zm1.74,4.77c-.11,0-.41.54-.36,0C25.62,9.36,25.75,8.8,25.87,9.12Zm.65,1.11c-.06.12-.12.19-.18.1S26.46,10,26.52,10.23Zm0-.7c-.13-.16-.48.28-.46-.38C26.23,9.49,26.49,9.15,26.55,9.53Zm.76,1.7c-.06.22-.12.16-.18.1S27.25,11.08,27.31,11.23Zm-.14-1c.12.56.25.13.38.37-.09.39-.33,0-.48,0C27.14,10.5,27.09,10.37,27.17,10.25Zm0-.24c.13.36.15-.47.29-.16-.12.21-.06.15-.12.43C27.33,10.29,27.15,10.35,27.22,10Zm.76.23c-.07.25-.14.25-.21.16S27.91,9.9,28,10.24Zm-1.42-5c-.08.33-.15.13-.23.1C26.41,5.3,26.49,5.1,26.56,5.26Zm0-.26c-.05.19-.21.11-.18-.15C26.4,5,26.47,4.66,26.52,5Zm.32.75c0,.12.06.26,0,.39s-.11.23-.16,0S26.73,5.64,26.84,5.75Zm0-1.34a1.72,1.72,0,0,0-.07.56c.05-.12.1,0,.15.22-.11.15-.23.52-.34.27C26.75,5.17,26.64,4.09,26.84,4.41Zm1.95,7c-.05.28-.2.16-.16-.08C28.68,11.45,28.74,11.16,28.79,11.43Zm-1.63-6c-.05.18-.11.24-.15,0S27.11,5.22,27.16,5.41ZM28.54,10c.11-.05.31-.12.34.24.08-.21.23.16.25-.29a2.76,2.76,0,0,0,.08.27c-.06.23-.11.06-.12.3-.12-.18-.19-.19-.22.22-.1-.14,0-.25,0-.39l-.12.31C28.61,10.28,28.72,10.1,28.54,10Zm.8.49c.12.39-.16.63-.23.35a3.16,3.16,0,0,0,0-.32C29.29,10.5,29.24,11,29.34,10.49Zm.26-.41a1,1,0,0,1-.08.69c0-.1-.08.1-.11-.08C29.49,10.28,29.53,10.54,29.6,10.08Zm.53,1.54c-.07.11-.14.25-.2,0S30.07,11.44,30.13,11.62Zm6.21,16c.06-.12.23-.23.2.09-.06-.16-.14.07-.14.24A1,1,0,0,1,36.34,27.57Zm-5-16.8c.12.39-.23.82-.21.29C31.24,11.23,31.24,10.8,31.36,10.77ZM36.7,27.5c.12-.11.36-.31.4.18-.16-.21-.07.31-.14.49a2.5,2.5,0,0,1-.06-.71C36.83,27.76,36.7,27.86,36.7,27.5Zm.69,0c0-.07-.12.11-.18,0C37.21,27.1,37.48,27.23,37.39,27.53Zm-6-21.92c-.08.14-.16.13-.23,0C31.23,5.3,31.3,5.46,31.38,5.61Zm.41-.33c.06-.48.1,0,.17,0a1.67,1.67,0,0,1,.11-.75c.1.29-.14.53,0,.82a1.16,1.16,0,0,1,.07-.31.47.47,0,0,1,.13.4c-.12-.23-.61.88-.49-.07-.09,0-.3.25-.31-.17C31.48,5,31.74,5,31.79,5.28Zm.14-.61c-.12.21-.23.16-.34.14C31.71,4.64,31.82,4.44,31.93,4.67Zm7,22c.09.18.32-.36.33.11C39.12,26.77,38.91,27.2,38.89,26.71ZM32.34,4.47a.75.75,0,0,1,.06.32c-.11-.21-.16-.15-.21.17C32.13,4.59,32.25,4.57,32.34,4.47Zm.41.76c0,.25.11-.13.15.21C32.84,5.57,32.68,5.48,32.75,5.23ZM32.6,3.8a.59.59,0,0,1,0,.39c0-.07-.05-.2-.08-.14s0,.12-.07,0ZM40,26.74a1.73,1.73,0,0,1-.07.31c0-.26-.11-.11-.16-.21S39.94,26.52,40,26.74ZM33.56,5.21c0,.12.1.15.11.21,0-.11,0-.22,0-.32s.15.32,0,.58c-.12-.07-.24,0-.35-.17C33.49,5.38,33.52,5.21,33.56,5.21Zm6.84,22.1c0-.09,0-.18-.08-.27C40.39,26.75,40.51,27.13,40.4,27.31ZM34.14,5.54c.07-.09.13-.13.2.09s-.14.15-.21,0A.15.15,0,0,0,34.14,5.54Zm7.27,20.89c.05.1.1,0,.15.21s0,.45-.07.31,0-.33-.07-.21a1.27,1.27,0,0,1,0,.39c-.05-.13-.1.08-.14-.15C41.4,26.81,41.29,26.6,41.41,26.43ZM34.82,5c.09.14.31-.08.33.24-.06-.1-.13,0-.2,0,0,.14.07.08.11.21a.61.61,0,0,0-.17.42A6.82,6.82,0,0,1,34.82,5Zm7,21.49a2.14,2.14,0,0,1-.07.43C41.73,26.74,41.75,26.28,41.85,26.49ZM35.28,5.38a1.74,1.74,0,0,1,.06.84c0-.1-.06-.12-.09-.14C35.3,5.85,35.17,5.6,35.28,5.38Zm6.77,21.45c-.06.18-.11.24-.16,0S42,26.64,42.05,26.83ZM35.58,5.23c-.12.06-.24.14-.36-.05.13,0,.15-.16.25-.15a.26.26,0,0,0,0,.19C35.52,5.15,35.55,5.1,35.58,5.23Zm.17.28a1.15,1.15,0,0,0,0,.32c-.13.26-.26.19-.38,0,.07-.16,0-.33.1-.49C35.57,5.47,35.66,5.37,35.75,5.51Zm6.87,21a1,1,0,0,0-.13.56c-.06-.17-.13,0-.2-.09.14-.4-.06-.26,0-.51C42.4,26.68,42.51,26.34,42.62,26.46ZM35.92,4.83c0,.12,0,.22.06.33C36,5.1,36,5,36,5a.45.45,0,0,1,0,.44c0-.06-.06-.19-.09-.13a.35.35,0,0,1,0,.24l-.06-.2A1,1,0,0,0,35.92,4.83Zm.3.94c.08-.15.15,0,.22,0C36.36,6.1,36.22,6.15,36.22,5.77Zm.5-.44c.07,0,.14-.19.2,0s-.12.06-.18.1a.47.47,0,0,1,0,.2A.82.82,0,0,1,36.72,5.33Zm.51.51c-.08-.14-.15.09-.23-.16S37.24,5.54,37.23,5.84Zm0,.12s0,0,.07,0a.66.66,0,0,1,0,.39c0-.08-.08,0-.11-.08S37.16,6.05,37.18,6Zm.51.14c-.12.29-.24.24-.36.08C37.46,5.91,37.57,6.21,37.69,6.1Zm.08-.69c-.05.44-.19.36-.29.28C37.58,5.41,37.68,5.22,37.77,5.41Zm.55.9a1,1,0,0,0,.06.33c-.1.22-.2.33-.29,0C38.2,6.65,38.31,6.48,38.32,6.31Zm1.33-.77c0,.17.07,0,.09.27s-.19,0-.15-.22C39.63,5.7,39.61,5.46,39.65,5.54Zm9.24.38c.06.11.12,0,.17.28s-.18.31-.27.34,0-.13-.07-.2C48.85,6.22,48.83,6.27,48.89,5.92Zm.73.42c-.09-.32-.23.2-.19-.35C49.48,6.15,49.65,6,49.62,6.34ZM58.15,25.8c-.22.43.22.15,0,.76-.07-.28-.05-.3-.15-.33S58.05,25.6,58.15,25.8Zm-.24.73c0-.07-.06-.2-.09-.14s0,.59-.09.5,0-.29,0-.45c.12,0,.11-.58.24-.6A1.35,1.35,0,0,1,57.91,26.53ZM51.82,6c.07-.18.14-.08.21,0,0,.22-.1.14-.17.42C51.79,6.26,51.87,6.14,51.82,6Zm6.66,19.77a3.6,3.6,0,0,1,0,.65c-.06-.14-.13.24-.18,0S58.42,26.13,58.48,25.78ZM52.29,6.26c-.11-.13-.08.29-.18.1S52.33,5.84,52.29,6.26Zm6.26,19.6c.05-.15.09-.14.13,0s0,.26-.09.24A.49.49,0,0,0,58.55,25.86ZM58.88,5.2c-.08-.22-.17.18-.25,0C58.71,4.89,58.89,4.87,58.88,5.2Zm.36-.08c-.11,0-.22.1-.33-.11C59,4.77,59.14,4.77,59.24,5.12Zm.16-.3-.09.24-.06-.2C59.3,4.61,59.35,4.78,59.4,4.82Zm7.09,10.79a1,1,0,0,1-.06.63c-.11.16-.27.12-.43.39,0-.09-.07-.18,0-.26A2.29,2.29,0,0,1,66.49,15.61Zm.6,0a.87.87,0,0,1,0,.39c-.15.05-.3.25-.45.19C66.82,16,67,15.87,67.09,15.63ZM63.5,4c0,.24-.19.49-.28.34C63.32,4,63.41,4.05,63.5,4Zm4.27,11.1a2.22,2.22,0,0,0-.46.95l-.09-.26C67.36,15.65,67.52,14.82,67.77,15.09ZM65.1,2.17c0-.11.08-.18.12-.18.11.31-.09.59.07.9-.08,0-.17.33-.25,0C65.19,3,65.24,2.52,65.1,2.17Zm4.33,13.27c.06.18,0,.34,0,.51,0-.1-.11.05-.16-.21S69.37,15.67,69.43,15.44Zm-.83-5.27c.06.08.11-.36.14-.49.09.14,0,.25,0,.38,0,0,0,0,.06.08s-.2,0-.16.42C68.63,10.56,68.59,10.33,68.6,10.17ZM67.78,4c0-.19-.1.18-.15-.08S67.82,3.76,67.78,4Zm.63.09c-.12.19-.23.36-.34.14C68.18,4.22,68.3,3.86,68.41,4.09Zm.45.19c-.07.12-.13.24-.18,0S68.8,4.12,68.86,4.28Zm0-1.28c.06.21.08.21.09,0,.1.22-.1.46-.14.24A.74.74,0,0,0,68.83,3Zm4,2.78c0,.23-.12.37-.19.35S72.74,5.58,72.8,5.78Z"/><path class="cls-3" d="M20.16,3.17c0,.12.06.07,0,.19.25-.58.49-.07.74-.34a.56.56,0,0,0-.62-.21.61.61,0,0,0,0,.26C20.28,3.08,20.22,3.23,20.16,3.17Z"/><path class="cls-3" d="M4.71,24.17c.07.17.15-.11.22-.1S4.78,23.91,4.71,24.17Z"/><path class="cls-3" d="M8.76,23.2a.82.82,0,0,0-.07.31c0,.07.07-.1.11-.18a1.17,1.17,0,0,0,0,.26C8.9,23.36,8.82,23.33,8.76,23.2Z"/><path class="cls-3" d="M5.54,13.39c-.09.06.14.06.13.4a2.17,2.17,0,0,0,0-.44C5.6,13.14,5.64,13.6,5.54,13.39Z"/><path class="cls-3" d="M7,17.41a.46.46,0,0,0,0,.38c0-.17,0-.23.11-.18C7.11,17.45,7,17.5,7,17.41Z"/><path class="cls-3" d="M6.71,15.84a.88.88,0,0,0,0-.32,1,1,0,0,0-.09.37c0,.12.09-.15.13,0C6.75,15.83,6.72,15.81,6.71,15.84Z"/><path class="cls-3" d="M9.8,25.25c.08.3.06-.15.09-.24s0,.2.09.27c.13-.36.24-.26.36-.08,0-.12,0-.25.05-.38-.1.19-.31.23-.47,0C9.87,25.11,9.81,25,9.8,25.25Z"/><path class="cls-3" d="M6.51,14.29c.28-.06.46.06.72-.29,0-.12-.09-.07-.06-.2s-.06.09-.16.17c0-.32-.34-.11-.24-.35S6.56,14,6.51,14.29Z"/><path class="cls-3" d="M11,27.51a.27.27,0,0,0,.47.13C11.26,27.62,11.11,27.54,11,27.51Z"/><path class="cls-3" d="M3.67,3.25c0,.24-.07.1-.14.37.14.14.14-.08.21-.17S3.7,3.39,3.67,3.25Z"/><path class="cls-3" d="M7.09,14.37c.09-.06.17.11.25-.16C7.27,13.91,7.18,14.31,7.09,14.37Z"/><path class="cls-3" d="M10.72,24.1c-.07.1,0,.22,0,.32s.1,0,.16,0C10.89,24.19,10.74,24.45,10.72,24.1Z"/><path class="cls-3" d="M5.92,6.94a.41.41,0,0,0,0-.19c0-.18.09,0,.14-.24s-.18-.24-.27.09C5.85,6.75,5.89,6.59,5.92,6.94Z"/><path class="cls-3" d="M8.36,11c.12-.16.1.15.22.16.06-.29.05-.29.1-.49C8.58,10.79,8.39,10.74,8.36,11Z"/><path class="cls-3" d="M13.23,25.41c0-.24.12-.1.1-.37s-.11.18-.16-.09c0,.27-.11.38,0,.77.06-.12.12-.2.18-.11C13.39,25.45,13.25,25.5,13.23,25.41Z"/><path class="cls-3" d="M13.63,25.72c.1.22.21-.25.31.17.07-.23-.06-.18,0-.32C13.82,25.63,13.73,25.58,13.63,25.72Z"/><path class="cls-3" d="M14.1,25.46c0-.11,0-.21-.06-.32-.13.15-.25.08-.38-.12,0,.54.24.14.33.62.08-.32.15-.1.22.16.13-.08.14-.24.25-.41,0-.07-.08-.08-.13-.15-.06.1,0,.21,0,.31s0,0-.06.06c0-.13,0-.25,0-.39C14.14,25.23,14.11,25.3,14.1,25.46Z"/><path class="cls-3" d="M8.25.32c0,.08,0,.1,0,.07a.32.32,0,0,1,0,.25c0,.08.08-.09.12-.17S8.31.38,8.25.32Z"/><path class="cls-3" d="M10.39,2.33c0,.16.29.53.4.19,0-.06-.17.15-.13-.15S10.48,2.68,10.39,2.33Z"/><path class="cls-3" d="M11.52,3.44c.09.13.13.61.26.3,0-.51-.24-.12-.21-.67C11.47,3.18,11.62,3.33,11.52,3.44Z"/><path class="cls-3" d="M15.77,13.52c-.06.25.08.11.1.21.05-.09,0-.27.07-.18a.15.15,0,0,0,0-.13s0-.09,0-.13-.11.45-.07.18C15.79,13.39,15.81,13.63,15.77,13.52Z"/><path class="cls-3" d="M14,4.36c0,.24.19.2.26.3a1.47,1.47,0,0,0,.21.79,10.4,10.4,0,0,0-.09-1.1c0,.64-.14-.11-.29-.1C14.12,4.41,14.1,4.47,14,4.36Z"/><path class="cls-3" d="M14.76,5.67c0,.27.25.18.35.31.07-.22-.16-.13-.08-.4C15,5.66,14.85,5.89,14.76,5.67Z"/><path class="cls-3" d="M14.55,4.63c-.09.15,0,.22,0,.13a.59.59,0,0,1,0,.32c0,.07.07,0,.11.08,0-.11-.06-.54.07-.18a.66.66,0,0,0-.06-.33C14.67,4.8,14.61,4.79,14.55,4.63Z"/><path class="cls-3" d="M15.69,5.1c0-.06-.08,0-.12-.08-.08.14,0,.3-.07.44C15.57,5.45,15.58,5.29,15.69,5.1Z"/><path class="cls-3" d="M16.72,2.44c0,.23,0,.07-.1.24.09.16-.05.29.06.46A1.34,1.34,0,0,0,16.75,3c0-.18-.07-.37.05-.25C16.86,2.54,16.73,2.67,16.72,2.44Z"/><path class="cls-3" d="M18.3,7.12c-.06-.09,0,.17,0,.07a1,1,0,0,1-.05.37c.07.09.17-.35.1-.5C18.34,7.14,18.32,7.16,18.3,7.12Z"/><path class="cls-3" d="M20.76,15.36c0,.06,0,0,0-.06.07-.2.13.34.2,0s-.14-.1-.22-.16C20.74,15.19,20.79,15.28,20.76,15.36Z"/><path class="cls-3" d="M19.12,2.33c-.09-.28-.18-.28-.27-.17.1.37.21.28.31.55.05-.44.2-.17.32-.33C19.45,2.4,19.15,2,19.12,2.33Z"/><path class="cls-3" d="M19.4,2.81c.12.07.25-.24.36,0,0-.71.35.21.52-.12a1.15,1.15,0,0,1,0-.32c-.1.05-.2.35-.29-.1-.14.22-.28,0-.42,0a.66.66,0,0,0,.06.33C19.54,2.76,19.47,2.52,19.4,2.81Z"/><path class="cls-3" d="M19.18,1.31c0,.68.53.69.64.41C19.62,1.65,19.31,1.91,19.18,1.31Z"/><path class="cls-3" d="M20.85,2.25a.61.61,0,0,0,.26.16C21.12,2.15,20.92,2.19,20.85,2.25Z"/><path class="cls-3" d="M22.05,2.67a.63.63,0,0,0,.69.28c-.09-.37-.19,0-.22-.41,0,.46-.18-.1-.27.22-.08-.19.07-.44-.06-.46C22.23,2.64,22.16,2.71,22.05,2.67Z"/><path class="cls-3" d="M22,2c0,.35.19.09.26.17,0-.23-.08-.09-.1-.33C22.1,2.11,22.12,2.18,22,2Z"/><path class="cls-3" d="M22.79,3c.15.22.31.29.46.25C23.19,2.42,22.94,2.85,22.79,3Z"/><path class="cls-3" d="M25.19,3.8c.07.07.14,0,.25,0l-.06-.2C25.31,3.87,25.26,3.58,25.19,3.8Z"/><path class="cls-3" d="M26.49,3c0,.12-.1.25-.14.37s.12-.4.24-.16C26.64,3.07,26.51,3.12,26.49,3Z"/><path class="cls-3" d="M27.78,3.46c0,.6.14-.31.24.35a1,1,0,0,1,.05-.25C28,3.26,27.88,3.51,27.78,3.46Z"/><path class="cls-3" d="M29.91,3.56c-.06-.09,0,.16,0,.06a1.35,1.35,0,0,1,0,.45c.07,0,.15-.26.22,0,.1-.62.22-.2.34-.27s-.05-.27.06-.38c-.13.16-.26-.13-.39.14,0-.11,0-.21-.06-.33C30.07,3.47,30,3.57,29.91,3.56Z"/><path class="cls-3" d="M33.55,4.25c.12.3.25-.32.36,0A.66.66,0,0,0,33.85,4C33.75,4.35,33.66,3.88,33.55,4.25Z"/><path class="cls-3" d="M35.91,4.13c0,.24.28.3.29.11S36,4.31,35.91,4.13Z"/><path class="cls-3" d="M38.13,5.71c0-.16,0-.33,0-.5s-.12,0-.18.1.09,0,.13,0S38,5.45,38.13,5.71Z"/><path class="cls-3" d="M46.77,5.06c0,.34.16.1.22.28,0,0,0-.08,0-.13a.93.93,0,0,0,0-.13C46.89,5.26,46.83,5,46.77,5.06Z"/><path class="cls-3" d="M54.4,28.41c.13.06.26,0,.38.11.06-.37.22-.17.34-.14s0-.13,0-.19,0-.08,0-.13C54.9,28.3,54.65,28.14,54.4,28.41Z"/><path class="cls-3" d="M59.86,3c.12-.16,0-.35.1-.5s-.05,0-.07-.07,0,.08,0,.12S59.74,2.87,59.86,3Z"/><path class="cls-3" d="M60.86,3.49c.12.38,0-.49.12-.3,0-.22-.1-.24-.14,0A.33.33,0,0,1,60.86,3.49Z"/></g></g></svg>