<svg xmlns="http://www.w3.org/2000/svg" viewBox="0 0 88.13 20.62"><defs><style>.cls-1{fill:#fff;}.cls-2{fill:none;}.cls-3{fill:#ffc600;fill-rule:evenodd;}</style></defs><g id="Layer_2" data-name="Layer 2"><g id="Layer_1-2" data-name="Layer 1"><line class="cls-1" y1="10.31" x2="88.13" y2="10.31"/><rect class="cls-2" width="88.13" height="20.62"/><path class="cls-3" d="M1.3,11.53c.08.16.16.17.24.06C1.46,11.59,1.39,11.39,1.3,11.53Z"/><path class="cls-3" d="M1.53,11.13c.08-.05.15.19.24.06C1.69,11.13,1.62,10.92,1.53,11.13Z"/><path class="cls-3" d="M2.14,11.94c.09.1.09,0,.22-.07,0-.11-.09-.09-.13-.14S2.2,11.87,2.14,11.94Z"/><path class="cls-3" d="M4.47,15.77l.11.18c0-.15.1,0,.16-.16S4.57,15.62,4.47,15.77Z"/><path class="cls-3" d="M2,11.2c0,.13.13.28.18.14s-.06-.05-.12-.22C2,11.19,2,11.25,2,11.2Z"/><path class="cls-3" d="M4.84,15.88c.11,0,.1.16.15.27a.55.55,0,0,0,0-.43A.91.91,0,0,1,4.84,15.88Z"/><path class="cls-3" d="M3.54,12.43c0,.15.15.22.21,0S3.6,12.59,3.54,12.43Z"/><path class="cls-3" d="M5.84,16.3s.12,0,.08.05.11-.12.16-.16a.53.53,0,0,0,.23.32c0-.34.19-.3.34-.4-.08,0-.17,0-.24-.15,0,.24,0,.14-.17.25a.39.39,0,0,0,0-.18c-.08.1-.15.09-.22,0A.57.57,0,0,0,5.84,16.3Z"/><path class="cls-3" d="M3.88,12.58l.1.18c0-.06,0-.18.08-.12C4.11,12.52,3.93,12.4,3.88,12.58Z"/><path class="cls-3" d="M4.23,11.42c.08.06.16,0,.25-.11C4.39,11.27,4.24,11.21,4.23,11.42Z"/><path class="cls-3" d="M8,17.41c.08.13.21.1.22-.07C8.19,17.35,8.12,17.31,8,17.41Z"/><path class="cls-3" d="M5,11.57c.09,0,.17.25.26,0C5.21,11.53,5.12,11.46,5,11.57Z"/><path class="cls-3" d="M7.73,14.54c.11.08.1-.11.25-.2a.18.18,0,0,1-.11-.09C7.83,14.53,7.7,14.29,7.73,14.54Z"/><path class="cls-3" d="M6,11c0-.13-.15-.15-.2-.35C5.66,10.87,5.87,11,6,11Z"/><path class="cls-3" d="M6.87,11.41c.09,0,.17.07.27-.06-.11-.08-.21-.08-.32-.2C6.73,11.23,7,11.33,6.87,11.41Z"/><path class="cls-3" d="M9.75,16.39c0,.26.16.06.21.1C10,16.28,9.8,16.43,9.75,16.39Z"/><path class="cls-3" d="M10,15.52c-.05-.17-.12.08-.18-.14a.42.42,0,0,0,0,.33C9.85,15.51,10,15.73,10,15.52Z"/><path class="cls-3" d="M11.43,18.09c.09.11.19.2.29.07C11.62,18.12,11.53,18,11.43,18.09Z"/><path class="cls-3" d="M6.28,8.94c0,.16.1.06.15.19.1-.11,0-.23,0-.35Z"/><path class="cls-3" d="M7,10.06c.07.19.14.14.21.19C7.21,10.12,7,9.87,7,10.06Z"/><path class="cls-3" d="M6.83,9.12s0,0,0,0c.21.23.43,0,.64.22.12-.13.05-.28.12-.42-.12-.13-.1.14-.19.12s0-.22-.13-.23c0,.23-.16.16-.25.28C7,8.93,7,9,6.89,8.86,6.77,8.94,7,9,6.83,9.12Z"/><path class="cls-3" d="M11.23,16c-.06,0,.1-.14.13-.11.06-.22-.1,0-.13-.14-.11.09,0,.2-.08.29a.71.71,0,0,0,.2.19A.15.15,0,0,0,11.23,16Z"/><path class="cls-3" d="M5.09,5.16c.09.1.17.3.26.1C5.27,5.21,5.18,5.06,5.09,5.16Z"/><path class="cls-3" d="M5.07,4.86c0,.14.14.16.19.06S5.13,4.93,5.07,4.86Z"/><path class="cls-3" d="M5.43,5.23c.08-.1.05-.2.09-.29s-.09,0-.13-.06A.48.48,0,0,0,5.43,5.23Z"/><path class="cls-3" d="M11.55,15.9c0,.26.21.09.28.23C11.91,15.85,11.64,15.88,11.55,15.9Z"/><path class="cls-3" d="M4.54,2.4c.07.05.2-.06.35-.27C4.77,2.21,4.66,2.17,4.54,2.4Z"/><path class="cls-3" d="M12.55,16.23c0-.14-.13-.33-.21-.19S12.46,16.42,12.55,16.23Z"/><path class="cls-3" d="M7,6.58c.08.17.38.06.24-.19C7.17,6.61,7.1,6.49,7,6.58Z"/><path class="cls-3" d="M8.79,9.44c0,.23.26.25.37,0a.13.13,0,0,1,0-.17C9.05,9.09,8.91,9.57,8.79,9.44Z"/><path class="cls-3" d="M5.93,3.86c.1.22.2.22.31.11C6.14,4,6,3.71,5.93,3.86Z"/><path class="cls-3" d="M13.05,16.39s.08,0,0,.09c.17-.18.33.1.51-.09C13.36,16.4,13.25,15.9,13.05,16.39Z"/><path class="cls-3" d="M8.18,6.84c.05.19.12-.06.19-.11a.2.2,0,0,1-.11-.1A.34.34,0,0,1,8.18,6.84Z"/><path class="cls-3" d="M13.66,16.4c-.07.15.08.05.1.18,0-.27.09,0,.19-.2s-.13.17-.18-.06C13.73,16.38,13.69,16.44,13.66,16.4Z"/><path class="cls-3" d="M14,16.51c.16.08.19.41.33.24-.16-.16.06-.28-.09-.44C14.21,16.61,14.06,16.36,14,16.51Z"/><path class="cls-3" d="M8.31,5c.13,0,.3-.06.2-.29C8.4,4.87,8.36,4.83,8.31,5Z"/><path class="cls-3" d="M14.88,16.58c.1.2.21,0,.31.11s0,.19-.08.29c.18.13.18-.3.43-.22,0-.19-.06-.11-.15-.27-.12.15,0,.05.07.22C15.26,16.71,15.08,16.43,14.88,16.58Z"/><path class="cls-3" d="M12.35,10.52c.11.13.25,0,.3-.19C12.53,10.3,12.4,10.29,12.35,10.52Z"/><path class="cls-3" d="M10.72,7.38c.09,0,0,.06.1.17,0-.09,0-.19,0-.29S10.76,7.32,10.72,7.38Z"/><path class="cls-3" d="M13.14,8.08c.12,0,.23.08.35-.11C13.38,8,13.17,7.86,13.14,8.08Z"/><path class="cls-3" d="M11.62,3c.06.11.12.07.18.14s-.14-.18,0-.26S11.67,2.93,11.62,3Z"/><path class="cls-3" d="M10.31.59c.1.12.21,0,.32-.14C10.53.48,10.33.41,10.31.59Z"/><path class="cls-3" d="M15.86,9.56a1.62,1.62,0,0,1,.1.18c0-.07,0-.13.06-.08C16.07,9.53,15.91,9.41,15.86,9.56Z"/><path class="cls-3" d="M12.29,2.1c.11.15.23,0,.33.24.05-.09,0-.2,0-.3s.18.09.19-.11-.13.12-.19-.06C12.56,2.17,12.41,1.92,12.29,2.1Z"/><path class="cls-3" d="M16.4,8.62s.08.1.13.06,0-.3-.07-.31S16.52,8.55,16.4,8.62Z"/><path class="cls-3" d="M13.83,2.05c0,.22.35.3.37,0C14.08,2.11,14,2.22,13.83,2.05Z"/><path class="cls-3" d="M13.64.55c.08.14.17.11.26-.06C13.81.52,13.73.44,13.64.55Z"/><path class="cls-3" d="M15.14,2.83c.08,0,.17.17.26,0C15.31,2.79,15.23,2.73,15.14,2.83Z"/><path class="cls-3" d="M16.08,3.25c.06.08.13,0,.19,0s0-.14-.08-.21Z"/><path class="cls-3" d="M16.48,3.15c.07.16.15,0,.21.1C16.73,3.16,16.55,3,16.48,3.15Z"/><path class="cls-3" d="M20.18,9.3a.05.05,0,0,0,0-.08s.07,0,.11.09,0-.3.14-.2c.09-.15-.15-.06-.05-.18C20.29,9,20,9.09,20.18,9.3Z"/><path class="cls-3" d="M20.48,9c0,.09.07.05.11,0a.21.21,0,0,1,.05.18s.09-.07.13-.12l-.12-.22C20.59,9,20.54,8.91,20.48,9Z"/><path class="cls-3" d="M21.07,9.88c.07.06.14,0,.21-.07S21.14,9.75,21.07,9.88Z"/><path class="cls-3" d="M17.93,3.82c.11.06.11-.25.06-.34S18,3.69,17.93,3.82Z"/><path class="cls-3" d="M17.73,3.29c.14.08.33.22.4-.1C18,3.27,17.87,3,17.73,3.29Z"/><path class="cls-3" d="M18.11,3.79c.09,0,.18,0,.27-.07-.09-.05-.18,0-.26-.1S18.15,3.73,18.11,3.79Z"/><path class="cls-3" d="M18.54,4.54c.24-.06.29.08.15-.37C18.57,4.29,18.58,4.42,18.54,4.54Z"/><path class="cls-3" d="M21.87,9.86c.08.13.17.13.26,0C22,9.84,22,9.72,21.87,9.86Z"/><path class="cls-3" d="M23.16,10.34c.25-.22.46,0,.62-.34a1.06,1.06,0,0,0-.59.13c0-.06,0-.11.06-.17C23.07,9.8,23.06,10.14,23.16,10.34Z"/><path class="cls-3" d="M20.15,4.24c.14.13.06-.32.14-.2C20.3,3.77,20.11,4.14,20.15,4.24Z"/><path class="cls-3" d="M20.29,4.13c.07.06.15,0,.24-.11C20.45,4,20.37,4,20.29,4.13Z"/><path class="cls-3" d="M24.39,10.09a1.62,1.62,0,0,0,.1.18c.05-.07,0-.14.08-.2S24.45,10,24.39,10.09Z"/><path class="cls-3" d="M22,5.32c0-.09,0-.2.09-.29C22,5,21.84,5.28,22,5.32Z"/><path class="cls-3" d="M25.81,1.79c.12.27.23,0,.25-.19C26,1.59,25.89,1.71,25.81,1.79Z"/><path class="cls-3" d="M28.49,2.13c.11.17.1-.21.24,0s-.11.11-.14.21.2,0,.24-.2c-.07,0-.09-.06-.1-.18s.23.13.35-.1c-.06,0-.12,0-.18-.14-.16.2-.29.11-.37,0C28.52,1.82,28.64,2,28.49,2.13Z"/><path class="cls-3" d="M29.5,2.12a1.62,1.62,0,0,0,.1.18c.1-.15.11-.07.17-.24-.1-.16-.25.2-.16-.1C29.54,1.86,29.51,2.08,29.5,2.12Z"/><path class="cls-3" d="M29.89,2.36c0-.11.1-.21.17-.32L30,1.9c0,.06-.05.07-.08,0,0,.16,0,.11-.08.21S29.84,2.29,29.89,2.36Z"/><path class="cls-3" d="M30.31,2.57c.09-.16.18,0,.27-.15-.11-.11-.23.08-.34-.16C30.18,2.45,30.28,2.38,30.31,2.57Z"/><path class="cls-3" d="M30.75,2.18a.22.22,0,0,0,0,.29.16.16,0,0,0,.11-.08A.44.44,0,0,0,30.75,2.18Z"/><path class="cls-3" d="M30.82,2.31c.05.07,0,.14.08.22s0-.18.08-.12,0-.15-.07-.22Z"/><path class="cls-3" d="M31,2c0,.09.18.37.26.19C31.17,2.09,31.08,1.94,31,2Z"/><path class="cls-3" d="M32.52,2.53c.06-.16.13-.11.19-.2s-.12,0-.18-.14C32.47,2.3,32.41,2.4,32.52,2.53Z"/><path class="cls-3" d="M33.34,2.46c.07.11.14.12.22,0a1.62,1.62,0,0,1-.1-.18Z"/><path class="cls-3" d="M33.85,2.54a1.92,1.92,0,0,0,.31.11c.09-.09-.16-.21-.07-.3C34,2.3,34,2.42,34,2.47S33.91,2.37,33.85,2.54Z"/><path class="cls-3" d="M34.21,2.1c.06.08.12-.1.18,0,0-.16-.08-.19-.18-.23S34.28,2,34.21,2.1Z"/><path class="cls-3" d="M34.8,2.79c.16-.23.32,0,.48,0,.11-.25-.19-.3-.25-.52,0,.23,0,.26-.17.32-.11-.19-.09-.32-.23-.31C34.6,2.55,34.66,2.6,34.8,2.79Z"/><path class="cls-3" d="M34.84,2.24c.11.07.23,0,.35.07C35.18,2.19,35,2,34.84,2.24Z"/><path class="cls-3" d="M35.41,2.07c0,.08.08,0,.12.14.08-.12-.06-.26,0-.38s-.1,0-.16.07C35.52,2,35.52,1.94,35.41,2.07Z"/><path class="cls-3" d="M36.18,2.09c0,.11.08.09.13.13s0-.19,0-.3C36.27,2.08,36.25,2,36.18,2.09Z"/><path class="cls-3" d="M45.33,3.65c.13.14.27,0,.41-.1-.12-.08-.23-.21-.34-.24A2.05,2.05,0,0,0,45.33,3.65Z"/><path class="cls-3" d="M47.93,3c.06.18.13,0,.19.06C48.16,3,48,2.86,47.93,3Z"/><path class="cls-3" d="M50.63,3.42c0,.17.23.19.32,0C50.85,3.37,50.74,3.43,50.63,3.42Z"/><path class="cls-3" d="M51.93,3.56c.13-.11.37-.1.41-.26A.35.35,0,0,0,51.93,3.56Z"/><path class="cls-3" d="M54.55,3.34c.09.11.19,0,.29.07A.15.15,0,0,0,54.55,3.34Z"/><path class="cls-3" d="M57.29,4.06c0-.1.08-.19.09-.29s-.11,0-.16.08S57.24,4,57.29,4.06Z"/><path class="cls-3" d="M66.21,18.69c.21.12.44-.25.64-.12C66.76,18.24,66.41,18.56,66.21,18.69Z"/><path class="cls-3" d="M66.89,18.44c.08.14.17.11.26-.06A.23.23,0,0,0,66.89,18.44Z"/><path class="cls-3" d="M62.29,3.47a.26.26,0,0,0,0-.21.71.71,0,0,0,.42,0,.47.47,0,0,0-.53,0C62.26,3.27,62.23,3.37,62.29,3.47Z"/><path class="cls-3" d="M63.12,4.13c0-.13.12-.24,0-.38S63,4,63.12,4.13Z"/><path class="cls-3" d="M62.9,3.31c0,.07,0,.14.08.22a.46.46,0,0,0,.11-.25C63,3.2,63,3.45,62.9,3.31Z"/><path class="cls-3" d="M69.25,2.7c.1.08.15-.11.2-.2s-.11,0-.17.07S69.27,2.65,69.25,2.7Z"/><path class="cls-3" d="M69.67,2.18c.07.08.17-.18.16-.25S69.67,2,69.67,2.18Z"/><path class="cls-3" d="M70.14,2.47c.22.12.46,0,.69,0,0-.21.1-.16.2-.29C70.7,2.15,70.49,2.4,70.14,2.47Z"/><path class="cls-3" d="M70.94,2.36c.09.12.2-.06.29-.11C71.14,2.16,71,2.17,70.94,2.36Z"/><path class="cls-3" d="M71.34,2.26c.11,0,.21.11.32,0S71.45,2.05,71.34,2.26Z"/><path class="cls-3" d="M71.62,2.58c.14,0,.19.11.26.19.08-.17.14-.18.07-.42C71.92,2.64,71.73,2.44,71.62,2.58Z"/><path class="cls-3" d="M71.86.22c0,.19.15.11.21,0S72,.15,71.94.1,71.91.28,71.86.22Z"/><path class="cls-3" d="M73.05,1.89s0,.05,0,.08l0,.09c.08-.2.35,0,.52-.26a.13.13,0,0,1,0-.13c-.12.11-.25.08-.38.23-.12-.22.07-.15.07-.34s-.13.26-.19.12C73.05,1.72,73.2,2,73.05,1.89Z"/><path class="cls-3" d="M72.34.17A.53.53,0,0,0,72.85,0,.94.94,0,0,0,72.34.17Z"/><path class="cls-3" d="M73.75,1.77c.09,0,.08.28.2.27,0-.17,0-.27.12-.33C74,1.61,73.86,1.7,73.75,1.77Z"/><path class="cls-3" d="M74,1.49c.12.1.24,0,.37-.14C74.14,1.27,74.11,1.41,74,1.49Z"/><path class="cls-3" d="M75.14,1.54c0-.07-.06-.15,0-.22-.18,0-.37.39-.54.13C74.58,1.92,75,1.37,75.14,1.54Z"/><path class="cls-3" d="M74.54,1.28c.18.14.37-.12.56-.25C74.92.87,74.73,1.17,74.54,1.28Z"/><path class="cls-3" d="M75,.63c0,.23.2,0,.27-.06C75.16.45,75.07.72,75,.63Z"/><path class="cls-3" d="M75.08.9c.15.06.3.21.46-.1C75.38,1,75.24.7,75.08.9Z"/><path class="cls-3" d="M75.84,1.25C75.69,1,75.88.87,76,1s-.07.21-.14.28.15-.08.21.1a2,2,0,0,1,.59-.93c0-.3-.37.22-.39.4,0-.25-.2-.07-.12-.31-.21.25-.38.57-.67,1C75.58,1.61,75.71,1.46,75.84,1.25Z"/><path class="cls-3" d="M76.57.84c0,.07,0,.15.08.22s.14-.19.21-.15,0-.15,0-.21-.11,0-.16-.1C76.66.71,76.71,1,76.57.84Z"/><path class="cls-3" d="M76.88,1.21c.08,0,.27-.12.14-.29C76.92,1,77,1.11,76.88,1.21Z"/><path class="cls-3" d="M77.05.71c0,.2.12,0,.16.18,0-.16,0-.17.11-.24C77.24.51,77.14.73,77.05.71Z"/><path class="cls-3" d="M.15,10.85c0-.1.09-.19,0-.3-.05.08-.09,0-.14.12.21,0-.11.75.13.22.23,0,.46,0,.68.22.11-.18.14-.11.19.06,0-.06,0-.12,0-.17s0,.16.13.22c0-.2.08-.17.22-.49-.09-.08-.19.1-.29.19C1,10.67.9,10.83.82,10.86c-.16-.4-.43-.2-.52-.38-.12.17.13.32.18.31C.36,11,.27,10.64.15,10.85Z"/><path class="cls-3" d="M2.42,12.6a.4.4,0,0,0,.42,0c-.09-.09,0-.17-.1-.26C2.68,12.72,2.54,12.47,2.42,12.6Z"/><path class="cls-3" d="M3.08,12.69c.08,0,.11-.09,0-.21s.07,0,.1.09.08-.19.15-.28.31.1.48,0c.18.44.38.08.58.21,0,.34-.31.1-.34.4.3-.11.47.2.81-.11.07.2.12.36.26.11.06.19,0,.4-.1.46,0,.12.09,0,.14,0-.05-.14.12-.27,0-.42.18.23.37-.07.56,0-.25.16-.41.33-.47.35.08.31.4-.1.57-.17,0,.22.19.17.29.15s0-.12,0-.17.06,0,.08,0,0,.14,0,.22c.22,0,.45-.14.67-.16,0,0,0,.08,0,.12-.24.08-.32.22-.55.3.18.21.38.05.56.17.06-.15-.08-.05-.1-.17s.09-.08.13-.12c.12.13,0,.34.15.35s0-.14.09-.21-.06,0-.08,0,0-.44-.1-.18c-.15-.24,0-.33.14-.28-.14.12.15.16,0,.34.07.08.15-.21.22-.15s-.12.26-.2.28.06.23,0,.34c.1.11.2-.08.29.06s-.11.13-.17.33.2-.07.29.15c0-.15-.12-.08-.15-.27.08,0,.16,0,.24.06-.12-.18,0-.27,0-.47,0,0,0,0,.08,0s-.07.16,0,.26c.13-.27.74,0,.68.3.08-.14.17-.06.17-.24.14.14,0,.26.12.39-.13-.05-.27.11-.4,0,.08.19.39.23.56.17s-.05.16,0,.25c.12-.12.24-.26.4,0,0-.21.13-.18.07-.42.07.19.18-.08.31.11-.07-.31.22-.11.23-.32.19.14-.12.25,0,.38.09-.16.17-.17.24-.11a1.53,1.53,0,0,1,0,.3c-.28.09-.54-.09-.75.11.06.17.13-.08.18.14.36-.45.68.32,1,0,.33.45,1,0,1.1.51a2,2,0,0,1,.32.11c.06-.32.24-.08.38-.15,0,.08,0,.14,0,.22,0-.22.2-.22.18,0,.3-.23.58.16.88,0-.08-.13.07-.2.11-.25,0,.1-.11.19-.09.29.25.23.5,0,.75,0,0,.32.28.36.34.16,0,.16.11.06.16.18.14-.46.67.24,1-.14.23.49.68-.25.85.24-.08-.05-.16,0-.24,0,.05.24.33-.07.53,0s.38.33.4.08.1.14.15.18c.19-.16.37,0,.56-.17.22.18.69.16,1,.21C28.06,18.21,37,18,46,17.72c.08.1,0,.2,0,.29-.67-.31-1.36.2-2-.07,0,.17-.09.15-.19.2s0,0,.08-.12-.22.2-.32,0c-.08.11,0,.23-.06.34-.28-.43-.74-.31-1.12-.09-.3-.08-.59-.21-.9,0a.11.11,0,0,1,0-.12c-.47.23-1.13-.1-1.44.22-.07-.11,0-.15-.1-.17s0,.11,0,.17c-.6-.3-1.08.23-1.7-.13-.06.28-.36,0-.51,0s-.42.27-.53,0a.41.41,0,0,1-.64,0c-.12.07.06.17-.06.25s-.16-.15-.1-.18c-.15.21-.28,0-.43.13,0-.06,0-.11,0-.16-.2.21-.38,0-.57.16,0-.32,0,0-.15-.18,0,.11-.07.21-.14.2a.44.44,0,0,0-.07-.21c-.14.31-.39-.13-.65.2a.26.26,0,0,1,0-.21c-.31.08-1,0-1.12.16s-.31-.24-.48.05c-.14-.21-.41-.33-.48-.12-1-.19-1.91,0-2.94-.19-.06.06,0,.11-.06.17-.08-.13-.11-.08-.23-.23-.56.25-1.32-.28-2,.1,0-.07,0-.14-.07-.22a1.25,1.25,0,0,1-.74,0c0,.12.06.49-.18.58-.07-.17,0-.27-.15-.35s.15-.29.19-.11c.1-.2-.17-.31-.16-.1-.32-.34-.67.11-1-.25-.08.29-.31.19-.45-.08-.06.06,0,.12,0,.17-.29-.16-.6-.06-.89-.23,0,.06,0,.14,0,.21-.43-.17-1,.09-1.34-.32,0,0,0,.08,0,.13-.48-.11-1,0-1.43-.28-.34.17-.9-.05-1.33-.11-.1.1,0,.2-.08.29s-.08,0-.11,0c.11-.46-.32-.24-.47-.38-.05.23.12.05.16.18s-.13.12-.17.16c-.16-.56-.53-.24-.78-.49-.11.09,0,.2-.09.29s-.07-.06-.11,0,.05-.14.09-.21-.16-.12-.24,0,.08.18,0,.26.11-.06.16.1-.18-.08-.27.14c-.08-.25-.18-.14-.26-.19,0-.21.17.06.24-.1-.16-.3.08-.11.14-.21-.25-.32-.23,0-.47-.2,0,.08.07.17,0,.26s-.05,0-.08,0,0,.15.05.17c-.14.23-.27.13-.41.35-.08-.09-.12-.1-.1-.26-.11,0-.24.34-.35.18s.09-.16.12-.24-.17.09-.14.2-.16-.18-.24-.06c0-.09.07-.17-.05-.26-.13.32-.53.37-.53,0-.12,0-.23-.14-.35.11-.13-.36-.36,0-.42-.29-.15.5-.48-.31-.72.07-.21-.13-.44,0-.66-.18s.14,0,0-.17c-.37.37-.7-.2-1.06,0,0,.09.08,0,.12.14s0,.11,0,.17c-.16-.05-.31-.27-.47-.29s0,.09.07.13-.11,0-.16.16c0-.11,0-.16-.1-.18-.15.47-.42-.19-.64.12a.24.24,0,0,1,0-.34c-.07-.16-.14,0-.21-.1,0,.07,0,.15.07.22s-.14.12-.22.15a.24.24,0,0,1,.06-.25c-.19.15-.37,0-.55,0,0-.09.06-.16-.05-.26-.12.44-.67.09-.86.28-.05-.22-.27-.18-.1-.35-.11-.05-.12.06-.13.2s-.13-.41-.29-.23c0,.15.11,0,.16.09a.11.11,0,0,0,0,.13c-.27,0-.53-.3-.8,0a.67.67,0,0,0-.1-.43c-.08.12,0,.26.07.39-.15.33-.27-.23-.42,0-.16-.17.07-.31,0-.47-.1.15,0,.31-.09.46s-.1-.17-.16-.1,0-.13.09-.2-.24,0-.19.2c-.18-.3-.19,0-.31-.37-.18.16-.2.09-.37,0,0,.11.06.24-.07.34l.13.22c.1,0,0-.22.16,0,.06-.05,0-.11,0-.17.17,0,.68,0,.58.39,0,.1.11-.13.16-.16a.28.28,0,0,1-.09.38c.05.05.33.05.22-.16.11-.05.22.14.35-.1,0,.1-.12.19-.09.29s.37-.13.28.24c.07.1.1-.13.06-.17a.32.32,0,0,1,.29.15c0-.07,0-.14,0-.21s.13,0,.19,0a.76.76,0,0,1,0,.21.71.71,0,0,1,.69,0c.06.13-.08,0-.11.16s.16-.05.23.15c-.11.09-.21.09-.31-.11-.09.35-.37-.08-.54.13.35.13.67.06,1,.16.07-.15-.08-.06-.1-.18.18-.23.17.38.34.15-.05,0-.1-.05-.15-.09.08-.22.14.06.22-.16.06.08,0,.15,0,.21s.09,0,.13.06c.06-.29.51-.09.72,0,0,.21-.12-.1-.16.07a2,2,0,0,1,1.09.13c0,.07,0,.14-.09.2.11.22.2-.06.19-.19.16,0,0,.25.15.35.15-.09-.1-.21,0-.3.23,0,.45-.21.67.09.08-.29.18-.14.32-.23.1.09,0,.17.1.27.17-.17.34-.11.51-.09s-.14.09-.19.11c.11.18.31.07.45-.09.1.1,0,.19.08.3-.08.14-.19,0-.2.2a1.13,1.13,0,0,0,.86-.27c.15.13-.1.24,0,.38a1,1,0,0,1,.84.23c.15-.26.24,0,.32,0s0-.17.06-.25c.2.29.69-.13.71.27.33,0,.79.26,1,0,.16.26.33,0,.49.34.13-.23.23,0,.36-.27.09.09,0,.17.1.26a4.8,4.8,0,0,1,1.85.31c0-.1.09-.2,0-.21a2.51,2.51,0,0,0,1.54.21c.12-.1.24.22.36.19s0-.11,0-.17a.46.46,0,0,0,.58.05l.15.27a2.67,2.67,0,0,1,1.62.16s0-.08,0-.12c.93.25,1.88.12,2.81.3.15-.26.79,0,1.2.05.22,0,.39-.14.55.09l.11-.16c.1.32.35-.1.53.21.45-.28,1.09.13,1.62-.09l.11.18c.69-.26,1.36.14,2-.14.29.28.61-.12.9.15.18-.23.35.08.53-.12a2.52,2.52,0,0,0,1.49,0c1.1.14,2.21-.14,3.3,0l.11-.16s0,.07,0,.12c.58-.12,1-.08,1.6-.21l.1.18c.11,0,.05-.31.22-.16s0,0-.09.12.19,0,.19-.11c4.33.1,8.52-.67,12.83-.92l.08-.12c.58.14,1.18-.28,1.76,0,.1-.05.2-.33.21-.07a.33.33,0,0,1,.48-.05.91.91,0,0,0,.11-.16c.21,0,.41.09.62-.08,1,.22,2-.33,2.95.1l.11-.16a.31.31,0,0,0,.53,0c.05.07,0,.14.08.22.07-.32.16-.12.24,0,.26-.26.57-.19.91-.18A.26.26,0,0,1,63,19c.08.05.09-.3.24-.11,0,0,0-.08,0-.12s.15.08.24-.11c0,.06,0,.11,0,.17a.64.64,0,0,1,.44-.23c.07.22-.09.12-.17.25a9.14,9.14,0,0,1,1-.44c0,.08.09.15.13.22s.07-.1,0-.17c.15-.21.28-.15.49-.3,0,.18.22.12.1.26.09.07.09-.25.26,0,.13-.17-.06-.14-.1-.18.19-.21.37,0,.57-.25,0,.06,0,.11-.06.17s.11-.09.16.09c0-.23.09-.09.19-.28.46.33,1-.55,1.39-.06.09-.38.37-.31.54-.38,0,.27-.23.06-.33.23,0,.08.09,0,.13.13-.15.11-.31.36-.46.43,0-.44-.4,0-.48.05a.85.85,0,0,0,1.1-.3c0,.08,0,.14-.09.21.17-.05.51-.05.52-.43.1-.08.06.17.13.23.3-.27.5-.27.84-.58a1.46,1.46,0,0,0,1.23-.41.84.84,0,0,0,.79-.41c.51.18,1.41-.88,2.08-.26-.16-.54.4-.3.37-.78.14,0,.3-.45.43-.14a1.25,1.25,0,0,1,1.68-.08.63.63,0,0,0,.12-.41c.09,0,.17,0,.26.19.08-.2.16-.1.24-.11,0-.23.11-.2.17-.41s-.11.06-.16,0a1,1,0,0,1,1.36.15c0-.31.2-.38.38-.31a2.7,2.7,0,0,1,1.2-1.18c0,.09.1.18.16.27,0-.28.23-.21.35-.36a.33.33,0,0,1,0,.17,1.77,1.77,0,0,0,1-.55,1.88,1.88,0,0,0,1.27-.71c.28,0,.79-.45,1-.65a4.8,4.8,0,0,0,1-1c-.11,0-.11-.15-.16-.27s.15,0,.22-.15c-.13-.09-.19.07-.26-.11-.14.29-.36-.13-.41.18-.06.09-.11-.17-.17-.22a1.55,1.55,0,0,1-.51.08,3.63,3.63,0,0,0,.44-.56,4.77,4.77,0,0,0-2.23.72c-.07,0-.14,0-.21-.1a.57.57,0,0,0,0,.22c-.08,0-.16.06-.24.1-.11-.39-.43.24-.58.51-.07-.15,0-.28.12-.41-.07,0-.18-.08-.18-.23s.16,0,.25-.28c-.06-.13-.13.27-.19,0-.1.08,0,.17-.11.25s-.07,0-.11,0,.12-.28.12-.42.06,0,.08,0c-.06.25.17.06.27,0s0,.14.07.21c.24-.12.29-.56.5-.64,0,.16-.18.3-.25.45.09,0,.3-.08.25-.28.25.16.52-.2.78-.4-.16-.14-.33.19-.49.3.1-.41.42-.53.6-.3.21-.22.42-.41.61-.24.65-.56,1.28-.38,1.92-.83-.14-.21-.28-.07-.42-.37-.15.07-.3.06-.44-.17-.06.06,0,.11-.06.17-.11-.29-.23,0-.34-.16s0-.19.09-.29c-.14-.17-.29,0-.43,0s.06-.19,0-.3-.32.19-.56.26c-.07-.24.21-.41.31-.53s-.09-.06-.13-.14,0,.09,0,.13-.17-.08-.22.15c0-.07,0-.14-.07-.22a.51.51,0,0,1-.53,0A.32.32,0,0,0,82,7a.28.28,0,0,1-.17.15,3,3,0,0,1-.09-.51,1,1,0,0,0,.61-.72,1.39,1.39,0,0,1,1,0c-.07-.34.17-.22.3-.19,0,.18-.14,0-.19.11.14.19.29-.17.43-.22.1.12-.06.21.08.22,0-.29.4-.29.59-.21.16-.26.35-.14.57-.25,0-.29-.2-.07-.27-.11.19-.16.64-.47,1-.18.22-.35,1,0,1.06-.72.19.1.27-.27.43-.14,0,.15-.11.1-.09.29a1.76,1.76,0,0,0,.89-1.29c-.1-.13-.28-.27-.23-.48-.22-.21-.58-.15-.64-.69-.11.23-.3.13-.33.4,0,0,.07,0,.11-.08,0,.17,0,.11-.09.21-.07-.17-.14-.22-.21-.19a.22.22,0,0,1,0-.29c-.07,0-.13,0-.14.11-.16-.31-.54,0-.8.11-.29-.4-.61.14-.92.44l0-.09c.13-.45.43-.46.58-.76,0-.13-.1,0-.15-.18-.46.46-.74.28-1.19.58a.69.69,0,0,0,0-.13.86.86,0,0,0,.49-.47c-.06-.13-.14,0-.21-.1,0,.18,0,.22-.13.12a1,1,0,0,1,0,.34.32.32,0,0,0-.44.39c-.07.13,0-.27-.13-.14,0-.09.11-.08.06-.25s-.21.29-.17.41-.06-.22-.13-.3c-.14.11,0,.25-.14.37s-.09-.14,0-.18c-.11-.08-.09.19-.11.25A.41.41,0,0,1,83,2.27c.06-.15.12-.1.19-.2-.16-.15-.23.15-.22.33a.51.51,0,0,0-.49.38c-.14-.12,0-.22,0-.34.11-.06.22-.09.33-.14a.45.45,0,0,1,0-.51c-.06-.09-.13,0-.13.11,0-.2-.13,0-.16-.26-.15.22-.28.21-.48.22,0-.13.14-.22.19,0a.1.1,0,0,0,0-.09.22.22,0,0,0,0-.08c-.1-.16-.21,0-.32.06,0-.17,0-.34,0-.51-.06.18-.07.09-.17.24-.1-.11-.07-.2-.13-.31-.06.07,0,.14-.08.21-.07-.09,0-.17-.1-.26a.73.73,0,0,1-.48,0C80.83.94,81,1,81,.85,81,.73,80.88,1,80.8.79c0,.07-.06.13,0,.21-.38-.18-.79.21-1.17.08,0,0,0,.11.05.17s-.13.2-.2.2c-.09-.68-.52.16-.74,0,.08-.61.36-.43.58-.68C79.17.66,79,1,79,.65l-.17.24a.51.51,0,0,1-.07-.22c.07,0,.15-.18.21-.07,0-.19.07-.1.09-.29s-.26.42-.37.06c-.13.23-.26.46-.37.69-.1-.12,0-.23,0-.34s-.17-.06-.26-.1A.38.38,0,0,1,78,1c0,.05.11-.09.16.1a.16.16,0,0,1-.27,0l-.25.36c0-.25.06-.2-.12-.22s.06-.23,0-.35c0,.41-.19.28-.36.61a1.75,1.75,0,0,1-.47-.2,1.58,1.58,0,0,1-.48.68c-.11-.12.1-.22.07-.33-.25,0-.5.59-.62.88.25.11.34-.45.5-.55a.2.2,0,0,1,0,.21c.07.08.18-.18.11-.25.22.35.67-.65,1-.18a.7.7,0,0,1-.87.45c-.17.58-.55.52-.89.57A2.29,2.29,0,0,0,75.58,2c-.08.17-.14.08-.22.23-.23-.46-.33.24-.55-.17a1.69,1.69,0,0,1-.41.27c.07.07,0,.14,0,.21s-.14,0-.22.16c-.12-.17,0-.26.12-.25,0-.19-.33,0-.33.23-.11,0-.22.14-.32-.11-.15,0-.31.4-.46.26s.07-.48.16-.71c-.19,0-.28.37-.54.3-.09-.17,0-.21-.16-.18s.17.06.08.22c.08,0,.15.05.24,0,0,.22,0,.2.15.18s0,.11-.06.17-.13-.24-.2-.19-.07.14,0,.21-.17,0-.26,0,0-.16.06-.16,0,.07.07.13a.55.55,0,0,0,0-.38c-.38.65-.73.62-1.1.93,0-.06-.07-.12,0-.17a.79.79,0,0,1-.5.38c0-.22.27-.32.26-.44.07.19.14.09,0,0a1.49,1.49,0,0,1-.81.27c-.08-.29.28-.18.28-.49-.1,0-.14-.08-.19.12-.35-.24-1,.4-1.34.49-.08-.12.21-.21.06-.34A.45.45,0,0,1,69,3.4c.08.05.16.12.24.06s0,.09,0,.13c-.17.15-.32-.17-.49.13,0-.07,0-.14-.07-.21-.13.19-.25.05-.38.14a.29.29,0,0,1,0-.22c-.06-.07-.13.13-.18-.05-.06.05,0,.11,0,.17a3.57,3.57,0,0,0-1.3.11.22.22,0,0,1,.06-.25c-.08,0-.17.07-.24,0s0,.23-.07.34c-.12-.18-.24-.12-.37,0-.07-.09,0-.17-.1-.26,0,.09,0,.2,0,.29-.14-.24-.12,0-.32.06s0-.17-.09-.26a.22.22,0,0,0,0,.22c-.17.11-.53-.18-.52-.47-.26.15.19.26,0,.51-.1,0-.07-.12-.18-.22-.13.16-.28,0-.33.31-.12,0-.25,0-.29-.23l-.14.2c.1.23,0-.18.13,0-.07.31-.46.08-.7.29,0-.17,0-.32.15-.38-.18-.24-.22.32-.41.36-.12-.28-.25,0-.38,0-.14-.24-.29-.14-.45-.07,0-.19.14-.06.2-.2s.07-.25,0-.38c-.15.25-.36.28-.49.55,0-.08-.11,0-.21-.1,0-.25.32,0,.12-.33.08-.16.15.06.24-.11-.08-.2-.31.14-.29-.15-.09.15-.18.08-.33.23,0-.34-.15,0-.28-.23-.17.24-.33.16-.49.3s.13.31.21.19c0,.29-.25.11-.35.1a.33.33,0,0,1,.09-.29c0-.14-.1-.15-.1-.35,0,.38-.16.1-.3.36,0,.22.12,0,.18.14-.09,0-.18.17-.27,0s0,0,.09-.12-.12,0-.08-.13,0,.27-.13,0a.61.61,0,0,1,0,.42c-.13,0,0-.14-.1-.26-.08.09,0,.19,0,.29s-.09-.06-.13,0c-.14-.2.08-.37,0-.56a1,1,0,0,0-.07.34c-.09.18-.17-.2-.26.06-.1-.11-.07-.2-.13-.31-.12.17-.23.06-.34,0-.07.29-.27.2-.41.18s.14-.16,0-.25c-.12.25-.25.12-.43.13s0,.2,0,.3,0-.26-.15-.35-.09,0-.11.16c-.25-.49-.54.22-.79-.06-.1.28-.16.23-.33.4-.05,0-.08-.17-.19-.15,0-.21.16-.1.22-.23-.16-.14-.28,0-.4.18-.13-.08-.07-.18-.15-.35-.11.05-.17-.08-.22.15l-.1-.18c0,.23-.24.31-.34,0-.09.3-.17.17-.3.1-.11.15,0,0,.05.17s-.13,0-.19,0c-.1-.21,0-.2,0-.34-.11,0-.23-.06-.34-.32,0-.05.06-.06.09,0,0-.16-.27-.09-.37-.11.27.14.22.41.49.51-.26.35-.28-.27-.48-.21,0,.18.2.38.17.56-.07-.16-.25-.14-.3-.36a5.44,5.44,0,0,0-.15.54c0-.3-.1-.29-.2-.44s.11-.22,0-.34a.57.57,0,0,0-.07.34c-.07,0-.16-.16-.11.07-.07,0-.15-.13-.23-.23s.24,0,.2-.28c-.15.14-.79.48-.67,0-.08,0-.16.18-.24,0-.12.39-.39.06-.6.46,0-.28-.21-.11-.15-.35-.09-.07-.07.21-.19.28s-.4-.16-.62.08c0-.24-.19-.18-.21,0-.07-.23-.16-.09-.23-.23,0,.14.06.15.1.35-.11,0-.22-.15-.26-.27s-.08.24-.27,0c0,.06,0,.14,0,.2.12,0,.23,0,.34.16a3.79,3.79,0,0,0-.58,0s0-.08,0-.13.26.11.27-.15-.26.2-.44-.07c0,.06-.08.12-.11.07a.22.22,0,0,0,0,.22c-.12.14-.23,0-.35.1-.1-.09,0-.17-.1-.26-.11.1,0,.21-.09.2s.07-.2-.07-.22,0,.15,0,.21c-.41-.53-.91,0-1.24-.31-.05-.08.07-.16.06-.25s-.31.29-.45-.07a.2.2,0,0,0,0,.21c-.06.15-.11,0-.17.16-.06-.08,0-.14,0-.21s-.16,0-.24-.06,0,.11,0,.17-.11,0-.17.07,0-.13,0-.21l-.11.16c-.07-.09,0-.17-.1-.26a2.52,2.52,0,0,1-.77.07l.08.13c-.07,0-.15.18-.22.07s0-.14,0-.21c-.15-.11-.43.09-.51.17,0-.18-.1-.22-.21-.1.14.17,0,.17-.06.25.25-.07.35.18.61.09,0-.08,0,0-.05-.09s.1.11.16-.07c.08.21.09.16.21.35-.31-.19-.74.14-1-.16,0,.05,0,.09,0,.13s0-.16-.07-.22c-.17.34-.32.12-.48,0-.05.23-.16.21-.27.15s.14-.33.07-.51.21,0,.21-.15c-.1,0-.1,0-.15-.18-.05.19-.12.14-.14.29s-.18-.11-.27.06c-.1-.32-.34-.16-.53,0,0-.26-.1-.24-.24-.06a.26.26,0,0,1,0-.21c-.17-.13-.35.14-.53,0-.05.08.07.18,0,.26s-.1-.23-.16,0a.26.26,0,0,1,0-.21c-.08,0,0,.23-.13.12a.24.24,0,0,1-.05-.26c-.13.11-.37-.13-.43.13-.07-.09,0-.17-.1-.26,0,.27-.14,0-.13,0-.19,0-.25.36-.46.1,0,.24-.25.11-.37.14s0-.14,0-.22c-.09.28-.21,0-.36.27s.14.24.19.14-.13.19-.17.16c0,.2.12.06.16.1s-.05.14-.09.2-.14-.27-.26,0c-.07-.1-.13-.2-.07-.3-.1-.16-.2.06-.29-.15,0,.11,0,.26-.12.25A1.24,1.24,0,0,1,40.86,3a1.15,1.15,0,0,1-.26-.19c0,.08-.06.26-.14.12,0,.07,0,.14,0,.21s-.07-.11-.18-.23c0,.36-.46.38-.51,0,0,.21-.11,0-.19.19.08.16.18,0,.26.11s-.23,0-.32,0a.43.43,0,0,1-.11.25c-.06.09-.06-.14,0-.17-.1-.07-.11.21,0,.29s.12.06.19-.11a2.38,2.38,0,0,0,.05.26c-.13.12-.25-.15-.38,0,0-.16.2-.46,0-.51,0,.23,0,.12-.14.2,0-.25.09-.1-.1-.26,0,.17,0,.22-.14.29,0-.33-.2.1-.31-.19.32,0,.57-.28.93-.06-.13-.3.25-.11.2-.45,0-.09-.09-.05-.13-.14,0,.28-.27.06-.32-.11.08.25-.12.21,0,.46-.07,0-.14.12-.21,0s.21,0,0-.21c.06-.19.11.11.17-.07s0-.15-.08-.22c-.16.27-.2.05-.23-.15,0,.36-.35.1-.51.17s0,.12.07.22c-.18.28-.47,0-.57.26-.1-.11,0-.2,0-.3.14,0,.28-.05.42,0a.4.4,0,0,0,0-.34c0,.09-.07,0-.1,0a.25.25,0,0,0,0,.17c-.14-.26-.55,0-.64.21.07-.43-.19-.22-.25-.53-.05.07-.1.07-.14,0-.05.23.12,0,.16.18s-.12.29-.26.53c-.12-.24.12-.23.12-.41s-.11,0-.24.11a.76.76,0,0,1,0,.3c-.06.06-.12-.14-.18,0,.11.17.23-.17.34.15.14-.17.27-.31.41-.27s-.13.06-.17.08.14.16.11,0c0,.84-.76.09-1.18.34,0,.06.07.12,0,.17s.13-.12.18.06-.2.26-.27.06c0,.21-.18.46-.27.24,0,0,.16-.18.21-.07,0-.26.07-.25.1-.46S36.17,3,36,2.93c.2-.09.3.09.54-.22-.11-.2,0-.2-.15-.35,0,.14.1.29-.06.42s-.35-.11-.53,0a.23.23,0,0,1,0,.26.53.53,0,0,0,.24.06A.37.37,0,0,1,36,3.3c-.05-.06,0-.11,0-.17-.15-.12-.05.24-.22.16,0-.13.06-.25,0-.38-.19.3-.55,0-.75.28,0-.1,0-.2-.08-.31-.1.1-.19,0-.29.19a.6.6,0,0,1,.1.27c-.13.09-.25,0-.38.14-.06-.18.1-.49.22-.24-.06-.13,0-.25,0-.38-.11.29-.23.16-.46.34.06.18.13-.07.19.06s-.16,0-.25.19c-.05-.07,0-.14-.07-.22-.07.46-.31,0-.46.18-.07-.32.21-.21.22-.41,0,0,0,0-.08,0s.07-.16,0-.26c-.1.12-.24,0-.19.2s-.18-.1-.27,0c0-.11,0-.27.11-.16,0-.3-.35.21-.37-.2l-.16.24a.51.51,0,0,1,.07.22c-.1.09-.1-.07-.15-.18-.17.32-.33,0-.61-.18-.16.23-.5-.14-.75,0,0,.2.12.06.19.14s-.31.15-.43.14c0-.22.16,0,.14-.2s-.15-.17-.16-.27c-.06.08-.18.33-.28.49s-.08-.23-.17-.31-.27.21-.24-.06c-.21.21-.41.13-.61.07s.1-.24,0-.38c-.16.12,0,.26-.09.38s-.13-.23-.2-.36c-.08.08-.14-.05-.22,0A.37.37,0,0,0,29.13,2c0,.06,0,.18-.09.12-.06.11.09,0,.11.18s-.15,0-.22,0,.1.16.13.14a1.43,1.43,0,0,1,0,.29c-.1,0-.1-.15-.16.07-.12-.2,0-.14,0-.29s-.1.09-.14.2-.25-.05-.37,0,.08-.25.09-.37-.22-.42-.36-.28c-.1-.27-.12-.41-.36-.46.07.09.16.11.15.27s-.16,0-.24,0,0,.17-.06.25c.1,0,.29.24.32,0,0,.1,0,.2,0,.29s-.06-.24-.18,0c-.12-.09.07-.16-.05-.26,0,.26-.13.24-.24.11-.07.16,0,.2.1.18s-.09,0-.14.12c0-.11-.18-.22-.12-.31s-.24.22-.19-.06c-.08-.08-.14.37-.27.23s.05-.13.09-.2c-.14,0-.37-.29-.43,0,0,0-.22-.06-.1-.18-.23,0-.54.26-.63.76-.07,0-.13,0-.19,0-.1-.15.1-.27,0-.42.13-.16.13-.05.21,0A.32.32,0,0,0,25.78,2s0,.09,0,.13-.17.17-.24,0,.08,0,.11-.16-.14.1-.21-.11c-.06.41-.34.1-.53-.12-.09.14-.17.43,0,.47,0-.23.07-.14.17-.08s-.05.08-.08,0c0,.2.31.07.44.16-.43.27-1.08,0-1.6.13,0-.06,0-.11.06-.16s-.14-.11-.21.07c0-.28-.11,0-.21-.19s.18-.18,0-.29c-.1.27-.15.1-.34,0-.09.21-.19.34-.32.06-.1.19-.18.05-.28.23-.26-.6-.78-.2-1.26-.52,0,.19-.11.34-.16.07-.11.1-.08.2-.09.3s-.07,0-.1,0,0-.26.09-.38c-.15-.18,0,.35-.22.07-.05.3-.09.19-.24.19s0-.19.09-.29c-.26.21-.65,0-.84.49-.13.08-.13-.06-.21-.1s.07-.25,0-.38a.34.34,0,0,0-.06.33c-.13-.06-.1.08-.22.15-.07-.23.11-.5.23-.49-.05-.07,0-.13,0-.08-.17-.26-.42-.54-.71-.1-.1-.12.12-.22,0-.34-.1.23-.36-.06-.53,0s0,.14-.09.2,0-.13,0-.21,0,.06-.11.16c0-.06,0-.11,0-.17s-.23,0-.21.16c0-.06-.06-.08-.08-.05s0-.12.06-.17c-.25,0-.63-.37-.8-.06-.24-.25-.18.06-.32-.11-.14.32-.22.26-.41.44.06.11.12.07.18.14s-.15-.09-.24,0c0-.06,0-.11.06-.16-.17,0-.33-.22-.5-.26s0-.11.06-.16-.16-.09-.24,0c-.1.46-.61-.22-.88.06a6.13,6.13,0,0,1,.92.29c-.11.1-.21,0-.31,0,0,.2.13.06.18.14l-.17.24c0-.07,0-.14-.07-.21-.23.09-.23.48-.49.3,0-.15.18-.17.25-.28s-.07-.2,0-.3c-.06.06-.2.57-.41.35a.22.22,0,0,1,.06-.25c-.11-.16-.22.35-.38.23s.08-.22,0-.35c0,0,0,.06,0,.09s-.15,0-.12.24c0,0-.22-.1-.19.12-.06,0-.12.06-.18-.06S14,1.16,14,1a1,1,0,0,0-.25.19c-.07-.09,0-.17-.1-.26a1.56,1.56,0,0,1-.48,0c-.05-.11.11-.05.14-.2-.2-.15-.26.43-.45.09-.06,0-.12.26-.17.16-.06.11.08,0,.1.17l-.08.13c-.15-.18-.32,0-.47-.21,0-.22.22-.23.29,0,.08-.1.15-.17.22-.15-.09,0-.29-.32-.43,0-.1-.13,0-.25-.06-.38-.11.29-.43.24-.68.24-.05-.16.09,0,.11-.16s0-.15-.15-.27c-.14.12-.28,0-.43.14-.19-.28-.19,0-.48.3.11,0,.23-.11.34,0,.06-.06,0-.11,0-.17a.14.14,0,0,1,.21,0c.06.08-.09.11-.11.08,0,.14.28.54.42.29a.37.37,0,0,0,.55.17c.06.12,0,.23.13.05A.72.72,0,0,0,13,1.4c0,.29.29.08.2.35.05-.08.13-.07.24-.11s-.08,0-.13-.14a1.22,1.22,0,0,0,.17-.07.23.23,0,0,1,0,.21c.07.14.14.05.21.19,0-.05,0-.11.06-.17.06.13.12.24.18.06,0,.07.09.19.13.14s-.14.16,0,.25c.12-.32.57-.14.67.1s0-.13.11-.17.05,0,.08,0,0,.2.12.3c.18-.25.52,0,.77.11.07-.16.13-.11.19-.2-.13-.2-.11.15-.24,0,.07-.13,0-.09,0-.3.17-.26.32-.1.36.12s-.13-.21-.21,0c.12,0,.17.26.07.39.17,0,.33.15.5.17-.05.23,0,.13.1.26-.09.05-.18,0-.26-.19-.05.08.06.17,0,.25.1,0,.19.08.29.07s0-.23-.09-.35c.15-.05.29.09.45-.09s0-.23,0-.34,0,.22.12.31,0,0-.08.12c.15.3.51.14.68.47.22-.25.43,0,.64,0,.07.22-.15.18-.17.41.15.18.2-.27.23.14a.6.6,0,0,0,0-.42.55.55,0,0,1,.56.09c.07-.33.25-.19.38-.14s0,.11-.06.16-.09-.08-.13-.14a.13.13,0,0,0,0,.13L19,3.39c.1.11.2-.13.29.15-.06.11-.12,0-.19,0,0,.22.16.12.21.18-.18.35.21.08.34.24,0-.13,0-.37.14-.37-.07.21.07.22.07.47,0,0,.06-.06.08,0,0-.24.14-.2.17-.41.07,0,.29.29.45.07.1.12,0,.23,0,.34.15.12.29.15.37.28L21,4.18,20.93,4c-.11.23-.2-.06-.29-.07.13-.17.24.1.37,0,0,.51.28.24.49.5-.08-.06-.16.05-.24-.06,0,.21.21.15.29.15s0-.23.06-.34.07.23.13.31c0-.08.07,0,.1,0,0-.27.14-.26.27,0-.07-.29,0-.09.17-.33.14.25-.2.19,0,.43.05-.31.15-.22.22-.41.13.21-.15.19-.11.33s.15,0,.24-.19c.12.19-.09.09-.06.25.22.31.3,0,.54-.13.06.1,0,.2.12.31.12-.19.23,0,.35-.1,0,.11,0,.22,0,.33s-.07,0-.11.08,0-.17,0-.25c-.16,0-.22.18-.41.09.12.08.23.24.35.16.08.12-.15,0-.06.16-.12-.09-.25-.06-.37-.11s0,.11,0,.17,0-.17-.12-.22-.09.07-.14,0c0,.53-.25-.14-.4.18-.09-.12,0-.26-.1-.26-.08.16,0,.34-.07.5.07.13.14,0,.21.1,0,0,0-.11-.05-.17s.18,0,.27,0-.09.07-.11.25c-.11,0-.22-.06-.33.06-.09-.12,0-.26-.09-.27-.19.61-.76.12-1.1.13,0-.11.11-.22.06-.33a3.38,3.38,0,0,0,1,.24c.05-.15-.12-.16-.16,0-.08-.16-.19-.12-.07-.31a.9.9,0,0,1-.27.07c0-.12.08-.22-.05-.34-.09.23-.11.15-.24.1s0-.19-.07-.3-.42.06-.54.21c0-.07-.05-.14,0-.21s0,.22.11,0c-.16-.18-.32,0-.47-.21l-.2.28a1.15,1.15,0,0,0-.15-.35c-.11.28.06.29.1.43-.11.15-.19-.3-.3-.06-.12-.18.12-.33,0-.51,0,0,0,.08,0,.13-.21.13-.41,0-.61-.09-.11.17.05.37.15.35-.1.07-.21.47-.3.27s.11,0,.08-.2-.1.09-.15-.1c-.07.16,0,.22-.14.29a.21.21,0,0,1,0-.26c-.14-.18-.14.33-.27.15s.15-.24,0-.38c-.1.09-.07.19-.14.29s-.07,0-.11,0,.15-.13.12-.33c-.13,0-.1-.12-.23-.32s-.51,0-.69,0c.16-.29-.42-.2-.6-.34,0-.22.24,0,.35-.19-.21-.22-.41.21-.56-.08,0,0,0,.11.05.17s-.14,0-.22.16c-.19-.44-.46-.06-.57-.39-.25.18-.39-.06-.59.21.09,0,0,.06.1.18-.3.25-.37-.23-.38-.58-.07.16,0,.34-.07.5-.12-.06-.23,0-.34-.15s.14-.09.19-.2c0,.1-.4-.18-.48-.12s-.05-.28,0-.17c0-.21-.11,0-.16,0s0,.11.05.17c-.22,0-.54-.54-.84-.32a2.53,2.53,0,0,1-.13-.22c-.06.08-.1-.07-.16.07-.22-.47-.46,0-.68-.48-.24.2-.48,0-.71-.26.15-.13.16-.22.28-.32-.27,0-.54.26-.67,0,0,.36-.19.51-.13.92-.13,0-.26-.18-.39-.24,0,.38.48.17.45.63-.05.09-.1-.14-.15-.18,0,.26-.22,0-.33.23a.44.44,0,0,0-.09-.43c0,.2-.08.24-.2.36-.07-.17-.22-.39-.23-.14-.09-.12,0-.27-.15-.27,0-.16,0-.11.08-.21-.11,0-.22-.09-.34,0-.09-.15.1-.28,0-.42,0,.06-.09.4-.19.19,0,.1-.09.19,0,.3-.16.09-.13.05-.2.28s-.1-.23-.16-.09.07.17.1.26-.14-.1-.21,0c0-.11.12-.21,0-.34,0,.19-.19.07-.13-.05-.17.32-.44.14-.66-.18,0,.1-.08.2-.09.29s.06.1.15.27c.07-.06,0-.14,0-.21.23-.05.44.22.66.34-.19.14-.37-.21-.56-.08a1.17,1.17,0,0,1,.29.23c-.11.09-.21-.14-.33.15,0-.12.05-.22,0-.34-.05.07-.09,0-.14.11s0-.14,0-.21-.11.06-.16-.09c0,.24-.2.08-.22.32-.14-.15,0-.28-.1-.43-.11.12-.35-.06-.36-.2-.17.14-.16-.13-.32,0-.06-.16.08,0,.11-.16-.15-.19-.3,0-.45-.16a.87.87,0,0,0-.09.37c-.09,0-.26,0-.27.24-.12-.1.07-.17-.05-.26s-.16.09-.23-.06c-.11.1,0,.21-.14.2s.13-.27.12-.41.11.28.18,0S6.09,2.13,6,2.25c-.1-.09,0-.17-.1-.26-.14.14-.42.29-.46.09s0,.07,0,.13-.2.07-.29-.15c-.06.15-.12,0-.19.2.12-.14.22.3.35.06.07.22,0,.3.14.44-.16.28-.2,0-.24-.06-.11.2.11.16.1.35.06-.13.11-.13.16,0,.07-.16.13,0,.14-.2s-.16,0-.13-.22.12.18.19,0c0,.17-.08.22.07.31-.05-.3.12,0,.21,0s0,.3-.09.21c.08,0,.24.29.37.2.09.37.26.14.33.49.14-.07.13-.25.27-.24s0,.14-.08.21c.1.28.22.12.34.24C7.08,4,7.06,4,7,4c.08-.21.19,0,.19-.2,0,0,0,.27.1.18,0,.16,0,.11-.08.2.13.16.28,0,.41.29.06-.44.19.22.33-.15,0,.27.11.12.12.31-.1,0-.2.07-.29-.15-.09.35-.34,0-.5-.17a.53.53,0,0,1-.14.38c.26-.39.74.65,1-.1.17.06.34,0,.5.17,0-.11,0-.15-.05-.17l.17-.25c.05,0,.11,0,.16.1s-.16,0-.25.2c.08.11.16.11.23.23L9,4.65a.22.22,0,0,1,.13.06c0,.1,0,.19-.09.29.19.09.11-.41.32-.23a.22.22,0,0,0,0-.22c.06-.07.11-.1.17-.07-.12.37.29.5.43.67-.16.09-.54-.19-.54.13-.16,0-.31-.16-.47-.12,0,.24.19.09.26.19-.13.1-.13,0-.22.24-.06-.38-.16-.06-.2-.44-.14.14-.08.3,0,.46s-.1-.2-.15-.27c-.07.1-.13,0-.2.2-.09-.09,0-.17-.1-.26-.12.2-.06,0-.18-.06-.13.12-.25,0-.38.14-.1-.1,0-.19,0-.3.13-.06.36.16.35-.18C8,4.85,7.93,5,7.86,5a.41.41,0,0,0-.05-.17c-.12.18-.14.19-.24,0-.15.15,0,.31-.14.46s-.06,0-.09,0c-.09-.12,0-.22,0-.33s-.14,0-.2-.19c-.06.05,0,.11,0,.17-.16.09-.31-.32-.48.05-.28-.17-.51,0-.73-.32-.1.21-.18,0-.27.07,0,.2,0,.25-.09.37a1.43,1.43,0,0,1,.2.36c.06-.2,0-.15.12-.33s.22.11.34-.1c.07.16-.12.3-.14.45s.26,0,.23.23c.18.08.36-.21.53.13-.11.12-.22,0-.33.15.07,0,.15,0,.21.18,0-.17.06-.17.11,0,.21-.29.4.19.61.09.1.09,0,.17-.06.25s.14,0,.21.1a1.1,1.1,0,0,0-.18-.48.78.78,0,0,1,0-.21c.06,0,.12,0,.18.06s-.06.16.05.26c.07-.07,0-.14.08-.21s.07.06.11,0c.06.18-.06.09-.06.25s-.16-.16-.24,0A19.74,19.74,0,0,1,10,7.07c.07-.35.33-.15.37.11.06-.18,0-.37,0-.55s.14.27.29.15c0,.06,0,.12-.05.17.13.06.27-.13.39,0-.17.45.31.28.52.63.11-.07,0-.17-.05-.26.22,0,.12.08.32.2,0-.07-.07-.15,0-.22s.1,0,.15.1a.37.37,0,0,1,.12-.24c.12-.13.07.22.21,0a.22.22,0,0,1-.06.25c.31.15.26.28.66.18a.23.23,0,0,1,0,.21c.26-.23.5,0,.75-.11a.33.33,0,0,1,0,.17c.09,0,.2-.12.3-.28a.16.16,0,0,1,0,.26c.32-.08.63.42,1,0,.1.1,0,.19.07.3-.06.08-.11-.07-.16.07.25,0,.57-.28.88-.06,0-.18-.21-.14-.05-.34.14.19.25.34.37.28.08-.26-.11,0-.18-.14.1-.18.19-.06.29-.1a2,2,0,0,1-.06.42c.27,0,.47-.34.77-.16,0,.06,0,.12,0,.17s.08.05.13.14c.1-.15,0-.16.16-.24a.47.47,0,0,0,.1.26c.14-.08.27,0,.4,0s-.09.14-.11.08c.1.26.33,0,.41-.27.13.12,0,.23-.06.34.18,0,.38-.33.56-.17s-.09.25-.11.07a.29.29,0,0,0,.26.28s-.16,0-.06.16-.1-.1-.16.08.18,0,.26.1c0-.11.05-.32.14-.2,0-.08,0,0-.08-.13A.58.58,0,0,0,19,8.44c.13.13-.06.22.05.35.08-.14.21-.13.22-.33.22.07.48.21.63.14s0-.2.09-.29c.08.25-.07.36.15.43-.08.17-.14,0-.22.07,0,.22.25,0,.35.07,0-.07,0-.14,0-.21.08.1.14,0,.2.27.11-.09,0-.19.15-.28s.14.38.29.06c.07.09,0,.17.1.26-.07.11-.13.06-.19,0,.38.45,1,.09,1.51.24a.64.64,0,0,1-.12.34c.1.06.2-.07.29.06.08-.09,0-.19,0-.29.23,0,.65.44.9-.1.08.2-.09.14-.08.29a.89.89,0,0,1,.34.07c0-.07,0-.14,0-.21.18-.07.46.44.56.08.06.11,0,.2.12.31.08-.05.17-.24.24,0,.14-.44.46.13.67-.17,0,.09.1.18.05.26.13-.08.27-.23.39.08.06-.11.12-.15.17-.16A.28.28,0,0,0,26,10c0-.13.17-.12.1,0,.09-.12.23-.08.37,0,0-.19.05-.2.14-.2s0,.11-.05.16.26,0,.39.08c-.11.19-.13-.06-.19.19.08,0,.16.12.24.06s0,.14-.09.21-.18-.29-.29-.06c.12,0,.06.29.18.22,0,.19-.07.21-.17.24s0-.19,0-.29-.14.09-.19.2-.18.06-.27-.11c.2.06.16-.26.3-.19.06-.15-.16-.08,0-.25s0,.26.08.13,0-.1-.05-.26.07,0,.11,0c-.11-.16-.47.06-.67-.09.05.25-.1,0-.11.24a.52.52,0,0,0,.38-.14c.05.57-.38.36-.52.51-.19-.22,0-.42-.12-.64,0,.28-.17-.09-.27.15a.22.22,0,0,1,.23.31c-.14-.29-.14.14-.34-.07s0-.25-.07-.38c-.05.06-.09.13-.14.2s.08.12.05.17c-.26.19-.5.09-.75.2.07.2.16.06.23.14-.15.14-.42.23-.47-.12.07,0,.14,0,.22-.15s-.13-.06-.08-.22c-.17,0-.32.36-.42,0-.07.17-.13.06-.19,0s-.06.13,0,.21c-.19-.16-.54.11-.63-.22a2,2,0,0,0-.35.1.51.51,0,0,1,0-.21c-.1-.1-.07.15-.14.2a.44.44,0,0,1,0-.43c-.12-.08-.27,0-.31-.27,0,.16.06.34-.07.5.17.14.08-.36.27-.15,0,.17,0,.27-.11.33s-.4-.36-.61-.26c-.06-.24.1-.13.17-.24s-.18,0-.27.07a.64.64,0,0,0,.05.17c-.07,0-.09-.11-.11.08-.14-.19-.31.25-.44-.17,0,.2-.25.21-.27,0-.1.36-.35.33-.51.18-.05.05,0,.11-.06.16-.13-.15-.29,0-.28-.32l-.2.28c-.17-.15.07-.27,0-.42-.12.16-.23.12-.34,0,0,.14-.14.27-.18.41-.06-.17.14-.33,0-.51,0,.42-.35.37-.51.18-.14.07-.13.33-.27.23,0-.15.11-.32-.05-.26a.51.51,0,0,1,.14-.37s0,0-.05,0a.41.41,0,0,0,0-.09c-.09.1,0,.22-.12.33s-.11-.22-.25-.36c-.1.16-.19-.09-.29,0,.1.25.2.2.31.11a.63.63,0,0,0,.13.31c-.12-.06-.11.14-.24-.06-.12.07.06.17-.06.25-.11-.22-.36-.19-.55-.26,0,.11.15.15.21.1,0,.33-.24.27-.35.19s.18,0,.11-.16-.11.14-.24,0c.16-.4-.41,0-.58-.38-.06.17-.26.25-.41.43,0-.37-.41-.08-.48,0,0-.06-.08-.12,0-.18,0,.13-.15,0-.27.15-.07-.31-.18,0-.37.06,0-.1,0-.2-.07-.3-.34.2-.51,0-.86.1,0-.11,0-.21-.07-.22,0,.34-.19.13-.26-.1.05.26-.13.43-.28.32s.17,0,.14-.21-.09,0-.13-.13c0,.1,0,.21-.08.2s.07-.13,0-.21-.23,0-.22.16,0-.27-.13-.23c0,.21-.1.27-.22.33,0-.26-.08,0-.18-.23,0,.18-.14.15-.21.07s0-.05,0-.21c-.05.26-.46-.06-.41.35-.09-.13-.2.24-.29.1s.09-.12.16-.32c-.09-.08-.19,0-.29-.07-.05.53-.41.25-.51.34,0-.16.14-.21.19-.28s0,.12,0,.17.08-.12.22-.15c-.18-.07-.23,0-.37-.37-.11.09,0,.2,0,.29-.15-.32-.78,0-1-.16,0,0-.22.15-.14.29-.14.18-.26-.2-.27.15-.08-.12,0-.23,0-.34s.09.08.13.14c.09-.17-.06-.28.12-.34-.14,0-.16.11-.33.23a.41.41,0,0,0-.05-.17c-.09.14.05.11,0,.3s-.16-.09-.24.11a3.21,3.21,0,0,0,1.21.35c.12.09-.07.16,0,.25s.08-.09.14-.2c.11.18-.07.34-.17.5-.23,0-.47-.43-.77-.19-.08,0-.15-.17-.23-.14.07.19.05.16-.11.07-.1.08,0,.17-.06.25-.19-.34-.25-.09-.42-.11s0-.17-.1-.27c0,.19-.08.31-.19.2s.14-.16,0-.25c0,.08-.07,0-.1,0a.4.4,0,0,1-.09.2A1.17,1.17,0,0,1,8,9.92c0,.36-.17-.1-.29.11-.06-.17.1,0,.13-.2-.09,0-.19,0-.29-.07s-.11.26-.16.16c0,.22,0,.2-.15.37.21,0,.29.24.46.08.09.2-.07.14,0,.3a.39.39,0,0,0,.09-.38c.07-.06.13,0,.19-.11,0,.28.18.15.27.1.06.19-.12.15-.15.37.1,0,.11,0,.17-.15,0,.07.1.24.25.27,0-.11.1-.22.17-.32,0,.14,0,.28.1.43.07-.12.14,0,.21,0s0,.21,0,.3a1.48,1.48,0,0,1,.84.15c.17-.25.32.13.48,0,.27.46.69-.21.87.36.06-.15.11,0,.16-.16.07.17.14.18.21.27-.11.1-.2-.08-.25.2.06-.23-.06-.12-.15-.18-.07.17,0,.13.1.17-.13.2-.25.07-.37.06S11,11.89,11,12c0-.23-.32,0-.45-.08.06.17.12,0,.18.14-.24-.07-.34.13-.56.17s.18-.18,0-.3a1.63,1.63,0,0,1-.11.17.51.51,0,0,0-.67.07c.16-.22-.09-.17-.23-.23,0,.11-.09.21,0,.22-.19.3-.21-.19-.37.05a.62.62,0,0,1,0-.38c-.07-.07-.19.2-.19.28s-.31-.3-.35,0c-.05,0-.22-.14-.18-.23a.43.43,0,0,1-.64,0c.14-.09.13-.05.25-.28-.09-.11-.17-.18-.26-.28-.08.05.08.31,0,.21-.06.22.12,0,.16,0,0,.28-.3.45-.43.14-.18,0-.37.51-.54.21l-.11.16c-.09-.09,0-.16,0-.25s-.22.25-.32.06.1-.1.13-.2c-.3.09-.58.24-.76-.1-.09,0-.18,0-.27.15a.16.16,0,0,1,0,.21c-.1-.22-.4,0-.58-.21.06-.11.13-.21.19-.12,0-.15-.33-.17-.48-.2-.12.2.1,0,.13.22s-.18,0-.27.15a.23.23,0,0,1,0,.21c.06.12.09,0,.1.17a.16.16,0,0,0-.11.08c-.13-.33-.17-.25-.33-.41.09-.2.17.14.26-.06S4.1,11.7,4,11.53c0,.18-.19.3-.3.28s0-.11.06-.17c-.06-.21-.14,0-.21-.18,0,.08.07.17.05.25-.19.14-.37-.09-.56,0,0,.23.14,0,.21.1s0,.09,0,.13-.17.07-.32.15c0,.24.13.17.19,0,.12.12-.13.25,0,.26C3.14,12.44,3,12.47,3.08,12.69Zm10.05,2.86c.1-.17.19,0,.29.06C13.32,15.74,13.22,15.66,13.13,15.55ZM21.2,17.7c-.08.19-.26,0-.14.29-.15.11-.3,0-.45-.08.08-.17.09-.05.17-.32,0,.06.08.18.13.13s0-.11,0-.16S21.11,17.42,21.2,17.7ZM81.62,7.14c.1-.13.08-.3.19-.11S81.69,7.28,81.62,7.14Zm-.07-4.59c.17-.1.18-.14.33-.4.06.18.12.08.19,0a1.28,1.28,0,0,1,.14.43c.15-.15.05-.33,0-.5.21.1.19.51.06.72-.18-.32-.38.24-.57.09s.11-.1.07-.25C81.7,2.7,81.55,2.71,81.55,2.55ZM65.07,3.9c-.11.15-.2,0-.3,0C64.88,3.76,65,3.79,65.07,3.9Zm-8.37.37c0-.15-.22-.12-.18-.31C56.59,4.16,56.79,4,56.7,4.27Zm-6.32-.4c.07,0,.15-.11.21.1S50.34,4,50.38,3.87ZM13.32,1.17A.37.37,0,0,1,13,1C13.08,1,13.32,1,13.32,1.17ZM15.5,4.1c0,.18-.49.1-.4-.16C15.23,4.16,15.37,3.85,15.5,4.1ZM6.17,2.78c0-.07,0-.14.09-.21,0,.09.09.05.13.14S6.24,2.93,6.17,2.78Zm12.2,7.44a1.69,1.69,0,0,1-.56-.08A.42.42,0,0,1,18.37,10.22Zm-5.12-.35c-.08,0-.3,0-.29-.15C13,9.72,13.26,9.66,13.25,9.87Zm-2.62-.5c0,.06-.1.35-.17.15S10.59,9.26,10.63,9.37ZM4,12.08c0-.06,0,.06-.08.12-.07-.27-.17.13-.24-.14C3.78,11.84,4,11.93,4,12.08Zm3.71,1.35c-.07,0-.15.14-.21,0C7.62,13.2,7.7,13.41,7.71,13.43Zm3.62,1.64c0,.17-.18.15-.26,0C11.16,14.89,11.25,15,11.33,15.07Zm.77.1c-.09.1-.32,0-.31-.19C11.89,15.1,12,14.94,12.1,15.17ZM6.87,6c.18,0,.36-.08.53,0A.32.32,0,0,1,6.87,6Zm7.48,12.25c0,.19-.2.18-.29,0C14.16,18,14.26,18.11,14.35,18.23Zm-3.41-6c-.09,0-.18.12-.27,0C10.75,12.1,11,12,10.94,12.24Zm-4-7c0-.13-.21,0-.16-.18C6.81,5.08,7,5,6.9,5.21Zm.19-.11c0,.25.08.06.18.14s.05.15,0,.22-.09-.19-.21,0L7,5.31C7,5.24,7,5.16,7.09,5.1Zm.48.59c-.09,0-.18.17-.26,0C7.4,5.47,7.49,5.53,7.57,5.69Zm3.27,4.5c.06-.07.11-.1.16-.07-.12.13-.05.54-.22.41S10.93,10.34,10.84,10.19ZM8.4,5.63l-.11.16-.08-.14C8.28,5.49,8.34,5.6,8.4,5.63ZM6.86,2.92c0-.3-.11,0-.21-.11S7,2.69,6.86,2.92Zm4.57,7.23c.17.2.38-.2.47.21,0-.26.21-.24.3-.11-.26,0-.22.34-.47.52-.09-.35-.1,0-.15-.27-.14.06-.42.22-.45,0,0,0,.16,0,.1-.08s-.17,0-.26-.1c.08-.15.14,0,.21.1C11.27,10.31,11.42,10.38,11.43,10.15Zm2.76,5.31c0,.22-.16.15-.24.11S14.11,15.36,14.19,15.46Zm-3.33-6a1.62,1.62,0,0,1,.1.18c-.05.1-.11.14-.16.07C10.92,9.69,10.74,9.59,10.86,9.51ZM7.78,3.37c-.09.18-.16-.21-.24,0-.08-.12,0-.3-.13-.3C7.61,2.8,7.62,3.32,7.78,3.37ZM9.27,5.91C9.19,6,9.1,6.2,9,6,9.11,6,9.2,5.74,9.27,5.91Zm-1-1.7c-.09-.24.18-.53.3-.36a.3.3,0,0,1-.14.29C8.42,3.92,8.32,4.05,8.26,4.21ZM13.05,11c0-.22-.1-.09-.16.07-.07,0-.09-.07-.1-.18-.19.19-.37-.12-.56.09-.08-.11,0-.38-.13-.14-.09-.13-.08-.47.06-.34,0,.06-.05.11,0,.17,0-.48.34-.31.52-.42l.12.22c.11,0,.22-.26.33-.06a.31.31,0,0,1-.44.22c0,.06,0,.07,0,.08s.17.21.26.19c.14-.23.28-.41.4-.18C13.09,10.66,13.14,10.85,13.05,11ZM9.46,5.79c0-.08-.06-.17,0-.25,0,.19.11-.1.15.1s-.06.27-.17.41l-.07-.14A.83.83,0,0,1,9.46,5.79Zm7.56,13c0,.13-.15.29-.19.11S17,18.55,17,18.74Zm-1.19-2.9c-.07.29-.34-.11-.24-.06S15.76,15.68,15.83,15.84ZM9.22,4.2l-.12.16c0-.05-.07-.11,0-.17S9.12,4,9.22,4.2Zm1,1c-.06.07,0,.14,0,.22a1.43,1.43,0,0,0-.14.2c-.08,0-.16-.16-.24-.23C10,5.38,10.08,5.26,10.2,5.21ZM9.27,4.12a.81.81,0,0,0,0-.38c0,.09.11-.05.16.1-.23.28.18.16.12.39-.11-.13-.36.13-.37-.2Zm1.39,1.72c0-.31-.18,0-.29-.15C10.45,5.32,10.74,5.52,10.66,5.84Zm.21.11c.09,0,0,.27.1.17s0-.2,0-.29a1.62,1.62,0,0,1,.1.18c0,.06-.1.13,0,.21s-.13.2-.19.11.06-.11,0-.17,0,.17-.12.24C10.65,6.24,10.83,6.1,10.87,6Zm.7,1.15c-.12.17-.23.15-.34-.06C11.35,6.92,11.46,7,11.57,7.1Zm-1.9-3c.14-.09.26.18.4.07-.12.18-.19.13-.35.1C9.75,4.23,9.71,4.17,9.67,4.11Zm4.06,6.43-.11.16c-.06-.18-.14-.19-.21,0l-.08-.14C13.47,10.41,13.6,10.51,13.73,10.54Zm-3.49-6c-.07-.09-.16,0-.23-.14S10.27,4.31,10.24,4.49ZM17.15,16.2c-.14.11-.28-.09-.42,0C16.78,15.89,17,16.1,17.15,16.2ZM9.7,3.26c0-.1.05-.19.08-.29A.24.24,0,0,1,10,3a1.23,1.23,0,0,1,0,.38c.13-.3.25-.19.38-.23.1.31.21.27.39.42-.09.21-.37,0-.54-.05a.22.22,0,0,1,0,.22c-.15,0-.2-.09-.12-.22-.13,0-.51.16-.61-.26C9.61,3.37,9.58,3.21,9.7,3.26ZM11,5.36c0,.22-.09.33-.24.2C11,5.58,10.87,5.32,11,5.36Zm-1-1.56c.06.07.13,0,.18.14S10,4,10.05,3.8Zm4,6.77c.05,0,.09,0,.14,0l.12.22c.19-.19.23,0,.43-.14,0,.09,0,.18-.06.25-.1-.17-.21-.08-.32,0a.43.43,0,0,1-.06.42c-.08-.07-.16-.09-.23-.23.08-.14.16,0,.24-.19S14.12,10.75,14.1,10.57Zm.08.22c-.1.12-.18.08-.27-.11C14,10.59,14.09,10.74,14.18,10.79Zm-3.45-6.6c.12.1-.07.17,0,.26-.08.1-.15.09-.21,0S10.66,4.18,10.73,4.19Zm7.53,13.24c-.08.1-.15.2-.22.07C18.12,17.35,18.19,17.39,18.26,17.43ZM10.58,3.84c.06.08,0,.14.08.22s-.13.07-.19-.06A.91.91,0,0,0,10.58,3.84ZM12.85,7.2a.51.51,0,0,1,.07.22c-.11,0-.23.14-.34-.07C12.67,7.16,12.75,7.4,12.85,7.2ZM11,4.26c.14.17.29,0,.43.12-.15,0-.3.25-.43,0C11.05,4.37,11,4.31,11,4.26Zm.61,1,.11-.16a.66.66,0,0,1,.07.3C11.76,5.21,11.69,5.41,11.63,5.24ZM10.9,3.78c0-.11-.16-.24,0-.34s0,.18.13.31a1.43,1.43,0,0,0-.14.2c0-.11-.19-.07-.13-.23S10.84,3.79,10.9,3.78Zm4.18,7.08c-.11-.11-.11.17-.24,0C14.91,10.71,15.11,10.63,15.08,10.86ZM12.34,5.42c-.09,0-.19.09-.29,0C12.15,5.25,12.25,5.37,12.34,5.42Zm7.05,12.31c-.06.06-.13.16-.18,0S19.33,17.54,19.39,17.73ZM13.11,6.33c-.09-.06-.19,0-.28-.15C12.91,6,13.13,6.19,13.11,6.33Zm2.55,4.57c.13,0,.25.07.37.12C15.91,11.19,15.6,11.22,15.66,10.9ZM12,2.8c-.11.15,0,.05,0,.18s-.12-.09-.19,0c.08.24.18.16.26.28s.11.37,0,.29c.06-.15-.1-.06-.12-.22-.12.25-.21-.06-.32.06-.08-.21-.13-.26-.26-.27s.05.14,0,.21c-.23-.25-.09-.42,0-.76.06.07,0,.14,0,.21s.09.1.13.05a.44.44,0,0,1-.07-.21c.1-.13.17,0,.14-.21.06,0,.13,0,.18.15s-.11,0-.08.12A.47.47,0,0,1,12,2.8Zm.75,1.5c0-.15.1-.09.17-.15,0,.25.19.09.31.19-.13.25.12,0,.15.27-.11.08-.22-.11-.34-.07-.21.23-.17.72-.39.56C12.78,5,13,4.47,12.72,4.3ZM20.3,17.55c0,.1-.14.19,0,.29.14-.11.08-.24.14-.37,0,.1.09.06.13.14-.09.32-.2.38-.29.66a.86.86,0,0,0-.41-.46C20,17.67,20.12,17.5,20.3,17.55Zm-4-6.6c-.05.17-.14.21-.24.11A.52.52,0,0,1,16.3,11ZM11.38,2.29c-.05.08.06.17,0,.25S11.25,2.21,11.38,2.29Zm1.83,2.6L13,5.22c0-.06-.07,0-.1-.1S13.09,4.77,13.21,4.89Zm3.3,6.16c.07.11.13.07.07.22,0-.09-.11.06-.15-.09ZM14.78,7.48c.14.21-.11.32-.19.2C14.66,7.52,14.72,7.64,14.78,7.48ZM12.17,3.16c.06,0,.16.19.07.3C12.18,3.36,12.12,3.25,12.17,3.16Zm4.51,7.65a.08.08,0,0,0,0,.09c0-.07.09-.07.14,0s-.18.16-.27.06S16.63,10.77,16.68,10.81ZM16.62,10c-.08-.15-.18.14-.26,0C16.43,9.84,16.64,9.79,16.62,10ZM11.38.5c-.06.18.1.09.08,0,.07.1,0,.2,0,.3-.11-.06-.09.06-.26,0C11.25.62,11.3.51,11.38.5ZM22.1,17.94c-.08.15-.14,0-.21,0S22,17.79,22.1,17.94ZM16.43,7.69c-.07.12-.13.07-.19-.05S16.37,7.57,16.43,7.69Zm2.25,3.87c.11.14,0,.37-.12.16C18.64,11.62,18.58,11.57,18.68,11.56ZM16.87,7.94c.12-.17.37-.09.39.16-.1-.25-.23,0-.34,0C17,8,16.85,8.09,16.87,7.94Zm6.58,10.32c-.12,0-.24.1-.35-.07C23.22,18.09,23.43,18,23.45,18.26ZM13.72,1.41c-.06-.07-.24-.11-.21-.27S13.75,1.26,13.72,1.41ZM15.87,4c.09.22.18.14.26.28-.1.15-.19-.1-.3.19-.05-.13-.1,0-.15-.18A.77.77,0,0,0,15.87,4Zm3.67,6.19c.1.14.14.27,0,.39-.08,0-.1-.27-.23-.23C19.4,10.1,19.47,10.29,19.54,10.14ZM15.62,1.9c-.1.14-.21.25-.3.18C15.42,2,15.53,1.73,15.62,1.9ZM17.78,6c-.06.12-.12.07-.18-.06S17.72,5.84,17.78,6ZM17,4.3c-.1.12-.2.19-.29,0C16.84,4.2,16.94,4.28,17,4.3Zm.67.82c.14.18.29,0,.43,0-.1.3-.26.16-.46.17,0,.07,0,.16-.08,0A.41.41,0,0,1,17.7,5.12Zm2.19,3.22a.32.32,0,0,1-.4.1C19.63,8.26,19.76,8.31,19.89,8.34ZM16.24,1.56c-.07.1-.14.06-.22.07s0-.28.07-.42C16.2,1.33,16.15,1.44,16.24,1.56Zm-.43.14c0-.22-.1-.13-.2-.27.18,0,.33-.49.42-.14C15.88,1.35,15.89,1.53,15.81,1.7Zm.44.24c-.05-.17-.24.05-.2-.18.09,0,.19-.05.29.15-.06.07,0,.14,0,.21-.1.11-.19.12-.27.07S16.3,2.11,16.25,1.94ZM18,4.55c-.07-.1-.15,0-.21-.1S18.07,4.42,18,4.55Zm-.32,0c.08-.09-.08-.2,0-.29C17.87,4.31,17.82,4.59,17.72,4.52Zm.59.85c.07-.14.14-.09.21-.15.07.19.14.14.21.19-.12.07-.07.08-.17.24,0-.17-.07-.24-.18-.06A.36.36,0,0,1,18.31,5.37Zm4.05,6.52c-.08.18-.19.09-.19.28l-.05-.09s0,0-.06,0C22.12,11.88,22.25,11.77,22.36,11.89Zm3.27,6.29c.07.06.13,0,.13.13S25.55,18.3,25.63,18.18ZM16.5,1.75c-.08,0-.16,0-.24-.14C16.34,1.38,16.53,1.68,16.5,1.75Zm5.32,8.65a.2.2,0,0,1-.32,0A.2.2,0,0,1,21.82,10.4ZM17.53,2.13c-.06-.06,0,.06-.09.12s-.11-.3-.26-.11.15.12.07.31c-.1,0-.17-.09-.2-.27C17.2,2,17.48,1.86,17.53,2.13Zm3.54,6.69c.12.07.24-.17.35.07-.1.16-.2.08-.3.19A.24.24,0,0,1,21.07,8.82Zm-2-3.94a.32.32,0,0,1,.16.18C19.17,5.26,19,5,19.09,4.88ZM17.92,2.2a.39.39,0,0,0-.06.17c-.05,0-.1-.07-.15-.19S17.86,2.09,17.92,2.2ZM19.62,5c-.08,0-.17.27-.24.11C19.46,5,19.54,5,19.62,5Zm.75.78c-.11.2-.14,0-.19.2a.42.42,0,0,1-.08-.22C20.2,5.61,20.28,5.62,20.37,5.79Zm-.58-.13c.1.19.21-.15.31.11C20,6,19.78,5.87,19.79,5.66ZM18.28,2.74c-.08.21-.14,0-.21-.1S18.21,2.7,18.28,2.74ZM20,5.21c-.08.16-.15,0-.22.07C19.78,5.08,19.91,5.05,20,5.21Zm.33-.32c-.15.17-.21.18-.23.41C20,5.3,20,5.15,20,5s.15-.1.22-.15-.11,0-.08-.14.24.09.34.24,0,.14-.08.21C20.28,5.09,20.35,5,20.32,4.89Zm.38.5a.45.45,0,0,1-.53,0C20.2,5,20.52,5.24,20.7,5.39Zm-2.46-4c-.14.06-.27,0-.4-.07A.25.25,0,0,1,18.24,1.42ZM19,2.75c0,.11,0,.33-.14.2S18.93,2.66,19,2.75Zm-.16-1c.14.11-.11.19,0,.3s.15-.17.22,0c-.15.19-.29.09-.43.06C18.63,1.94,18.77,2,18.84,1.76ZM20.9,5.92c.18-.25.35.15.28.4C21.1,6.14,21.12,6.06,20.9,5.92Zm0-.55c-.05.06-.09.13-.14.2s-.08-.12-.05-.18C20.81,5.52,20.88,5.13,20.94,5.37Zm-1-2.12c.07.1,0,.2,0,.29s-.07,0-.1-.09Zm-.42-1a.53.53,0,0,1,0,.46C19.36,2.54,19.42,2.25,19.52,2.24Zm1.3,2.65c.08-.19.21.06.21.19S20.93,5,20.82,4.89ZM20,2.23c0,.08.08.13.13.14-.13.09-.16-.08-.25.19,0-.27-.13-.06-.23-.23C19.74,2.18,19.85,2.4,20,2.23Zm.73.48c-.16-.3-.48.06-.55-.25C20.3,2.49,20.73,2.26,20.7,2.71Zm-.16,0c-.05.08,0,.17-.06.25s-.09,0-.13-.14C20.47,2.76,20.43,2.61,20.54,2.7Zm.93-.05c.06.16.13,0,.19.14s-.15.13-.22.07S21.45,2.72,21.47,2.65Zm2.31,3c-.1,0-.37.19-.29-.15C23.56,5.67,23.79,5.45,23.78,5.63Zm2.57,4.62c.12.12,0,.37-.11.24S26.25,10.32,26.35,10.25ZM23.7,5.41c-.06.12-.12,0-.18-.06s.07-.35.14-.28A2,2,0,0,0,23.7,5.41ZM23.8,5c.13.12,0,.42-.09.29S23.69,5.13,23.8,5ZM22.77,3c.07.25.16-.06.23.14a.42.42,0,0,1-.4.1Zm1,1.74-.12.16-.07-.14C23.69,4.56,23.74,4.67,23.81,4.7Zm.45.88c.14-.2.11.15.26.19C24.43,5.83,24.26,5.75,24.26,5.58Zm.34.24a1.62,1.62,0,0,0,.1.18c-.06.15-.25.19-.21,0C24.55,6.08,24.59,5.86,24.6,5.82Zm2.6,4.41c-.06,0-.12-.09-.18-.14a1.74,1.74,0,0,1,1.11.17c-.11.3-.2-.17-.32.06.07.1.13.06.08.21s-.07-.18-.18-.31c-.12.21-.23-.12-.35.1.07,0,.14,0,.21.19s-.11,0-.17.16c-.09-.07,0-.33-.1-.27s.08.21,0,.3-.11,0-.16-.1S27.23,10.36,27.2,10.23ZM24.28,5c.11.24.24,0,.36.2-.07.16,0,.31-.14.37-.13-.13,0-.23,0-.35-.09,0-.16,0-.25.11C24.12,5.2,24.19,5.09,24.28,5Zm-.91-1.86c-.09.14-.18.31-.27.15C23.19,3.22,23.29,3,23.37,3.13Zm1.89,3.59-.11.16-.08-.13C25.14,6.63,25.2,6.59,25.26,6.72Zm.83-1s.09,0,.13.05c-.2.2-.29-.34-.39-.41l-.14.2a.47.47,0,0,0-.6-.18.62.62,0,0,1-.18.41c0-.33-.1.11-.2-.1a1.94,1.94,0,0,0,.41-.6c.16.39.48,0,.7,0,0,.08-.18.15-.12.24.1-.11.2-.06.3-.19s-.11,0-.08-.13c.1.15.34-.11.35.15-.13-.12-.34.19-.23.41,0-.31.37-.11.37,0C26.31,5.6,26,5.46,26.09,5.77Zm.12-.42a.25.25,0,0,1,.19-.2c0,.13.12,0,.15.18C26.43,5.48,26.32,5.39,26.21,5.35ZM23.37,3.22a.45.45,0,0,1,.4.07C23.64,3.37,23.41,3.46,23.37,3.22Zm1,1.57c-.05-.06-.1.08-.15-.1S24.47,4.68,24.41,4.79Zm.51.16c-.07.12-.27.16-.24-.06C24.76,5,24.84,4.88,24.92,5ZM24,3.27c0,.12-.14.21-.22.07C23.87,3.19,23.94,3.23,24,3.27Zm4.41,7.14c0,.19-.16,0-.14.28C28.15,10.56,28.34,10.27,28.42,10.41Zm.29,0c0,.18-.13.12-.22.32,0-.05,0-.09-.07-.13S28.62,10.25,28.71,10.39ZM25.63,5.05c-.06,0-.27.17-.24-.06C25.47,5,25.55,4.92,25.63,5.05ZM25.17,3.7c-.07.12-.13.15-.19,0S25.11,3.57,25.17,3.7Zm1.54,1.9c.07,0,.14,0,.21,0-.09.14-.1.3-.22.23C26.75,5.77,26.63,5.68,26.71,5.6Zm.54.43a.23.23,0,0,0,.13.13l-.06.08s0,.06,0,.09c-.14-.21,0,.18-.11.24s-.13,0-.18-.14C27.15,6.3,27.16,6.16,27.25,6ZM27,5.24c0,.07.1.15.07.22-.12-.09-.25.15-.37-.12C26.8,5.22,26.87,5.41,27,5.24Zm7.55,13.28c.09.12,0,.23-.07.34a.16.16,0,0,0-.1-.09C34.34,18.65,34.44,18.51,34.51,18.52Zm-4.6-8.17c.09-.08.18,0,.27.11-.09.15-.11.47-.25.27C30,10.57,30.07,10.43,29.91,10.35ZM27.86,6.2c-.1,0-.12-.15-.1-.26-.19.18-.52.07-.61-.26a.44.44,0,0,0,.64,0,.55.55,0,0,0,.05.35c0-.19,0-.2.14-.21s0,.15,0,.22c.06-.23.06-.07.16-.07-.07-.19.09-.21.16-.08s-.12.1-.2.29C27.94,6.07,27.93,6,27.86,6.2ZM26,2.4c.14.19.25-.21.33-.23.1.23-.06.18-.12.41-.05-.17-.11,0-.16.08A.24.24,0,0,1,26,2.4Zm1.88,3a1.74,1.74,0,0,0,.34.16.3.3,0,0,1-.24.11C28,5.63,27.71,5.65,27.83,5.43Zm-.94-2.28c0,.11-.13.32-.2.2S26.83,3.06,26.89,3.15Zm-.14-.86c-.06.16-.12,0-.19.2s.13.06.07.22c-.08-.06-.3,0-.28-.24S26.59,2.14,26.75,2.29Zm1.7,3.62c0,.2.23-.1.18.14C28.56,6.09,28.36,6.16,28.45,5.91Zm-.51-1.62c-.11.06-.21,0-.32.06S27.94,4.08,27.94,4.29ZM27,2.65a.35.35,0,0,0-.06.17c-.06-.09-.26-.06-.23-.23C26.81,2.72,26.92,2.46,27,2.65Zm2.56,3.26a1.66,1.66,0,0,1-.64.12c0,.1.1.2,0,.3,0-.36-.11-.1-.25-.28.1-.16.18-.15.14-.45C29,6.08,29.32,5.71,29.57,5.91Zm6.66,12.7c-.08-.07-.18.18-.26,0S36.25,18.41,36.23,18.61ZM31.8,10.46c.05.13.1.14.16,0,.09.26-.19.55-.33.4C31.79,10.7,31.78,10.69,31.8,10.46ZM27.54,2.78c-.17.08-.32,0-.48,0l.08-.12C27.27,2.74,27.41,2.65,27.54,2.78ZM30,7.34c-.11,0-.36,0-.37-.2C29.71,7.26,30,7,30,7.34Zm-.24-.87c.13.2.28,0,.42.21a.33.33,0,0,1-.51-.09C29.7,6.65,29.73,6.54,29.74,6.47Zm-2-3.76c-.05.07.06.14,0,.21-.07-.09-.14.06-.21-.1S27.69,2.62,27.75,2.71Zm.5.16c-.09.17-.18.14-.27.07C28.07,2.9,28.17,2.77,28.25,2.87Zm1.53,3.05c.16-.18.18,0,.29.24a.45.45,0,0,0-.09.2l-.05-.08A.26.26,0,0,0,29.78,5.92ZM28,2.26c.14.06.29-.12.43.12-.14,0-.11.31-.23.32s0-.39-.09-.35,0,.2-.09.29A.62.62,0,0,1,28,2.26Zm.62.64a.43.43,0,0,1-.11.25c-.07-.21-.14,0-.21-.19l.06-.08C28.43,3.05,28.49,2.85,28.62,2.9Zm2.06,3.18c-.12,0-.48.36-.42,0C30.39,6.24,30.55,5.87,30.68,6.08Zm.78.74c-.08.08-.15.13-.22.07S31.38,6.67,31.46,6.82Zm0-.47c-.16-.1-.58.19-.55-.25C31.11,6.33,31.42,6.1,31.5,6.35Zm.89,1.14c-.07.14-.14.11-.21.06A.11.11,0,0,1,32.39,7.49Zm-.16-.65c.14.37.3.08.44.24-.09.26-.38,0-.56,0C32.19,7,32.13,6.91,32.23,6.84Zm.06-.17c.15.24.18-.31.34-.1-.14.13-.07.1-.14.29C32.41,6.86,32.2,6.9,32.29,6.67Zm.9.16c-.09.16-.17.17-.25.1S33.11,6.6,33.19,6.83ZM31.5,3.51c-.09.22-.18.08-.26.06C31.33,3.53,31.42,3.4,31.5,3.51Zm0-.17c-.06.12-.25.07-.21-.11C31.31,3.35,31.39,3.11,31.46,3.34Zm.38.49c-.05.08.07.18.05.26s-.13.16-.19,0C31.79,4.05,31.7,3.76,31.84,3.83Zm0-.89a.78.78,0,0,0-.09.38c.06-.09.12,0,.18.14-.14.1-.28.35-.4.18C31.73,3.45,31.6,2.72,31.84,2.94Zm2.31,4.68c-.06.18-.23.1-.19-.06C34,7.63,34.09,7.44,34.15,7.62Zm-1.93-4c-.07.11-.13.15-.19,0S32.16,3.48,32.22,3.61Zm1.64,3.05c.12,0,.36-.07.39.16.1-.13.28.11.3-.19l.1.18c-.07.16-.13,0-.14.2-.15-.12-.23-.12-.27.15-.11-.09,0-.17-.05-.26a1.43,1.43,0,0,1-.14.2C33.93,6.85,34.07,6.73,33.86,6.66ZM34.8,7c.14.27-.18.42-.27.24s0-.14,0-.21C34.74,7,34.68,7.33,34.8,7Zm.3-.27c.13.16,0,.31-.09.46,0-.07-.09.07-.13,0C35,6.85,35,7,35.1,6.72Zm.64,1c-.08.07-.17.16-.24,0S35.66,7.63,35.74,7.75ZM43.1,18.38c.07-.08.27-.15.24.06-.07-.11-.16,0-.16.16A.4.4,0,0,1,43.1,18.38ZM37.19,7.18c.15.26-.27.55-.24.19C37.06,7.49,37.05,7.2,37.19,7.18Zm6.34,11.15c.15-.07.43-.21.48.12-.19-.14-.09.21-.17.33a.88.88,0,0,1-.07-.47C43.68,18.51,43.53,18.57,43.53,18.33Zm.82,0c-.07,0-.14.08-.21,0C44.13,18.07,44.46,18.15,44.35,18.35ZM37.22,3.74c-.09.1-.18.09-.27,0C37.05,3.53,37.13,3.64,37.22,3.74Zm.48-.22c.08-.32.13,0,.21,0A.68.68,0,0,1,38,3c.12.19-.17.35,0,.55,0-.07,0-.14.09-.21s.2.16.15.27c-.15-.16-.73.59-.58,0-.11,0-.36.16-.37-.11A.23.23,0,0,1,37.7,3.52Zm.17-.41a.42.42,0,0,1-.4.1C37.61,3.09,37.75,3,37.87,3.11Zm8.26,14.7c.11.12.38-.24.39.07C46.4,17.85,46.16,18.14,46.13,17.81ZM38.36,3c0,.07.1.15.07.22-.13-.14-.19-.11-.24.1C38.11,3.06,38.26,3.05,38.36,3Zm.49.5c0,.17.12-.08.18.14S38.76,3.65,38.85,3.48Zm-.19-1a.24.24,0,0,1,.05.26s-.07-.13-.1-.09-.06.08-.09,0Zm8.8,15.3c0,.07,0,.14-.09.2-.06-.17-.12-.07-.18-.14C47.28,17.77,47.37,17.68,47.46,17.83ZM39.81,3.47c0,.09.11.11.12.14s0-.14,0-.21.18.21.07.39c-.15,0-.29,0-.43-.12C39.72,3.58,39.76,3.47,39.81,3.47ZM47.92,18.2l-.1-.17C47.91,17.84,48.05,18.08,47.92,18.2ZM40.49,3.7c.08-.07.16-.09.24.06-.09.13-.16.1-.24,0S40.52,3.73,40.49,3.7Zm8.62,13.92c.06.06.13,0,.18.14s0,.3-.08.2c.06-.1,0-.21-.08-.13a.42.42,0,0,1,0,.25c0-.08-.1.06-.15-.09C49.1,17.87,49,17.73,49.11,17.62ZM41.3,3.33c.11.1.37-.05.39.16-.07-.07-.16,0-.24,0s.09,0,.13.13-.19.12-.19.29A2.65,2.65,0,0,1,41.3,3.33Zm8.34,14.33c0,.09,0,.19-.09.29C49.5,17.82,49.52,17.52,49.64,17.66ZM41.85,3.59a.63.63,0,0,1,.06.56.19.19,0,0,0-.1-.1C41.87,3.9,41.71,3.73,41.85,3.59Zm8,14.3c-.07.12-.13.16-.19,0S49.82,17.76,49.88,17.89ZM42.2,3.49c-.14,0-.29.09-.43,0,.16,0,.19-.12.3-.11a.13.13,0,0,0,0,.13S42.17,3.4,42.2,3.49Zm.21.18c0,.07,0,.15,0,.22-.16.17-.31.12-.46,0,.09-.11,0-.23.12-.34C42.19,3.64,42.3,3.58,42.41,3.67Zm8.14,14a.45.45,0,0,0-.15.37c-.07-.11-.16,0-.23-.06.15-.26-.08-.17,0-.34C50.3,17.78,50.43,17.56,50.55,17.64ZM42.61,3.22c0,.08,0,.15.07.22s0-.08,0-.12,0,.2,0,.29-.06-.13-.1-.09,0,.11-.06.16l-.07-.13C42.58,3.37,42.56,3.43,42.61,3.22Zm.35.62c.09-.09.18,0,.27,0C43.13,4.07,43,4.1,43,3.84Zm.59-.29c.08,0,.17-.12.24,0s-.14,0-.21.07.05.08,0,.12A.55.55,0,0,1,43.55,3.55Zm.61.35c-.09-.1-.18.05-.27-.11A.15.15,0,0,1,44.16,3.9ZM44.1,4s0,0,.08,0a.24.24,0,0,1,0,.26c0-.06-.09,0-.14-.06S44.08,4,44.1,4Zm.61.08a.26.26,0,0,1-.43.06C44.43,3.94,44.56,4.14,44.71,4.06Zm.09-.46c-.06.3-.22.25-.35.19C44.57,3.61,44.69,3.48,44.8,3.6Zm.65.61c0,.07,0,.14.07.21-.12.15-.23.23-.34,0A.3.3,0,0,0,45.45,4.21ZM47,3.69c-.06.12.09,0,.11.18s-.23,0-.19-.14C47,3.8,47,3.64,47,3.69ZM58,4c.07.07.14,0,.21.18a.41.41,0,0,1-.33.23l-.08-.13C58,4.15,57.92,4.18,58,4Zm.87.28c-.11-.22-.28.13-.23-.23C58.69,4.1,58.89,4,58.86,4.23ZM69,17.2c-.25.29.26.1,0,.51-.09-.19-.06-.2-.18-.23S68.85,17.07,69,17.2Zm-.28.49c0-.05-.07-.13-.1-.09s0,.39-.12.33,0-.2,0-.3c.15,0,.14-.39.28-.4A.5.5,0,0,1,68.69,17.69ZM61.47,4c.08-.11.16,0,.24,0s-.11.1-.19.28C61.43,4.17,61.52,4.09,61.47,4Zm7.9,13.19c.07.15,0,.28,0,.43-.07-.09-.15.16-.21,0S69.29,17.42,69.37,17.19ZM62,4.18c-.12-.1-.1.19-.21.06S62.07,3.89,62,4.18Zm7.43,13.06c.06-.1.11-.09.16,0s-.06.17-.11.16S69.49,17.3,69.45,17.24Zm.39-13.78c-.09-.14-.2.13-.29,0C69.64,3.26,69.85,3.25,69.84,3.46Zm.43,0c-.13,0-.27.07-.4-.07C70,3.18,70.14,3.18,70.27,3.41Zm.19-.2-.11.17-.08-.14C70.34,3.07,70.4,3.18,70.46,3.21Zm8.4,7.2a.41.41,0,0,1-.06.42c-.13.1-.32.08-.52.25,0-.05-.07-.12,0-.17A2.05,2.05,0,0,1,78.86,10.41Zm.72,0a.42.42,0,0,1,0,.26c-.18,0-.37.17-.54.13C79.25,10.65,79.42,10.58,79.58,10.42ZM75.32,2.66c0,.16-.23.32-.33.23C75.11,2.67,75.21,2.7,75.32,2.66Zm5.07,7.4c-.24.21-.44.29-.55.63a1,1,0,0,1-.1-.17C79.9,10.43,80.09,9.88,80.39,10.06ZM77.22,1.44c0-.07.09-.11.14-.11.13.21-.1.39.08.6-.1,0-.2.22-.29,0C77.32,2,77.38,1.68,77.22,1.44Zm5.13,8.86c.08.11,0,.22,0,.33-.06-.06-.13,0-.18-.14S82.28,10.45,82.35,10.3Zm-1-3.52c.07,0,.13-.24.17-.33.11.09,0,.17,0,.26s0,0,.08,0c-.13,0-.25,0-.2.28C81.4,7,81.36,6.89,81.37,6.78Zm-1-4.11c-.06-.13-.13.12-.18-.06S80.45,2.51,80.4,2.67Zm.74.06c-.13.12-.27.24-.4.09C80.87,2.82,81,2.57,81.14,2.73Zm.53.12c-.07.08-.14.16-.21,0S81.6,2.74,81.67,2.85Zm0-.85c.07.14.1.14.11,0,.12.15-.12.31-.16.16A.28.28,0,0,0,81.64,2Zm4.71,1.85a.23.23,0,0,1-.22.24C86.13,4,86.28,3.72,86.35,3.85Z"/><path class="cls-3" d="M23.91,2.11c0,.08.07.05,0,.13.31-.38.59-.05.89-.23a1,1,0,0,0-.74-.14c0,.06,0,.12.05.18S24,2.15,23.91,2.11Z"/><path class="cls-3" d="M5.58,16.11c.09.12.18-.07.27-.06C5.76,16,5.67,15.94,5.58,16.11Z"/><path class="cls-3" d="M10.39,15.47c-.07.06-.06.13-.09.2s.09-.06.14-.12a.41.41,0,0,0,.05.18C10.56,15.57,10.46,15.56,10.39,15.47Z"/><path class="cls-3" d="M6.57,8.92c-.11.05.17.05.15.27a.7.7,0,0,0,0-.29C6.64,8.76,6.68,9.06,6.57,8.92Z"/><path class="cls-3" d="M8.25,11.6a.2.2,0,0,0,0,.26c0-.11.07-.15.13-.12S8.27,11.67,8.25,11.6Z"/><path class="cls-3" d="M8,10.56c0-.07,0-.14,0-.21a.54.54,0,0,0-.12.24c0,.08.11-.1.16,0C8,10.55,8,10.54,8,10.56Z"/><path class="cls-3" d="M11.62,16.84c.1.2.07-.11.12-.17s0,.14.1.18c.15-.24.29-.17.42-.05,0-.08,0-.17.07-.25a.44.44,0,0,1-.56,0C11.7,16.74,11.63,16.69,11.62,16.84Z"/><path class="cls-3" d="M7.72,9.52c.33,0,.54.05.86-.18,0-.09-.11-.05-.08-.14s-.07.06-.18.11c0-.21-.4-.07-.29-.23C8,8.92,7.78,9.32,7.72,9.52Z"/><path class="cls-3" d="M13,18.34c.07.17.38.17.56.09C13.36,18.41,13.18,18.36,13,18.34Z"/><path class="cls-3" d="M4.36,2.17c0,.15-.1.07-.17.24.17.1.16-.05.24-.11S4.39,2.26,4.36,2.17Z"/><path class="cls-3" d="M8.41,9.58c.1,0,.2.07.3-.11C8.62,9.27,8.51,9.54,8.41,9.58Z"/><path class="cls-3" d="M12.71,16.07c-.07.06,0,.14,0,.21s.12,0,.19,0S12.74,16.3,12.71,16.07Z"/><path class="cls-3" d="M7,4.63s0-.09,0-.13.1,0,.16-.16c-.1-.07-.2-.16-.32.06C6.94,4.5,7,4.39,7,4.63Z"/><path class="cls-3" d="M9.92,7.32c.14-.11.11.1.26.1.07-.19.06-.2.12-.33C10.18,7.2,10,7.16,9.92,7.32Z"/><path class="cls-3" d="M15.69,16.94c0-.16.14-.06.12-.25s-.13.12-.19-.05c0,.17-.13.25,0,.5.07-.08.14-.12.21-.06C15.88,17,15.72,17,15.69,16.94Z"/><path class="cls-3" d="M16.17,17.14c.11.15.25-.16.36.12.09-.16-.07-.12,0-.22C16.4,17.08,16.28,17.05,16.17,17.14Z"/><path class="cls-3" d="M16.73,17c-.05-.08,0-.15-.07-.22a.35.35,0,0,1-.45-.08c0,.36.28.09.38.41.1-.21.18-.06.26.11.16-.06.17-.16.31-.28-.06,0-.11-.05-.16-.09S17,17,17,17s-.06,0-.08,0,.06-.16-.05-.26S16.74,16.86,16.73,17Z"/><path class="cls-3" d="M9.79.21c0,.06,0,.07,0,.05s.08.12,0,.17S10,.37,10,.31,9.86.25,9.79.21Z"/><path class="cls-3" d="M12.33,1.56c-.05.1.34.35.47.12,0,0-.21.1-.15-.1C12.54,1.47,12.43,1.78,12.33,1.56Z"/><path class="cls-3" d="M13.66,2.3c.11.08.15.4.32.19,0-.34-.3-.07-.26-.44C13.6,2.12,13.78,2.22,13.66,2.3Z"/><path class="cls-3" d="M18.7,9c-.06.16.1.07.13.13s0-.18.08-.12,0,0,0-.08a.41.41,0,0,0-.05-.09c0,.06-.13.3-.08.12S18.75,9.09,18.7,9Z"/><path class="cls-3" d="M16.65,2.91c0,.16.23.13.31.19a.72.72,0,0,0,.25.53,3.8,3.8,0,0,0-.11-.73c0,.43-.16-.07-.34-.07C16.75,2.94,16.72,3,16.65,2.91Z"/><path class="cls-3" d="M17.5,3.78c0,.18.3.12.42.21.09-.15-.18-.09-.1-.27C17.77,3.77,17.62,3.92,17.5,3.78Z"/><path class="cls-3" d="M17.26,3.08c-.11.1,0,.15,0,.09a.29.29,0,0,1,0,.22s.09,0,.13,0-.08-.36.08-.12c0-.07,0-.15-.07-.22C17.4,3.2,17.32,3.19,17.26,3.08Z"/><path class="cls-3" d="M18.6,3.4s-.08,0-.13,0,0,.2-.09.29C18.47,3.63,18.48,3.53,18.6,3.4Z"/><path class="cls-3" d="M19.83,1.63c0,.15,0,0-.11.16.1.11-.07.19.07.3L19.87,2c-.05-.12-.09-.24.06-.17C20,1.69,19.85,1.78,19.83,1.63Z"/><path class="cls-3" d="M21.7,4.75c-.06-.06,0,.11,0,0a.37.37,0,0,1-.06.25c.08.06.2-.23.11-.33S21.73,4.77,21.7,4.75Z"/><path class="cls-3" d="M24.62,10.24s0,0,0,0,.15.23.24,0c-.08-.21-.18-.06-.26-.1S24.66,10.18,24.62,10.24Z"/><path class="cls-3" d="M22.68,1.55c-.1-.18-.21-.18-.32-.11.12.25.24.18.36.37.07-.3.25-.12.38-.23C23.08,1.6,22.71,1.31,22.68,1.55Z"/><path class="cls-3" d="M23,1.87c.14,0,.29-.15.43,0,0-.48.41.13.61-.08,0-.07-.05-.15,0-.22s-.24.24-.34-.07c-.17.16-.34,0-.51,0s0,.14.08.22S23.1,1.68,23,1.87Z"/><path class="cls-3" d="M22.75.88a.46.46,0,0,0,.76.27C23.27,1.1,22.9,1.27,22.75.88Z"/><path class="cls-3" d="M24.73,1.5a1,1,0,0,0,.31.11C25.05,1.43,24.82,1.46,24.73,1.5Z"/><path class="cls-3" d="M26.16,1.78A1.07,1.07,0,0,0,27,2c-.1-.25-.22,0-.25-.28,0,.31-.22-.06-.33.15-.09-.13.09-.3-.07-.3C26.37,1.76,26.29,1.81,26.16,1.78Z"/><path class="cls-3" d="M26.12,1.35c0,.23.22,0,.31.11.06-.16-.1-.06-.12-.22C26.21,1.41,26.23,1.46,26.12,1.35Z"/><path class="cls-3" d="M27,2a.7.7,0,0,0,.55.17C27.51,1.61,27.2,1.9,27,2Z"/><path class="cls-3" d="M29.88,2.53c.08.05.16,0,.3,0l-.08-.13C30,2.58,30,2.39,29.88,2.53Z"/><path class="cls-3" d="M31.42,2l-.17.24c.13.07.14-.27.3-.11C31.6,2.05,31.45,2.08,31.42,2Z"/><path class="cls-3" d="M33,2.3c0,.41.16-.2.29.24a.37.37,0,0,1,0-.17C33.19,2.17,33.06,2.34,33,2.3Z"/><path class="cls-3" d="M35.48,2.37c-.07-.05,0,.11,0,0,0,.1,0,.19,0,.29s.18-.17.26,0c.12-.41.26-.13.41-.18s-.06-.17.06-.25c-.16.1-.3-.09-.46.09-.05-.07,0-.14-.07-.21A.19.19,0,0,1,35.48,2.37Z"/><path class="cls-3" d="M39.8,2.83c.13.21.29-.21.42,0,0-.07,0-.15-.07-.22C40,2.9,39.92,2.58,39.8,2.83Z"/><path class="cls-3" d="M42.59,2.75c0,.17.34.2.35.07S42.71,2.87,42.59,2.75Z"/><path class="cls-3" d="M45.22,3.81a2.05,2.05,0,0,0,.07-.34c-.07-.06-.15,0-.22.07s.11,0,.16,0S45.06,3.63,45.22,3.81Z"/><path class="cls-3" d="M55.48,3.37c0,.23.19.07.26.19,0,0,0-.05,0-.08l-.05-.09C55.62,3.51,55.55,3.36,55.48,3.37Z"/><path class="cls-3" d="M64.53,18.94c.15,0,.3,0,.45.08.07-.25.26-.12.4-.1s0-.09,0-.13,0-.05,0-.08C65.12,18.87,64.83,18.76,64.53,18.94Z"/><path class="cls-3" d="M71,2c.15-.1,0-.22.12-.33,0,0-.05,0-.08-.05L71,1.73C71.12,1.84,70.87,1.92,71,2Z"/><path class="cls-3" d="M72.19,2.33c.14.25,0-.33.14-.2,0-.15-.12-.16-.16,0A.16.16,0,0,1,72.19,2.33Z"/></g></g></svg>