<svg xmlns="http://www.w3.org/2000/svg" viewBox="0 0 587.35 1356.3"><defs><style>.cls-1{fill:#542922;}.cls-2{fill:#63352c;}.cls-3{fill:#b67163;}.cls-4{fill:#d7917f;}.cls-5{fill:#bf7563;}.cls-6{fill:#fff;}.cls-7{fill:#604437;}.cls-12,.cls-14,.cls-17,.cls-21,.cls-8{fill:none;}.cls-8{stroke:#602e26;stroke-width:5.03px;}.cls-12,.cls-16,.cls-17,.cls-21,.cls-8{stroke-miterlimit:10;}.cls-9{fill:#a8d6f2;}.cls-10{fill:#3d3b3a;}.cls-11{fill:#232321;}.cls-12,.cls-16,.cls-17{stroke:#ffc612;}.cls-12,.cls-16{stroke-width:0.82px;}.cls-13{fill:#4c2c29;}.cls-15{fill:#6b3631;}.cls-16{fill:#2d2c2b;}.cls-17{stroke-width:0.73px;}.cls-18{fill:#5b2925;}.cls-19{fill:#e02d2a;}.cls-20{fill:#725250;}.cls-21{stroke:#6c4341;stroke-width:5.17px;}.cls-22{fill:#ffc612;}.cls-23{fill:#492925;}.cls-24{fill:#4c2625;opacity:0.25;}.cls-25{fill:#bc3433;}</style></defs><g id="Layer_2" data-name="Layer 2"><g id="Layer_2-2" data-name="Layer 2"><path class="cls-1" d="M264.15,76.26c-1.72.26-25.33-20.56-32.27-35.77,0,0,25.82-19.3,41.61-19.3,0,0,13.46-25.75,42.7-20.48,0,0,5.27,48.13-6.43,75.55L287.34,89.05Z"/><path class="cls-2" d="M200,100.12c-1.19.83-43.87,7.65-79.55,48s-53.82,26.91-53.82,26.91,18.14,15.21,43.29-.58c0,0-18.72,26.91-23.4,73.71S52,295.57,52,295.57s26.32,7,38-7.61c0,0-11.7,33.94,21.06,64.36s39.19,39.19,35.1,62.6c0,0,14-4.68,21.64-36.86Z"/><path class="cls-2" d="M383.08,100.12c1.19.83,42.46,7.65,78.14,48S515,175.05,515,175.05s-18.13,15.21-43.28-.58c0,0,18.72,26.91,23.4,73.71s34.51,47.39,34.51,47.39-26.32,7-38-7.61c0,0,11.7,33.94-21.06,64.36s-39.19,39.19-35.1,62.6c0,0-14-4.68-21.64-36.86Z"/><path class="cls-2" d="M186.54,431.68s20.47,23.4,21.64,48c0,0,11.12-10.53,11.12-24,0,0,19.88,20.46,15.79,42.41,0,0,14-14.33,14-26.62Z"/><path class="cls-2" d="M395.59,434.8s-20.47,23.4-21.64,48c0,0-11.11-10.53-11.11-24,0,0-19.89,20.47-15.8,42.41,0,0-14-14.32-14-26.61Z"/><rect class="cls-3" x="269.97" y="458.96" width="47.38" height="65.76"/><path class="cls-4" d="M398.61,159.54l-111.55,4.11-108.13,1.61-50,79s39.1,171.85,45,181.33,78.21,65.91,119.68,64.72c41.48,1.19,113.76-55.24,119.69-64.72s45-181.33,45-181.33Z"/><path class="cls-5" d="M440.63,320.86c.41-1.75,27-20.42,27,12.57s-29,43.4-36.72,27.84Z"/><path class="cls-5" d="M146.86,320.86c-.42-1.75-27-20.42-27,12.57s29,43.4,36.72,27.84Z"/><path class="cls-2" d="M394.37,180.41a20.81,20.81,0,0,1-3.28,1.69,28.09,28.09,0,0,1-11,2,37.68,37.68,0,0,1-11-1.72,44.19,44.19,0,0,1-4.94,3.76c-15,10-31.68,7.92-43.49,4.16a72.3,72.3,0,0,1-15.62-7,56.32,56.32,0,0,1-10.4,8.07A43.29,43.29,0,0,1,270,197.62h0a52.27,52.27,0,0,1-26.36-9.08,30.83,30.83,0,0,1-12,4.66,18.45,18.45,0,0,1-11.53-2l0,0a15.09,15.09,0,0,1-4.55-3.57c-7.09,7.4-13.83,9.92-19.56,10.12h0a23.3,23.3,0,0,1-10.77-2.31v0a23.7,23.7,0,0,1-5.85-3.81c0-.06-.06-.1-.09-.17-5.48-10.73-8.85-20.47-10.48-29.33-5.53-29.94,8.81-49.72,28.43-62.71l.07,0c10.9-7.2,23.38-12.32,35-15.93,1.11-.35,2.2-.67,3.27-1,7.87-2.28,15.22-3.89,21.25-5,1.44-.26,2.79-.5,4.05-.7,6.81-1.13,11.16-1.5,11.42-1.54a155.09,155.09,0,0,1,30.76-.57c3,.24,5.85.57,8.59.94a142.19,142.19,0,0,1,33,8.55l0,0a80.1,80.1,0,0,1,9.2,4.22,40.69,40.69,0,0,1,7-.28C367.61,88.33,378,90,387.22,97c9,6.94,17,19.06,19.21,40.17.1,1.13.21,2.24.3,3.3C408.62,164.22,402.34,175.42,394.37,180.41Z"/><path class="cls-2" d="M389.4,179.56s53.2,77.08,51.23,141.3L472,237.07,409.4,142.29l-15.79-10.53Z"/><path class="cls-2" d="M181.85,187.91s-.15.18-.41.53c-.42.56-1.16,1.56-2.14,3-.47.72-1,1.52-1.61,2.46-9.44,14.88-31.67,57.4-30.82,126.94l-37.55-48.11,15.21-84.25L157.27,169l11.55-6.88,4.35-2.59.11.37Z"/><path class="cls-2" d="M236.26,193.19s-37.44,11.7-12.87,39.78C223.39,233,217.54,209,236.26,193.19Z"/><path class="cls-2" d="M336.57,193.19S374,204.89,349.44,233C349.44,233,355.29,209,336.57,193.19Z"/><ellipse class="cls-6" cx="221.91" cy="337.82" rx="37.56" ry="37.56"/><ellipse class="cls-6" cx="366.53" cy="333.83" rx="37.56" ry="37.56"/><ellipse class="cls-7" cx="229.84" cy="334.22" rx="12.57" ry="14.96"/><ellipse class="cls-7" cx="359.9" cy="333.83" rx="12.9" ry="15.34"/><path class="cls-8" d="M180.53,288.77c1.28-.42,27.74-9.81,66.58-7.68"/><path class="cls-8" d="M399.83,284.77c-1.29-.42-27.75-9.81-66.59-7.68"/><ellipse class="cls-6" cx="213.8" cy="333.95" rx="8.13" ry="3.21"/><ellipse class="cls-6" cx="344.16" cy="333.95" rx="8.13" ry="3.21"/><path class="cls-4" d="M310.75,498.08H279.17C265,501.54,173,548,173,548s31,253.7,53.1,292.43H363.85C386,801.73,417,548,417,548S324.88,501.54,310.75,498.08Z"/><path class="cls-4" d="M89,701.33l40.83,27.33c32.88-51.19,63.06-101.23,74.53-128.86L172.86,548S132.4,622.16,89,701.33Z"/><path class="cls-4" d="M13.3,467.56C2.76,472.43-1.44,494.38.43,502.76S8.75,521,9.9,524.45c2.09,6.38,4.65,14.19,7.63,23.16h0c8.28,25,19.68,58.93,32.29,95,2.66,7.58,5.37,15.27,8.11,23,3.73,10.47,7.53,21,11.34,31.45l46.46-16q-2.66-6-5.34-12C88.14,619.22,65.66,568.59,50,532.89l-.05-.07c-1.33-3.05-2.62-6-3.85-8.79l0,0a85.82,85.82,0,0,1,7.14-16.37c4.22-6.83,5.46-12.56-.57-15.91s-9.42,6.82-11.48,6.46-6.52-7.13-9.19-17S23.85,462.66,13.3,467.56Z"/><path class="cls-9" d="M49.94,532.82s65.86,107.26,74.74,136.66c0,0-66.05-.79-87.78-7.8L17.52,547.62Z"/><path class="cls-4" d="M498.36,701.33l-40.84,27.33C424.65,677.47,394.46,627.43,383,599.8L414.49,548S455,622.16,498.36,701.33Z"/><path class="cls-4" d="M518.09,697.09s-32.25,76.57-60.57,31.57l14.1-36,26.74-16.89Z"/><path class="cls-10" d="M270,498.08,183.51,627.26S205,792.15,217.31,812.1L376,813s34.38-149.1,33.73-187.43L317.35,498.08Z"/><path class="cls-11" d="M240.93,541.64S286,557,348.06,540.43l-30.71-42.35H270Z"/><line class="cls-12" x1="276.97" y1="750.09" x2="189.04" y2="665.32"/><polygon class="cls-12" points="281.77 672.28 292.37 772.41 315.45 772.41 323.17 669.27 303.32 682.16 281.77 672.28"/><polyline class="cls-12" points="183.51 627.26 303.32 682.16 401.23 618.6"/><path class="cls-13" d="M129.58,1222.64s130.65-169.67,323.87,0c0,0-3.57-189.41-47.05-283.41L298.16,881.49,185.68,966.91S123.73,1140.73,129.58,1222.64Z"/><path class="cls-14" d="M170.87,1218a767.1,767.1,0,0,1-5.1-135.49H269.19"/><path class="cls-14" d="M414.85,1221.47c-8.36,15.21-41.16,21.07-41.16,21.07l-47.3-5.85c-22-9.34-16.65-39.79-16.65-39.79,2.73-15.27,7.44-65.35,11.7-114.44H414C416.17,1159.21,414.85,1221.47,414.85,1221.47Z"/><path class="cls-10" d="M321.44,1082.46c4.87-56.14,9.15-111,9.15-111H265c-.79,25.2,1.33,68.3,4.18,111H165.77C173,929.9,219.52,813,219.52,813H376c26.07,42.2,35,168.41,37.94,269.49Z"/><path class="cls-10" d="M269.19,1082.46c4.26,64.13,10.14,127.31,10.14,127.31a94.16,94.16,0,0,1-20.58,26.87l-47.31,5.9c-31.6-8.2-40.57-24.59-40.57-24.59a767.1,767.1,0,0,1-5.1-135.49Z"/><path class="cls-10" d="M414.85,1221.47c-8.36,15.21-41.16,21.07-41.16,21.07l-47.3-5.85c-22-9.34-16.65-39.79-16.65-39.79,2.73-15.27,7.44-65.35,11.7-114.44H414C416.17,1159.21,414.85,1221.47,414.85,1221.47Z"/><path class="cls-15" d="M326.9,837.46H267.17s-32.12,210.17-5.21,319c0,0,26,20.33,59.73,0C348.6,1047.63,326.9,837.46,326.9,837.46Z"/><path class="cls-15" d="M262,888.27c-.14,1.58-112.5,154.17-132.38,334.37,0,0-14.84-241.82,89.95-409.66L267,840.46Z"/><path class="cls-15" d="M331.49,888.27c.14,1.58,102.07,154.17,122,334.37,0,0,25.25-241.82-79.53-409.66l-47.46,27.48Z"/><ellipse class="cls-12" cx="303.32" cy="618.6" rx="44.74" ry="44.75"/><ellipse class="cls-16" cx="303.32" cy="618.6" rx="30.43" ry="30.44"/><line class="cls-12" x1="272.89" y1="618.6" x2="333.76" y2="618.6"/><path class="cls-15" d="M203,807S356.35,623,385.37,524.72l23.28,10.41,76.63,80.7s-56.5,174.95-101.68,197l-98.74,44L215,831.4Z"/><path class="cls-17" d="M234.36,815.47S399.61,628.55,417,543.75"/><path class="cls-17" d="M336.41,817.36S456,660.19,468.89,598.57"/><line class="cls-17" x1="383.38" y1="617.99" x2="437.32" y2="668.32"/><line class="cls-17" x1="345.34" y1="676.75" x2="399" y2="729.3"/><line class="cls-17" x1="305.97" y1="728.9" x2="361.58" y2="784.34"/><path class="cls-4" d="M574,467.56c10.55,4.87,14.75,26.82,12.87,35.2s-8.31,18.2-9.47,21.69c-2.08,6.38-4.64,14.19-7.62,23.16h0c-8.29,25-19.68,58.93-32.3,95-2.66,7.58-5.36,15.27-8.11,23-3.72,10.47-7.52,21-11.33,31.45l-46.47-16q2.67-6,5.35-12c22.24-49.92,44.71-100.55,60.38-136.25a.21.21,0,0,0,0-.07c1.34-3.05,2.63-6,3.86-8.79l0,0a85.82,85.82,0,0,0-7.14-16.37c-4.22-6.83-5.46-12.56.57-15.91s9.42,6.82,11.48,6.46,6.52-7.13,9.19-17S563.49,462.66,574,467.56Z"/><path class="cls-9" d="M537.41,532.82s-65.86,107.26-74.74,136.66c0,0,66.05-.79,87.78-7.8l19.38-114.06Z"/><path class="cls-18" d="M242.54,848s55.63,63.26,90.8,78.86V892.4Z"/><path class="cls-18" d="M349.61,919s7.92,14.28,10.12,18.43c0,0,53.83,34.16,76.52,33.37l-3.72-18.38S373.92,928.84,349.61,919Z"/><path class="cls-19" d="M432.53,952.44S241.65,887.29,219.88,812.29c-.33-1.13-.63-2.26-.87-3.39-.18-.77-.33-1.55-.46-2.31s-.2-1.24-.28-1.87c0,0,97.57,12,177,0,0,0,9.08,11.77,9.51,40.93q.11,5.58-.28,12s28.52,23.45,37.07,41.79l.06.09a28.79,28.79,0,0,1,1.46,3.74C448.91,922,432.53,952.44,432.53,952.44Z"/><path class="cls-19" d="M218.27,804.73s-31.41-8.51-49.54,48.83c0,0-5.85,9.36-11.12,11.7C157.61,865.26,235.63,872.31,218.27,804.73Z"/><path class="cls-19" d="M218.27,804.73s-13.86-32.49-60.66-19c0,0-13.45,4.68-19.3,1.76C138.31,787.45,153.16,836,218.27,804.73Z"/><path class="cls-20" d="M211.45,1242.53l47.3-5.88s5.32,99.62,8.27,111.84c0,0-14.75,7.67-34.86,0C232.16,1348.49,219,1288.58,211.45,1242.53Z"/><path class="cls-20" d="M326.39,1236.69l47.3,5.84s-15.49,92-20.71,106c0,0-16.53,8.84-34.86,0Z"/><path class="cls-21" d="M226.62,519.94s63,45.28,133.66-1.75"/><path class="cls-22" d="M242.18,529.57s6.8-2.69,9.66,3.9l-11.66,15.37Z"/><path class="cls-22" d="M266.65,537.71s6-4.24,10.32,1.47l-7.64,17.71Z"/><path class="cls-22" d="M343.42,529.41s-6.8-2.69-9.66,3.9l11.65,15.37Z"/><path class="cls-22" d="M318.21,537s-6-4.24-10.32,1.48l7.64,17.71Z"/><path class="cls-22" d="M222.12,1248.14s4.56-5.73,10.32-1.44L230,1265.83Z"/><path class="cls-22" d="M238.5,1245.56s4.55-5.72,10.32-1.44l-2.44,19.14Z"/><path class="cls-22" d="M362.59,1248.14s-4.55-5.73-10.32-1.44l2.44,19.13Z"/><path class="cls-22" d="M346.21,1245.56s-4.55-5.72-10.32-1.44l2.44,19.14Z"/><polygon class="cls-20" points="228.82 1332.18 216.85 1356.3 269.73 1356.3 261.92 1290.19 228.82 1332.18"/><polygon class="cls-20" points="355.52 1332.18 367.49 1356.3 314.62 1356.3 322.42 1290.19 355.52 1332.18"/><path class="cls-4" d="M69.26,697.09s32.25,76.57,60.56,31.57l-14.1-36L89,675.74Z"/><path class="cls-6" d="M266.65,403.34h51.56s-10.32,16.52-25.78,16.33C277.64,419.49,266.65,403.34,266.65,403.34Z"/><path class="cls-23" d="M243.66,188.54s-21.22-25.43-4.32-52.57C239.34,136,233.71,172.53,243.66,188.54Z"/><path class="cls-23" d="M179.3,191.46s-51.56-34,13.25-88.7C192.55,102.76,110.26,156.59,179.3,191.46Z"/><path class="cls-23" d="M215.59,187.65S189,163.86,208.93,136C208.93,136,197.1,155.73,215.59,187.65Z"/><path class="cls-23" d="M305.09,183.28s23-25.65,0-74.45C305.09,108.83,318.29,147.36,305.09,183.28Z"/><path class="cls-23" d="M353.93,88.39s39.52,46.67,15.21,94C369.14,182.39,407.71,135.9,353.93,88.39Z"/><path class="cls-23" d="M391.09,182.1s40.15-18.83,2.58-78.9C393.67,103.2,442.25,169.73,391.09,182.1Z"/><path class="cls-23" d="M90,288s19.08-14,22.78-34.51Z"/><path class="cls-23" d="M491.64,288s-17.21-24.3-19.65-50.89C472,237.07,472.45,278.89,491.64,288Z"/><path class="cls-24" d="M212.06,795.83s4,5.2,6.21,8.89c0,0,118.52,11.89,177,0,0,0,30.37-32.8,55.44-97,0,0-105.86,17.27-173.71,3.7C277,711.41,224,784,212.06,795.83Z"/><path class="cls-25" d="M219.88,812.29s122.5,74.76,197.07,56.6c0,0-7.27-6.47-12.48-11.23,0,0,.45-9.63.23-14.15C404.7,843.51,341.2,869.67,219.88,812.29Z"/><path class="cls-25" d="M209,804.72A42.59,42.59,0,0,1,173,798.84S201.93,790.89,209,804.72Z"/><path class="cls-25" d="M212.06,810s-21,15.87-21.06,32C191,842,219,840.31,212.06,810Z"/><path class="cls-11" d="M223.17,950.92l-58.35,179.41s-2.42-35.16,0-53.39C164.82,1076.94,203.35,982.18,223.17,950.92Z"/><path class="cls-11" d="M365.14,947.72s46.67,156.32,49.78,179.6c0,0-.08-66.09-.94-68.47S382.56,978.66,365.14,947.72Z"/></g></g></svg>