<svg xmlns="http://www.w3.org/2000/svg" viewBox="0 0 63.89 73.12"><defs><style>.cls-1{fill:#fff;}</style></defs><g id="Layer_2" data-name="Layer 2"><g id="Layer_1-2" data-name="Layer 1"><path class="cls-1" d="M61.37,37l-1.92-1.56,2.4,2.76-3,2.64-.84-1-20.49,23,1.56,1.56-3.36,3.72-1.44-1.44-.6.72,1.92,1.79-3.36,3.84-10-9.71.72-.72L7.43,49.62l1.08-1.19L6.59,46.51l21-21.46L30,27.33l.48-.24.95,1-2.27,2.28,2.76-1.68,2,2-2.4,2,1,1-12.58,12L30.69,56.34,50.7,35,31.89,13.67l-26.74,24L1.8,33.93l.6-.6L0,30.69,32.6,0l2.28,2.4.72-.48,1,1.08-1.8,1.56.36.24,1.8-1.2,2,2.16L37.28,7.07,63.89,34.64Z"/></g></g></svg>