<svg xmlns="http://www.w3.org/2000/svg" viewBox="0 0 58.48 72.29"><defs><style>.cls-1{fill:#fff;}</style></defs><g id="Layer_2" data-name="Layer 2"><g id="Layer_1-2" data-name="Layer 1"><path class="cls-1" d="M56.59,29.32C46,20,35.35,10.66,24.85,1.2c-2-1.76-2.66-1.61-3.88.63Q11,20,.69,37.87c-1.17,2-.83,3.23.85,4.73Q17.31,56.75,32.93,71.14c2,1.87,2.79,1.35,3.9-.81,2-3.85,4.27-7.55,6.37-11.31,4.94-8.74,9.85-17.51,14.94-26.6C59.19,30.92,57.57,30.2,56.59,29.32ZM39.15,37c-2.39,4.14-4.73,8.3-7.32,12.88-2.81-4.27-5.42-8.28-8-12.25a1.94,1.94,0,0,1,.2-2.25c1.72-3.06,3.53-6.09,5.15-9.2.67-1.24,1.21-1.21,2.05-.28,2.59,2.84,5.18,5.71,7.8,8.56A1.94,1.94,0,0,1,39.15,37Z"/></g></g></svg>