<svg xmlns="http://www.w3.org/2000/svg" viewBox="0 0 20.1 25.03"><defs><style>.cls-1{fill:#fefbf8;}</style></defs><g id="Layer_2" data-name="Layer 2"><g id="Layer_5" data-name="Layer 5"><path class="cls-1" d="M12.51,17l.16-.21Z"/><path class="cls-1" d="M13.33,15.5l.1-.07Z"/><path class="cls-1" d="M12.59,17.9l0,.06,0,.06Z"/><path class="cls-1" d="M15,14.28h0S15,14.28,15,14.28Z"/><path class="cls-1" d="M13.81,15.06l-.17,0Z"/><path class="cls-1" d="M11.45,23.46l0-.38A1,1,0,0,0,11.45,23.46Z"/><path class="cls-1" d="M13.49,22.13v-.08S13.49,22.11,13.49,22.13Z"/><path class="cls-1" d="M12.93,20.6l0,.17S12.92,20.76,12.93,20.6Z"/><path class="cls-1" d="M12.86,20.86l0-.09S12.87,20.79,12.86,20.86Z"/><path class="cls-1" d="M8.3,10.34s.2.19.38.34Z"/><path class="cls-1" d="M15.47,12.45l.15,0Z"/><path class="cls-1" d="M11.08,12.13l-.08,0C11.06,12.14,11.08,12.14,11.08,12.13Z"/><path class="cls-1" d="M10,24.06c-.2.32-.15-.14-.3.19C9.83,24.22,9.82,24.52,10,24.06Z"/><path class="cls-1" d="M2.19,7.68v0A0,0,0,0,0,2.19,7.68Z"/><path class="cls-1" d="M11.08,12.13l.09,0L11,12.07S11.08,12.12,11.08,12.13Z"/><polygon class="cls-1" points="11.69 10.01 11.69 10.01 11.69 10.01 11.69 10.01"/><path class="cls-1" d="M11.64,9.86v0Z"/><path class="cls-1" d="M8.68,10.68l.23.2A2,2,0,0,0,8.68,10.68Z"/><path class="cls-1" d="M11.29,9.67h0Z"/><path class="cls-1" d="M13.61,15.16l-.07,0Z"/><polygon class="cls-1" points="3.67 16.03 3.67 16.02 3.66 16.03 3.67 16.03"/><path class="cls-1" d="M4.14,16.09C4.22,16,4,16,3.67,16,3.67,16.07,3.76,16.09,4.14,16.09Z"/><path class="cls-1" d="M3.82,15.74h0Z"/><path class="cls-1" d="M3.68,18.52h0Z"/><path class="cls-1" d="M3.45,18a.5.5,0,0,0,.15-.08Z"/><polygon class="cls-1" points="2.69 14.56 2.71 14.56 2.71 14.56 2.69 14.56"/><path class="cls-1" d="M.44,9.7c.12.49.76,1.18.48,1.59.75.21.75.35.9.52l-1-.12.31.16c-.31,0-.18-.11-.57-.07l.62.12c-.36,0-.28.29-1,0l-.06.51c0,.11.84.14.58.24s-.2-.06-.57-.08c-.78.33,1.95.58,1.46.87l-.13,0c.27.07.23.18.37.18,1,0-.55-.08.06-.16.87.05.46.15,1.12.17-.32.06.18.12.23.19-.55.1-.17.26-.85.34.27.06,1.13.12,1.16.24-.68.09-.65,0-.9.1h.5c-.07.1-.21.09-.45.09,0,.11.69.07.37.21l-.49-.06c.2.09.11.13.08.27-.29,0-.28,0-.19-.09-.75.11.32.12.24.16a2.89,2.89,0,0,1,.81-.1c-.08.07.69.1.1.18l-.49,0c.4.11.63,0,.45.2,0,0-.16,0-.27,0,.65,0,.08.23.05.39l-.14,0c.18.05.63,0,.59.07a2.94,2.94,0,0,1,.91-.17c-.81.2,1,0,.51.27-.29,0-.64,0-.34-.05a11.72,11.72,0,0,1-2,.05c.2.05.33.12,0,.15l.79-.08s0,.08,0,.12a5.46,5.46,0,0,1,1.14-.14c.27.06-.8.16-.44.13s.85-.06.61.11c-.07,0-.21,0-.14,0-.3.14.18.21-.76.4-.21,0-.49.07-.42,0l.14,0c-.7,0,.21.07-.65.18.51-.1.42.07.34.16l.57-.13c1.76-.12-1.14.21-.87.4s.15-.09.57-.09c-.09.12-.58.27-.3.36a5.26,5.26,0,0,1-1.13.42c.28,0-.21.38.42.26.49-.3-.71,0,.07-.39l.63-.1c0,.13.35.2.15.35A2.46,2.46,0,0,1,4,17.78c.28.11.9,0,.76.18-.55.2-.48.07-.55,0-.41.24,0,.12-.13.34-.48.17,0-.12-.49,0l.22.14-.1,0c.81-.25,0,.17.26.2.1.28,1.18-.1,1.86-.23a2.44,2.44,0,0,1-.59.28c.32-.21,0-.08-.17,0,.12.05-.68.53-1,.62.3.06.39-.24.68-.25l0,.23c.38-.21.44-.31.79-.36.14,0,.08.11.1.23-.2.08-.57.33-.59.23-.12.13-.09.23.3.06s.43,0,1-.39l-.3.3s-.26.11-.2,0c-.57.35.21,0,.28,0-.09.1-.08.23-.3.37.18-.06.1.1-.18.29.15,0,.38-.22.57-.32l.06.2c-.31.21-1.16.77-1.29.82.33-.11.93-.56,1-.44-.63.33-.36.44-1.12.82-.4.36-.25.55,0,.53.5-.27.18-.29.66-.62.36.15,1.64-.81,1.54-.48l.09-.15a1.83,1.83,0,0,0,.69-.33c-.58.43-1.4,1.34-1.12,1.42.28-.22.43-.54.88-.89l.17,0a1.41,1.41,0,0,1-.21.16c.26-.08-.54.81.1.26L7,21.93l.28-.35a2,2,0,0,1,.56-.29c.38-.18.19.07-.06.46.18-.23.6-.76.75-.77-.79.85-.12.47-.52.92,0,0-.13.35.19,0l-.48.55c.67-.76.76-.62,1-.68-.88,1.06.17,0-.54,1,.58-.73.41-.15.89-.79.1,0-.4.73-.55,1l.24-.26c-.2.39-.06.56-.11.89L9.12,23,9,23.31c.12-.17.26-.23.37-.52l0,.07c.45-.77.19-.17.47-.45a1.42,1.42,0,0,1-.23.42c.05,0-.2.43-.31.71a11.25,11.25,0,0,0,1-1.76c.16-.32.35-.53.31-.36l-.33.73.43-.74c.11-.07-.09.41-.07.52s-.81,1.33-.62,1.4c-.14.06-.38.43-.5.56s0,.13-.2.4c.26-.14.26-.41.46-.43-.31.65-.37.88-.31,1.17l.1-.53a.75.75,0,0,1,.1-.17,1.1,1.1,0,0,1,.13-.45s.54-.75.39-.34c.3-1.09.57-.7.74-1.37.09-.19.18-.19.06.15-.3.47-.21.8-.39,1.27.11-.18.09-.54.24-.77.08,0,0,.41-.05.64l-.07.12v.35c.13-.34.09-.62.25-.76,0,.15.14,0,0,.28a5.62,5.62,0,0,1-.5,1.18c.1,0,.4,0,.48-.7l.09.06c0-.32,0-.89.23-.93l0,.14.26-.49,0,.37c0-.18.11-.33.15-.31,0,.21,0,.3-.09.58.14,0,.21-.36.27-.56.08,0,.08.12,0,.53.08.11.28.06.29.45.2-.3,0-.15.15-.63-.06,1.27.44.55.67.4,0-1.1.07-.12.14-1.13-.06.35.2.86,0,1.17l.13-.11c.09.6-.23.45-.1,1.28.18,0,.26-1.24.44-.84,0,.79.13-.26.13.6,0,.29-.09.2-.14.26l0,.15c.4.21.06-.92.2-1.47.18-.12.21.6.26,1,0,.15.16,0,.18-.19-.07.49-.29-.46-.28-1,.18.88.3,0,.28-.31-.37-.9-.19,0-.51-1,0,.29.07,1.08-.09.76a.89.89,0,0,0-.07-.57c0,.46-.07.2-.11.39a6.37,6.37,0,0,0-.08-1.25v1.08c-.05-.16,0-.79-.09-.53a4.08,4.08,0,0,1,.09-1.05c-.13-.92-.18.5-.33.89l0-.29c0,.29-.09.27-.12.33-.06-.25.08-.48.08-.78l-.11,0v-.08c0,.14-.07.24-.06,0s.11-.7.15-1c0,.25-.11.49-.17.74a5.19,5.19,0,0,1,.08-.88l-.14.14.1-.72a.76.76,0,0,0-.05.35c0-.16-.42,1.22-.11-.18-.22.56-.2.33-.41.64.26-.62.14-.85.31-1.12s-.19.44-.27.54a9.85,9.85,0,0,1,.41-1.23l-.13.31,0-.14-.16.38c.1-.38.23-.69.24-.8l-.22.61.11-.37c-.1.29-.16.4-.21.43l.06-.13-.08.1c.18-.35,0-.14.22-.56,0,0,0,0-.1.06l-.17.41c-.21.32.27-.6.25-.65l-.22.46c.32-.8-.32.37-.12-.14a3.68,3.68,0,0,0,.29-.49,1.82,1.82,0,0,0-.46.5c.37-.64.48-.83.64-1.13,0,0-.09.09-.33.44.14-.25-.15.06.16-.38-.25.34,0-.08-.19.2l.13-.17-.3.4c.65-.92-.47.45.11-.36l.09-.1-.14.14.42-.49v-.12l-.25.29s-.39.39-.19.14c.54-.53,0,0,.4-.47l.15-.14c-.05,0-.05,0-.4.39-.15.1.67-.7.26-.33v0a4.15,4.15,0,0,1-.51.47,2.13,2.13,0,0,1,.26-.26c-.16.12,0-.09-.15,0a5,5,0,0,1,.48-.45c-.36.27.06-.07-.3.18l.22-.19-.28.21.46-.41-.28.25s-.22.14-.1,0l.34-.26c-.21.11.55-.47.05-.13l.23-.17c-.56.37.61-.45-.07,0l.37-.25-.24.15.48-.33-.71.47.5-.33-.24.15.55-.37.07,0,.2-.12-.52.31c-.65.38-.48.23-.21.08s.65-.34.33-.2l.16-.07-.25.11.21-.09h0a1.79,1.79,0,0,1-.39.15l.36-.14.11,0,.05,0h0l-.16.06h0l.19-.08h0l0,0-.1,0-.15,0c-.08,0-.08,0,.07-.06l-.2.07c-.26.07,0,0-.05,0l.35-.1s.2-.08-.06,0l.48-.14c.09,0-.35.07.21-.09-.21.06-.63.18-.61.16.86-.24-.36.05.09-.09l.26,0c.23-.06-.17,0-.44.08l.34-.08a3.91,3.91,0,0,1-.48,0c.86-.18-.14,0,.49-.14,0,0-.38.08-.48.08.36-.07-.19,0,.38-.09h0l.56-.08-1.11.14a4.27,4.27,0,0,1,.57-.13H14c-.23,0,1.54-.24.58-.17h.22l0,0,.43,0-.66,0,.29,0c.12,0,0-.07-.12-.1h.13c-.44,0,.28,0,0-.07H15l0,0h.29c-.63,0,.81-.06.28,0l-1-.05a3.92,3.92,0,0,1,.62,0s-.47,0-.21-.07l.29,0A2.64,2.64,0,0,1,15,14h.14c-.6-.07.86,0-.4-.11a2.2,2.2,0,0,1,.63,0,5.11,5.11,0,0,1-.76-.23c.95.09-.06,0,.48,0l-.5,0c-.05-.12,1.2,0,1-.17l.5.08-.55-.11c.26-.06.48-.17.51-.26-.26-.08-.85-.25-.66-.27l.07,0c-.27-.14-.45-.3-.15-.34s.36.08.49.13c-.54-.16,0-.07,0-.08l-.38-.07c-.46-.14,0-.07.37,0l-.53-.17.21,0-.26-.07.66.14c-.13,0-.29-.12-.9-.3a2.51,2.51,0,0,1,.5.13l.21,0-.23-.06c-.49-.14-.79-.25-.56-.2.39.14.69.22,1,.33l-.7-.22c-.32-.11-.48-.18-.26-.11l.19.06.26.08c.31.11.05,0,0,0L14.94,12l-.11,0-.55-.21-.62-.27-.15-.08-.14-.06-.11-.06-.07,0a6.39,6.39,0,0,1-.68-.41l-.22-.15-.53-.47,0,0,0,.05h0l0,0v0h0a1.77,1.77,0,0,1-.14-.3.55.55,0,0,1,0-.17v0c0-.1,0-.17,0-.26s0,0,0-.06h0V9.45h0a.77.77,0,0,1,0-.1s0,0-.1.13l-.08.08,0,0-.11.09h0l-.12.08-.08,0-.1.05a1.86,1.86,0,0,1-.3.11s-.07,0,0,0a1.05,1.05,0,0,1,.18,0l-.9-.1H9.9l-.21,0a9.06,9.06,0,0,1-1.48-.48C7.85,9.19,7.44,9,7,8.77l-.82-.4,0,0,0,0,.08.06c.45.31,1,1,2.1,1.92a11.93,11.93,0,0,0,1.15.81c.13.15-.63-.29-.21,0,.32.11,1.08.71,1.65,1l.07.1c.3.2-.3-.27.24.08l-.79-.51a2.78,2.78,0,0,1,.6.29c-.29-.23-1.35-.92-.83-.7l0,.05c0-.08.54.28.67.34h0l.43.2c-.29-.13.31.34.29.28.27.06-.21-.1-.27-.22s.4.21.64.36v-.08c.37.23,0,0,.36.24L12,12.23c.95.55-.4-.36.51.13.19.19.32.19.62.38l0-.19a1.43,1.43,0,0,1,.23.16c.28.12-.2-.18-.18-.19.27.13.05-.13.69.23.49.12-.79-.49-.37-.4s.05.14.48.31l-.09-.19c.19.11.63.35.52.35.67,0,2.9.71,2.55,0,.52.13.31.18.61.36-.51-.6,1.28-.11,1.35-.54l-.41-.13c.72-.07.94-.37,1-.72A3.14,3.14,0,0,1,20,10.62l-.31.08c-.41-.16-.44-.35-.63-.49.22,0,.92.14.75-.13a1.12,1.12,0,0,1-.53.12,1.94,1.94,0,0,0,.82-1.65c0-.69-.09-1.44-.09-2.2-.51-.84-.9-1.84-1.63-2.89A6.45,6.45,0,0,0,15.2,1c.4.14-.22,1-.38.7,0-1-.46-1.06-.86-1s-.77.19-1.12-.49A5.85,5.85,0,0,1,10.65,0,1.45,1.45,0,0,0,8.93.88L8.76.39c-.24-.17-.18.19-.33.29l0-.13c-.48,0-.74.64-1.05.52l.24.53c-.18.14-.31-.35-.37,0l-.13-.26L7.1,2c-.49-.89-.58.26-1,0-.15.32-.3,1-.74,1.1-.41-.33-.81,0-1.25.14A9.88,9.88,0,0,1,2.9,5.06l.57.33-.05.17a2.65,2.65,0,0,1-.25-.15c-.72-.26,0,.44-.46.34.57.2.14-.06.2-.14.34,0,.83.46.46.45L3.25,6l.25.26C3,6,2.78,6,2.32,5.8c-.14.55.55,1.19.17,1.5-.52-.24,0,.35-.88-.07.27.37.77.23,1.39.57,0,.06.2.22-.15.11s-.59-.14-.66-.23l0,.18A.82.82,0,0,1,2,7.74c.44.48-.79.35-.31.77.34.11.13-.07.47,0,.63.43-.68,0-.24.39l-.47-.16c.31.15.72.28.31.29C1.14,9,1.28,8.86,1,8.74c-.05.08.05.3.58.37.17.13-.35,0-.51.05a2.51,2.51,0,0,1,.65.12.49.49,0,0,0-.46.34,3.3,3.3,0,0,1-.42-.1C1.58,9.8.31,9.5.44,9.7Z"/><path class="cls-1" d="M3.62,18.62l.06-.1a1.64,1.64,0,0,1-.41.1Z"/><path class="cls-1" d="M3.32,15.3h0Z"/><path class="cls-1" d="M2.26,14.59a.8.8,0,0,0,.43,0A2.44,2.44,0,0,0,2.26,14.59Z"/><path class="cls-1" d="M5.85,19.81l-.23.11A.82.82,0,0,0,5.85,19.81Z"/><path class="cls-1" d="M9.45,23.78l0-.09S9.44,23.76,9.45,23.78Z"/><path class="cls-1" d="M9.6,22.83s0,0-.09,0S9.55,22.88,9.6,22.83Z"/><path class="cls-1" d="M5.08,18.74s-.07,0-.19,0A.27.27,0,0,0,5.08,18.74Z"/><path class="cls-1" d="M9.39,23l0-.1L9.3,23Z"/><path class="cls-1" d="M9.51,23.89s-.06-.05-.06-.11C9.41,23.94,9.44,24,9.51,23.89Z"/><path class="cls-1" d="M7.53,20.85h0C7.29,21,7.39,20.94,7.53,20.85Z"/><polygon class="cls-1" points="8.59 23.63 8.59 23.61 8.48 23.73 8.59 23.63"/><path class="cls-1" d="M9.74,24.25s0,0-.08.08a.31.31,0,0,0,0,.08Z"/><path class="cls-1" d="M7.64,22.23,8,21.9S7.88,22,7.64,22.23Z"/></g></g></svg>