<svg width="25" height="23" viewBox="0 0 25 23" fill="none" xmlns="http://www.w3.org/2000/svg">
<path d="M15.3594 1.34375C15.3594 1.34375 14.2471 1.73438 12.5 1.73438C10.7529 1.73438 9.64063 1.34375 9.64063 1.34375C9.46486 1.34375 9.29037 1.37347 9.12451 1.43164L1.5625 4.07812L2.37451 8.375L4.76123 8.64453C5.05351 8.67761 5.32267 8.8194 5.51525 9.04174C5.70783 9.26408 5.80976 9.55071 5.80078 9.84473L5.46875 21.6562H19.5312L19.1992 9.84473C19.1902 9.55071 19.2922 9.26408 19.4847 9.04174C19.6773 8.8194 19.9465 8.67761 20.2388 8.64453L22.6255 8.375L23.4375 4.07812L15.8755 1.43164C15.7096 1.37347 15.5351 1.34375 15.3594 1.34375V1.34375Z" stroke="white" stroke-width="1.5625" stroke-linecap="round" stroke-linejoin="round"/>
<path d="M16.2749 1.57129C16.0535 2.4034 15.5633 3.13904 14.8807 3.66381C14.198 4.18859 13.3611 4.4731 12.5 4.4731C11.6389 4.4731 10.802 4.18859 10.1193 3.66381C9.43666 3.13904 8.94651 2.4034 8.7251 1.57129" stroke="white" stroke-width="1.5625" stroke-linecap="round" stroke-linejoin="round"/>
</svg>
