<?xml version="1.0" encoding="UTF-8"?>
<svg id="Layer_1" data-name="Layer 1" xmlns="http://www.w3.org/2000/svg" xmlns:xlink="http://www.w3.org/1999/xlink" viewBox="0 0 5511.64 2593">
  <defs>
    <style>
      .cls-1 {
        fill: url(#linear-gradient-2);
      }

      .cls-2 {
        stroke: url(#linear-gradient-7);
      }

      .cls-2, .cls-3, .cls-4 {
        fill: none;
        stroke-miterlimit: 10;
        stroke-width: 12.91px;
      }

      .cls-5 {
        fill: url(#linear-gradient-17);
      }

      .cls-6 {
        fill: url(#linear-gradient-15);
      }

      .cls-7 {
        fill: url(#linear-gradient-14);
      }

      .cls-8 {
        fill: url(#linear-gradient-6);
      }

      .cls-9 {
        fill: url(#linear-gradient-11);
      }

      .cls-10 {
        filter: url(#drop-shadow-1);
      }

      .cls-3 {
        stroke: url(#linear-gradient-5);
      }

      .cls-11 {
        fill: url(#linear-gradient-10);
      }

      .cls-12 {
        fill: url(#linear-gradient-9);
      }

      .cls-13 {
        fill: url(#linear-gradient-3);
      }

      .cls-14 {
        fill: url(#linear-gradient);
      }

      .cls-15 {
        fill: url(#linear-gradient-4);
      }

      .cls-4 {
        stroke: url(#linear-gradient-16);
      }

      .cls-16 {
        fill: url(#linear-gradient-8);
      }

      .cls-17 {
        fill: url(#linear-gradient-12);
      }

      .cls-18 {
        fill: url(#linear-gradient-13);
      }
    </style>
    <filter id="drop-shadow-1" filterUnits="userSpaceOnUse">
      <feOffset dx="4.52" dy="4.52"/>
      <feGaussianBlur result="blur" stdDeviation="3.23"/>
      <feFlood flood-color="#231f20" flood-opacity=".5"/>
      <feComposite in2="blur" operator="in"/>
      <feComposite in="SourceGraphic"/>
    </filter>
    <linearGradient id="linear-gradient" x1="3123.04" y1="1900.59" x2="3556.57" y2="1900.59" gradientUnits="userSpaceOnUse">
      <stop offset="0" stop-color="#b27f2b"/>
      <stop offset=".61" stop-color="#f7de7c"/>
      <stop offset=".72" stop-color="#fff3a5"/>
      <stop offset=".84" stop-color="#f7de7c"/>
      <stop offset="1" stop-color="#b27f2b"/>
    </linearGradient>
    <linearGradient id="linear-gradient-2" x1="2813.93" y1="2155.46" x2="3234.99" y2="2155.46" xlink:href="#linear-gradient"/>
    <linearGradient id="linear-gradient-3" x1="2759.06" y1="2051.64" x2="3033.27" y2="2051.64" xlink:href="#linear-gradient"/>
    <linearGradient id="linear-gradient-4" x1="5150.84" y1="1685.98" x2="5298.6" y2="1685.98" xlink:href="#linear-gradient"/>
    <linearGradient id="linear-gradient-5" x1="5292.79" y1="1685.98" x2="5396.26" y2="1685.98" xlink:href="#linear-gradient"/>
    <linearGradient id="linear-gradient-6" x1="5332.38" y1="1686.49" x2="5511.64" y2="1686.49" xlink:href="#linear-gradient"/>
    <linearGradient id="linear-gradient-7" x1="360.5" y1="1685.98" x2="5157.61" y2="1685.98" xlink:href="#linear-gradient"/>
    <linearGradient id="linear-gradient-8" x1="3523.83" y1="1901.67" x2="4607.57" y2="1901.67" xlink:href="#linear-gradient"/>
    <linearGradient id="linear-gradient-9" x1="2677.01" y1="1685.98" x2="2841.11" y2="1685.98" xlink:href="#linear-gradient"/>
    <linearGradient id="linear-gradient-10" x1="1961.55" y1="1900.59" x2="2395.08" y2="1900.59" xlink:href="#linear-gradient"/>
    <linearGradient id="linear-gradient-11" x1="2283.13" y1="2155.46" x2="2704.18" y2="2155.46" xlink:href="#linear-gradient"/>
    <linearGradient id="linear-gradient-12" x1="2484.84" y1="2051.64" x2="2759.06" y2="2051.64" xlink:href="#linear-gradient"/>
    <linearGradient id="linear-gradient-13" x1="910.54" y1="1901.67" x2="1994.28" y2="1901.67" xlink:href="#linear-gradient"/>
    <linearGradient id="linear-gradient-14" x1="2711.68" y1="2471.63" x2="2807.19" y2="2471.63" xlink:href="#linear-gradient"/>
    <linearGradient id="linear-gradient-15" x1="212.74" y1="1685.48" x2="360.5" y2="1685.48" xlink:href="#linear-gradient"/>
    <linearGradient id="linear-gradient-16" x1="115.08" y1="1685.48" x2="218.55" y2="1685.48" xlink:href="#linear-gradient"/>
    <linearGradient id="linear-gradient-17" x1="-.3" y1="1685.98" x2="178.96" y2="1685.98" xlink:href="#linear-gradient"/>
  </defs>
  <g class="cls-10">
    <path class="cls-14" d="M3545.61,1892.56c-9.91,2.07-17.96-28.51-49.92-67.16-12.52-15.15-29.07-34.82-56.27-50.83-34.46-20.27-67.42-23.72-80.78-24.51-53.39-3.15-92.05,18.5-100.75,23.6-13.66,8.01-60.2,35.3-76.24,92.58-13.27,47.37,2.27,86.87,9.08,103.47,8.16,19.89,28.29,68.96,78.06,85.32,32.57,10.71,61.15,1.92,76.24-2.72,11.52-3.54,82.36-26.84,87.13-77.15,1.86-19.62-6.62-40.3-20.88-53.55-4.52-4.2-24.88-23.12-47.2-15.43-13.33,4.59-23.44,17.33-25.41,29.95-2.18,13.97,6.07,24.89,3.63,26.32-2.45,1.43-13.22-8.17-19.06-20.88-7.75-16.85-8.2-42.13,5.45-59.9,22.47-29.25,68.54-19.12,76.24-17.24,38.79,9.45,65.12,43.66,74.43,76.24,16.17,56.62-20.5,103.32-26.32,110.73-41.23,52.52-107.1,54.75-125.25,55.37-93.22,3.16-152.75-65.53-157.93-71.7-48.34-57.68-58.7-137.38-33.58-204.22,34.93-92.92,123.87-122.19,139.77-127.07,70.39-21.58,129.14-.4,147.04,6.35,61.49,23.2,131.02,79.47,133.42,143.41,.62,16.45-3.05,37.39-10.89,39.03Z"/>
    <path class="cls-1" d="M3150.79,1935.22c-19.57,16.6-41.36,.92-78.96,8.17-60.34,11.63-94.11,69.32-98.02,76.24-10.08,17.8-30.8,62.54-16.34,115.27,3.36,12.25,18.65,68,69.89,87.13,27.74,10.36,72.41,12.36,96.21-15.43,11.08-12.94,20.81-36.04,11.8-56.27-12.91-29.01-57.82-37.51-73.52-23.6-15.38,13.63-2.59,48.66-8.17,49.92-4.03,.91-14-16.64-16.34-36.31-.47-3.94-3.77-35.77,17.24-60.81,25.28-30.13,69.83-31.49,98.93-22.69,54.12,16.38,72.07,73.17,75.33,83.5,22.73,71.93-24.71,132.8-28.14,137.05-25.51,31.63-69.43,58.62-115.27,59-32.81,.27-61.6-13.13-73.52,1.82-6.13,7.68-.99,14.33-5.45,33.58-5.99,25.93-22.03,42.97-27.23,48.1-23.98,23.67-53.84,27.15-63.53,28.14-13.9,1.42-60.92,6.21-87.13-28.14-22.4-29.34-16.18-69.65-.91-95.3,12.83-21.54,42.81-50.84,77.15-43.57,23.26,4.93,48.19,26.57,47.2,51.73-.87,22.08-21.47,40.78-31.77,42.66-.72,.13-1.62,.25-1.62,.25-10.38,1.33-21.72-1.75-21.97-4.78-.33-4.03,19.28-2.95,25.41-14.52,5.29-9.99-.53-27.42-10.89-31.77-13.22-5.55-32.83,10.58-39.03,28.14-6.41,18.16,.63,40.38,15.43,49.92,22.46,14.49,54.86-5.36,69.89-23.6,13.32-16.17,21.33-41.2,13.61-62.63-2.98-8.27-7.44-13.59-31.77-35.4-30.96-27.75-39.16-32.96-47.2-40.84-28.54-27.99-32.71-67.81-35.4-93.49-8.41-80.34,36.5-143.56,49.01-160.65,77.17-105.4,229.9-146.53,257.77-112.55,11.94,14.56,4.45,47.16-12.71,61.72Z"/>
    <path class="cls-13" d="M2879.41,1798.47c-.56-3.44-3.04-20.73,3.63-32.67,9.33-16.72,33.95-18.29,50.83-19.36,20.36-1.3,47.79-3.05,71.4,16.94,30.36,25.71,28.19,65.17,27.83,70.19-.4,5.62-3.55,41.62-32.68,61.72-22.74,15.69-48.09,12.56-71.4,9.68-49.39-6.1-86.48-30.35-87.13-29.05-.53,1.06,27.01,11.73,50.83,37.52,12.47,13.5,26.02,28.17,22.99,45.99-2.81,16.56-18.96,30.12-35.09,32.67-24.8,3.92-44.64-18.95-54.46-30.25-20.37-23.47-26.24-49.76-26.62-49.62-.49,.18,17.16,39.6,26.62,85.92,8.41,41.15,16.45,80.51-4.84,112.55-14.34,21.56-36.48,31.56-50.83,36.31l-11.44,210.57v-599.03h22.33c-12.93,24.84-13.14,50.73,0,65.35,4.66,5.18,9.67,7.58,14.52,9.68,41.26,17.85,62.43,27.02,105.28,34.29,36.87,6.25,46.84,3.82,53.65,1.21,5.51-2.11,26.63-10.2,33.08-31.47,5.89-19.43-4.61-36.18-6.45-39.13-12.41-19.81-34.11-23.73-41.15-25.01-16.96-3.07-43.73-1.25-52.44,13.72-4.73,8.13-3.69,19.37-5.65,19.36-1.51,0-2.61-6.75-2.82-8.07Z"/>
    <circle class="cls-15" cx="5224.72" cy="1685.98" r="73.88"/>
    <line class="cls-3" x1="5396.26" y1="1685.98" x2="5292.79" y2="1685.98"/>
    <path class="cls-8" d="M5333.03,1692.58c3.39,26.68,21.81,60.4,54.46,73.22,14.28,5.61,45.78,12.91,57.48-3.02,8.86-12.06,3.83-33.99-6.66-45.99-6.8-7.78-15.62-11.07-15.13-12.1,.83-1.74,22.84,13.83,47.2,10.89,16.68-2.01,39.38-13.3,41.15-30.86,1.88-18.78-21.3-33.87-36.91-38.73-17.42-5.42-40.57-2.82-50.83,9.68-1.5,1.82-4.4,5.92-4.24,6.05,.37,.29,19.22-14.66,18.76-30.86-.33-11.53-10.4-21.93-19.97-26.62-21.83-10.71-50.44,3.66-65.35,19.36-19.54,20.58-20.36,48.54-20.57,55.67-.19,6.51,.37,11.47,.6,13.31Z"/>
    <line class="cls-2" x1="5157.61" y1="1685.98" x2="360.5" y2="1685.98"/>
    <path class="cls-16" d="M4542.18,1770.94c.79-.65-2.06-7.89-7.26-10.89-7.31-4.23-18.85,.16-24.51,6.35-11.18,12.24-6.73,39.65,8.17,52.64,19.06,16.64,53.93,8.54,72.61-10.89,16.12-16.77,19.64-41.41,13.61-60.81-11.44-36.82-54.42-45.53-62.63-47.2-34.74-7.04-63.09,7.87-69.89,12.71-19.36,13.77-22.54,22.69-43.57,42.66,0,0-27.16,22.79-63.54,32.67-54.63,14.85-104.55-6.89-132.51-19.06-47.84-20.83-46.35-35.43-93.49-51.73-32.62-11.28-59.22-13.24-88.95-15.43-53.11-3.91-79.67-5.87-105.29,8.17-26.29,14.41-24.03,30.07-56.27,71.7-13.52,17.46-50.54,64.31-109.82,94.39-24.2,12.28-69.11,35.06-121.62,23.6-17.09-3.73-47.69-10.41-62.63-38.12-11.16-20.7-10.95-48.29,2.72-69.89,2.12-3.34,21.76-33.28,54.46-31.77,29.88,1.38,46.66,27.92,49.01,31.77,11,18.03,12.34,41.68,12.71,48.1,.77,13.57-1.02,21.71,1.82,22.69,4.68,1.61,16.55-18.13,23.6-35.4,7.38-18.07,14.68-35.95,10.89-57.18-7.92-44.41-57.18-63.44-59.9-64.44-32.49-11.99-61.6-2.54-71.7,.91-60.97,20.79-82.27,84.98-86.22,98.02-4.81,15.87-17.02,56.18,2.72,98.93,19.48,42.19,61.97,69.18,100.75,72.61,29.87,2.64,58.08-8.64,58.99-5.45,.84,2.95-25.04,6.17-39.93,26.32-13.3,18-14.17,44.52-5.45,65.35,8.9,21.25,29.64,41.04,54.46,42.66,21.77,1.42,40.57-11.51,39.94-13.61-.53-1.76-14.36,5.03-26.32,0-17.12-7.2-22.82-34.82-22.69-52.64,.35-47.43,42.79-79.87,49.92-85.32,22.01-16.83,27.73-10.85,59-29.04,46.44-27.02,74.22-63.71,75.33-62.63,.84,.81-20.46,16.16-29.04,43.57-9.1,29.07,1.36,54.87,2.72,58.09,13.21,31.26,42.11,43.86,58.09,50.83,40.26,17.55,77.47,10.76,95.3,7.26,23.93-4.7,60.65-11.91,87.13-44.47,4.69-5.76,38.86-47.78,22.69-94.39-7.16-20.63-25.78-46.77-53.55-51.73-41.03-7.33-79.55,35.57-78.06,38.12,.67,1.14,9.35-5.95,25.41-8.17,1.82-.25,39.19-4.95,53.55,15.43,13.97,19.82,.32,55.04-19.97,71.7-29.81,24.48-80.61,17.34-109.82-9.98-34.61-32.37-36.67-87.38-13.61-121.62,19.84-29.47,53.55-36.65,68.98-39.93,34.72-7.39,59.62,.77,114.36,16.34,72.21,20.53,108.32,30.8,145.22,38.12,74.53,14.79,111.8,22.18,148.85,8.17,44.64-16.88,65.28-45.85,86.68-68.83,4.08-4.39,26.41-32.05,34.04-36.46,12.16-7.03,28.51,1.91,29.95,2.72,14.88,8.39,26.53,28.31,20.88,46.29-.56,1.78-6.67,20.19-22.69,21.78-9.41,.94-18.46-4.03-23.3-10.89-1.22-1.73-5.68-8.05-4.13-15.83,.31-1.56,1.49-7.53,6.45-10.08,5.82-3,12.95,.7,13.72,1.11,2.21,1.19,3.26,2.42,3.63,2.12Z"/>
    <circle class="cls-12" cx="2759.06" cy="1685.98" r="82.05"/>
    <path class="cls-11" d="M1972.51,1892.56c9.91,2.07,17.96-28.51,49.92-67.16,12.52-15.15,29.07-34.82,56.27-50.83,34.46-20.27,67.42-23.72,80.78-24.51,53.39-3.15,92.05,18.5,100.75,23.6,13.66,8.01,60.2,35.3,76.24,92.58,13.27,47.37-2.27,86.87-9.08,103.47-8.16,19.89-28.29,68.96-78.06,85.32-32.57,10.71-61.15,1.92-76.24-2.72-11.52-3.54-82.36-26.84-87.13-77.15-1.86-19.62,6.62-40.3,20.88-53.55,4.52-4.2,24.88-23.12,47.2-15.43,13.33,4.59,23.44,17.33,25.41,29.95,2.18,13.97-6.07,24.89-3.63,26.32,2.45,1.43,13.22-8.17,19.06-20.88,7.75-16.85,8.2-42.13-5.45-59.9-22.47-29.25-68.54-19.12-76.24-17.24-38.79,9.45-65.12,43.66-74.43,76.24-16.17,56.62,20.5,103.32,26.32,110.73,41.23,52.52,107.1,54.75,125.25,55.37,93.22,3.16,152.75-65.53,157.93-71.7,48.34-57.68,58.7-137.38,33.58-204.22-34.93-92.92-123.87-122.19-139.77-127.07-70.39-21.58-129.14-.4-147.04,6.35-61.49,23.2-131.02,79.47-133.42,143.41-.62,16.45,3.05,37.39,10.89,39.03Z"/>
    <path class="cls-9" d="M2367.32,1935.22c19.57,16.6,41.36,.92,78.96,8.17,60.34,11.63,94.11,69.32,98.02,76.24,10.08,17.8,30.8,62.54,16.34,115.27-3.36,12.25-18.65,68-69.89,87.13-27.74,10.36-72.41,12.36-96.21-15.43-11.08-12.94-20.81-36.04-11.8-56.27,12.91-29.01,57.82-37.51,73.52-23.6,15.38,13.63,2.59,48.66,8.17,49.92,4.03,.91,14-16.64,16.34-36.31,.47-3.94,3.77-35.77-17.24-60.81-25.28-30.13-69.83-31.49-98.93-22.69-54.12,16.38-72.07,73.17-75.33,83.5-22.73,71.93,24.71,132.8,28.14,137.05,25.51,31.63,69.43,58.62,115.27,59,32.81,.27,61.6-13.13,73.52,1.82,6.13,7.68,.99,14.33,5.45,33.58,5.99,25.93,22.03,42.97,27.23,48.1,23.98,23.67,53.84,27.15,63.53,28.14,13.9,1.42,60.92,6.21,87.13-28.14,22.4-29.34,16.18-69.65,.91-95.3-12.83-21.54-42.81-50.84-77.15-43.57-23.26,4.93-48.19,26.57-47.2,51.73,.87,22.08,21.47,40.78,31.77,42.66,.72,.13,1.62,.25,1.62,.25,10.38,1.33,21.72-1.75,21.97-4.78,.33-4.03-19.28-2.95-25.41-14.52-5.29-9.99,.53-27.42,10.89-31.77,13.22-5.55,32.83,10.58,39.03,28.14,6.41,18.16-.63,40.38-15.43,49.92-22.46,14.49-54.86-5.36-69.89-23.6-13.32-16.17-21.33-41.2-13.61-62.63,2.98-8.27,7.44-13.59,31.77-35.4,30.96-27.75,39.16-32.96,47.2-40.84,28.54-27.99,32.71-67.81,35.4-93.49,8.41-80.34-36.5-143.56-49.01-160.65-77.17-105.4-229.9-146.53-257.77-112.55-11.94,14.56-4.45,47.16,12.71,61.72Z"/>
    <path class="cls-17" d="M2638.7,1798.47c.56-3.44,3.04-20.73-3.63-32.67-9.33-16.72-33.95-18.29-50.83-19.36-20.36-1.3-47.79-3.05-71.4,16.94-30.36,25.71-28.19,65.17-27.83,70.19,.4,5.62,3.55,41.62,32.68,61.72,22.74,15.69,48.09,12.56,71.4,9.68,49.39-6.1,86.48-30.35,87.13-29.05,.53,1.06-27.01,11.73-50.83,37.52-12.47,13.5-26.02,28.17-22.99,45.99,2.81,16.56,18.96,30.12,35.09,32.67,24.8,3.92,44.64-18.95,54.46-30.25,20.37-23.47,26.24-49.76,26.62-49.62,.49,.18-17.16,39.6-26.62,85.92-8.41,41.15-16.45,80.51,4.84,112.55,14.34,21.56,36.48,31.56,50.83,36.31l11.44,210.57v-599.03h-22.33c12.93,24.84,13.14,50.73,0,65.35-4.66,5.18-9.67,7.58-14.52,9.68-41.26,17.85-62.43,27.02-105.28,34.29-36.87,6.25-46.84,3.82-53.65,1.21-5.51-2.11-26.63-10.2-33.08-31.47-5.89-19.43,4.61-36.18,6.45-39.13,12.41-19.81,34.11-23.73,41.15-25.01,16.96-3.07,43.73-1.25,52.44,13.72,4.73,8.13,3.69,19.37,5.65,19.36,1.51,0,2.61-6.75,2.82-8.07Z"/>
    <path class="cls-18" d="M975.93,1770.94c-.79-.65,2.06-7.89,7.26-10.89,7.31-4.23,18.85,.16,24.51,6.35,11.18,12.24,6.73,39.65-8.17,52.64-19.06,16.64-53.93,8.54-72.61-10.89-16.12-16.77-19.64-41.41-13.61-60.81,11.44-36.82,54.42-45.53,62.63-47.2,34.74-7.04,63.09,7.87,69.89,12.71,19.36,13.77,22.54,22.69,43.57,42.66,0,0,27.16,22.79,63.54,32.67,54.63,14.85,104.55-6.89,132.51-19.06,47.84-20.83,46.35-35.43,93.49-51.73,32.62-11.28,59.22-13.24,88.95-15.43,53.11-3.91,79.67-5.87,105.29,8.17,26.29,14.41,24.03,30.07,56.27,71.7,13.52,17.46,50.54,64.31,109.82,94.39,24.2,12.28,69.11,35.06,121.62,23.6,17.09-3.73,47.69-10.41,62.63-38.12,11.16-20.7,10.95-48.29-2.72-69.89-2.12-3.34-21.76-33.28-54.46-31.77-29.88,1.38-46.66,27.92-49.01,31.77-11,18.03-12.34,41.68-12.71,48.1-.77,13.57,1.02,21.71-1.82,22.69-4.68,1.61-16.55-18.13-23.6-35.4-7.38-18.07-14.68-35.95-10.89-57.18,7.92-44.41,57.18-63.44,59.9-64.44,32.49-11.99,61.6-2.54,71.7,.91,60.97,20.79,82.27,84.98,86.22,98.02,4.81,15.87,17.02,56.18-2.72,98.93-19.48,42.19-61.97,69.18-100.75,72.61-29.87,2.64-58.08-8.64-58.99-5.45-.84,2.95,25.04,6.17,39.93,26.32,13.3,18,14.17,44.52,5.45,65.35-8.9,21.25-29.64,41.04-54.46,42.66-21.77,1.42-40.57-11.51-39.94-13.61,.53-1.76,14.36,5.03,26.32,0,17.12-7.2,22.82-34.82,22.69-52.64-.35-47.43-42.79-79.87-49.92-85.32-22.01-16.83-27.73-10.85-59-29.04-46.44-27.02-74.22-63.71-75.33-62.63-.84,.81,20.46,16.16,29.04,43.57,9.1,29.07-1.36,54.87-2.72,58.09-13.21,31.26-42.11,43.86-58.09,50.83-40.26,17.55-77.47,10.76-95.3,7.26-23.93-4.7-60.65-11.91-87.13-44.47-4.69-5.76-38.86-47.78-22.69-94.39,7.16-20.63,25.78-46.77,53.55-51.73,41.03-7.33,79.55,35.57,78.06,38.12-.67,1.14-9.35-5.95-25.41-8.17-1.82-.25-39.19-4.95-53.55,15.43-13.97,19.82-.32,55.04,19.97,71.7,29.81,24.48,80.61,17.34,109.82-9.98,34.61-32.37,36.67-87.38,13.61-121.62-19.84-29.47-53.55-36.65-68.98-39.93-34.72-7.39-59.62,.77-114.36,16.34-72.21,20.53-108.32,30.8-145.22,38.12-74.53,14.79-111.8,22.18-148.85,8.17-44.64-16.88-65.28-45.85-86.68-68.83-4.08-4.39-26.41-32.05-34.04-36.46-12.16-7.03-28.51,1.91-29.95,2.72-14.88,8.39-26.53,28.31-20.88,46.29,.56,1.78,6.67,20.19,22.69,21.78,9.41,.94,18.46-4.03,23.3-10.89,1.22-1.73,5.68-8.05,4.13-15.83-.31-1.56-1.49-7.53-6.45-10.08-5.82-3-12.95,.7-13.72,1.11-2.21,1.19-3.26,2.42-3.63,2.12Z"/>
    <path class="cls-7" d="M2758.7,2581.45c23.14-.32,38.36-52.01,41.75-63.53,9.31-31.64,6.67-57.9,5.45-67.16-4.62-35.13-23.32-89.01-45.38-88.95-23.49,.07-41.13,61.29-46.29,92.58-6.56,39.8,1.38,65.77,3.63,72.61,1.69,5.11,18.06,54.77,40.84,54.46Z"/>
    <circle class="cls-6" cx="286.62" cy="1685.48" r="73.88"/>
    <line class="cls-4" x1="115.08" y1="1685.48" x2="218.55" y2="1685.48"/>
    <path class="cls-5" d="M178.31,1692.08c-3.39,26.68-21.81,60.4-54.46,73.22-14.28,5.61-45.78,12.91-57.48-3.02-8.86-12.06-3.83-33.99,6.66-45.99,6.8-7.78,15.62-11.07,15.13-12.1-.83-1.74-22.84,13.83-47.2,10.89-16.68-2.01-39.38-13.3-41.15-30.86-1.88-18.78,21.3-33.87,36.91-38.73,17.42-5.42,40.57-2.82,50.83,9.68,1.5,1.82,4.4,5.92,4.24,6.05-.37,.29-19.22-14.66-18.76-30.86,.33-11.53,10.4-21.93,19.97-26.62,21.83-10.71,50.44,3.66,65.35,19.36,19.54,20.58,20.36,48.54,20.57,55.67,.19,6.51-.37,11.47-.6,13.31Z"/>
  </g>
</svg>