<?xml version="1.0" encoding="UTF-8"?>
<svg id="Layer_1" data-name="Layer 1" xmlns="http://www.w3.org/2000/svg" xmlns:xlink="http://www.w3.org/1999/xlink" viewBox="0 0 25 25">
  <defs>
    <style>
      .cls-1 {
        fill: url(#linear-gradient-2);
      }

      .cls-2 {
        fill: url(#linear-gradient);
      }
    </style>
    <linearGradient id="linear-gradient" x1="0" y1="12.5" x2="25" y2="12.5" gradientUnits="userSpaceOnUse">
      <stop offset="0" stop-color="#b57e10"/>
      <stop offset=".09" stop-color="#b78214"/>
      <stop offset=".18" stop-color="#c08e22"/>
      <stop offset=".29" stop-color="#cea238"/>
      <stop offset=".39" stop-color="#e2bf57"/>
      <stop offset=".49" stop-color="#f9df7b"/>
      <stop offset=".54" stop-color="#fff3a6"/>
      <stop offset=".63" stop-color="#f9df7b"/>
      <stop offset="1" stop-color="#b57e10"/>
    </linearGradient>
    <linearGradient id="linear-gradient-2" x1="2.67" y1="6.71" x2="20.56" y2="22.2" xlink:href="#linear-gradient"/>
  </defs>
  <path class="cls-2" d="M12.5,1c6.34,0,11.5,5.16,11.5,11.5s-5.16,11.5-11.5,11.5S1,18.84,1,12.5,6.16,1,12.5,1m0-1C5.6,0,0,5.6,0,12.5s5.6,12.5,12.5,12.5,12.5-5.6,12.5-12.5S19.4,0,12.5,0h0Z"/>
  <path class="cls-1" d="M21.19,12.35L12.95,3.63c-.06-.06-.13-.11-.21-.15-.08-.03-.16-.05-.24-.05s-.17,.02-.24,.05c-.08,.03-.15,.08-.21,.15L3.81,12.35c-.24,.25-.38,.6-.38,.96,0,.75,.57,1.36,1.28,1.36h.87v6.22c0,.37,.29,.68,.64,.68h5v-4.74h2.24v4.74h5.32c.35,0,.64-.3,.64-.68v-6.22h.87c.34,0,.67-.14,.91-.4,.5-.53,.5-1.39,0-1.92h0Z"/>
</svg>