<svg width="20" height="24" viewBox="0 0 20 24" fill="none" xmlns="http://www.w3.org/2000/svg">
<path d="M10.3333 13.4583C12.0591 13.4583 13.4583 12.0592 13.4583 10.3333C13.4583 8.60742 12.0591 7.20831 10.3333 7.20831C8.60736 7.20831 7.20825 8.60742 7.20825 10.3333C7.20825 12.0592 8.60736 13.4583 10.3333 13.4583Z" stroke="white" stroke-width="2.08333" stroke-linecap="round" stroke-linejoin="round"/>
<path d="M10.3333 2C8.1232 2 6.00358 2.87797 4.44078 4.44078C2.87797 6.00358 2 8.1232 2 10.3333C2 12.3042 2.41875 13.5937 3.5625 15.0208L10.3333 22.8333L17.1042 15.0208C18.2479 13.5937 18.6667 12.3042 18.6667 10.3333C18.6667 8.1232 17.7887 6.00358 16.2259 4.44078C14.6631 2.87797 12.5435 2 10.3333 2V2Z" stroke="white" stroke-width="2.08333" stroke-linecap="round" stroke-linejoin="round"/>
</svg>
