<svg width="25" height="22" viewBox="0 0 25 22" fill="none" xmlns="http://www.w3.org/2000/svg">
<path d="M12.5 0C9.4796 0 7.03125 2.42387 7.03125 5.41406C7.03125 7.83148 10.6055 12.2375 11.9748 13.8368C12.2522 14.1608 12.7483 14.1608 13.0252 13.8368C14.3945 12.2375 17.9687 7.83148 17.9687 5.41406C17.9687 2.42387 15.5204 0 12.5 0ZM12.5 7.21875C11.4931 7.21875 10.6771 6.41094 10.6771 5.41406C10.6771 4.41719 11.4931 3.60938 12.5 3.60938C13.5069 3.60938 14.3229 4.41719 14.3229 5.41406C14.3229 6.41094 13.5069 7.21875 12.5 7.21875ZM0.873264 9.2791C0.615529 9.38116 0.394588 9.55732 0.238936 9.78486C0.083285 10.0124 6.17278e-05 10.2809 0 10.5557L0 21.3116C0 21.798 0.496094 22.1306 0.952257 21.9502L6.94444 19.25V9.23484C6.56076 8.5482 6.24696 7.87961 6.02214 7.24023L0.873264 9.2791ZM12.5 15.4546C11.8893 15.4546 11.3116 15.189 10.9154 14.7258C10.0621 13.7289 9.15451 12.5937 8.33333 11.4293V19.2496L16.6667 21.9996V11.4297C15.8455 12.5937 14.9384 13.7294 14.0846 14.7263C13.6884 15.189 13.1107 15.4546 12.5 15.4546ZM24.0477 6.92484L18.0556 9.625V22L24.1267 19.5959C24.3845 19.4939 24.6055 19.3177 24.7611 19.0902C24.9168 18.8626 25 18.5941 25 18.3193V7.56336C25 7.07695 24.5039 6.74438 24.0477 6.92484Z" fill="white"/>
</svg>
