<svg width="38" height="38" viewBox="0 0 38 38" fill="none" xmlns="http://www.w3.org/2000/svg">
<path d="M18.9921 0C8.51992 0 0 8.5215 0 18.9937C0 29.4753 8.51992 38 18.9921 38C29.4738 38 38 29.4738 38 18.9937C38 8.5215 29.4738 0 18.9921 0ZM9.35433 25.973C11.5289 25.3069 13.7902 24.9664 16.0645 24.9628C19.8867 24.9628 23.6597 25.9318 26.9768 27.7653C27.1748 27.873 27.3537 28.2277 27.436 28.671C27.5152 29.1143 27.4835 29.5688 27.3537 29.8047C27.2925 29.9169 27.2096 30.0158 27.1099 30.0958C27.0102 30.1758 26.8956 30.2351 26.7728 30.2705C26.65 30.3058 26.5213 30.3164 26.3944 30.3017C26.2674 30.287 26.1446 30.2472 26.0332 30.1847C23.5967 28.8481 20.9167 28.0144 18.152 27.7332C15.3873 27.452 12.5942 27.7289 9.93858 28.5475C9.81667 28.5869 9.68813 28.6017 9.56045 28.5909C9.43278 28.5802 9.30851 28.5442 9.1949 28.4849C9.08129 28.4257 8.9806 28.3444 8.89869 28.2459C8.81679 28.1474 8.75531 28.0335 8.71783 27.911C8.54842 27.3568 8.89833 26.1218 9.35433 25.973ZM8.52625 18.9747C10.9829 18.3073 13.5173 17.9692 16.0629 17.9692C20.6451 17.9692 25.194 19.0776 29.2204 21.1771C29.5038 21.3196 29.7113 21.5634 29.8063 21.8611C29.8543 22.0114 29.8717 22.1698 29.8576 22.327C29.8434 22.4842 29.798 22.6369 29.7239 22.7763C29.3645 23.4793 28.9433 23.9527 28.6789 23.9527C28.486 23.9518 28.2961 23.9051 28.1248 23.8165C24.4027 21.8733 20.2633 20.8657 16.0645 20.881C13.729 20.8763 11.4036 21.1879 9.15167 21.8073C9.00144 21.8483 8.8446 21.8594 8.69009 21.8398C8.53558 21.8203 8.38644 21.7705 8.25117 21.6933C8.11591 21.6161 7.99717 21.5131 7.90174 21.39C7.80632 21.2669 7.73606 21.1262 7.695 20.976C7.51767 20.3078 7.92458 19.1393 8.52625 18.9747ZM8.3125 14.4052C8.13429 14.4509 7.94878 14.4609 7.76668 14.4346C7.58459 14.4082 7.40951 14.3461 7.25156 14.2517C7.09361 14.1574 6.95591 14.0327 6.84641 13.8848C6.73691 13.7369 6.65778 13.5689 6.61358 13.3903C6.41883 12.6018 6.91125 11.6866 7.62692 11.5061C10.3875 10.8261 13.2199 10.4811 16.0629 10.4785C21.5254 10.4785 26.7599 11.7072 31.6176 14.1313C31.9513 14.2972 32.2055 14.5889 32.3243 14.9422C32.4431 15.2955 32.4167 15.6816 32.2509 16.0154C32.0245 16.4714 31.5337 16.9623 30.9922 16.9623C30.7798 16.9615 30.5702 16.9145 30.3778 16.8245C25.9359 14.5962 21.0324 13.4431 16.0629 13.4583C13.4742 13.4583 10.8664 13.7766 8.3125 14.4052Z" fill="black"/>
</svg>
