<svg width="25" height="25" viewBox="0 0 25 25" fill="none" xmlns="http://www.w3.org/2000/svg">
<path d="M12.4948 0C5.60521 0 0 5.60625 0 12.4958C0 19.3917 5.60521 25 12.4948 25C19.3906 25 25 19.3906 25 12.4958C25 5.60625 19.3906 0 12.4948 0ZM6.15417 17.0875C7.58482 16.6492 9.07248 16.4253 10.5687 16.4229C13.0833 16.4229 15.5656 17.0604 17.7479 18.2667C17.8781 18.3375 17.9958 18.5708 18.05 18.8625C18.1021 19.1542 18.0812 19.4531 17.9958 19.6083C17.9556 19.6822 17.9011 19.7473 17.8355 19.7999C17.7699 19.8525 17.6945 19.8915 17.6137 19.9148C17.5329 19.938 17.4482 19.945 17.3647 19.9353C17.2812 19.9256 17.2004 19.8995 17.1271 19.8583C15.5242 18.979 13.761 18.4306 11.9421 18.2455C10.1232 18.0605 8.28569 18.2427 6.53854 18.7812C6.45833 18.8072 6.37377 18.8169 6.28977 18.8098C6.20577 18.8028 6.12402 18.7791 6.04928 18.7401C5.97453 18.7011 5.90829 18.6477 5.8544 18.5828C5.80052 18.518 5.76007 18.4431 5.73542 18.3625C5.62396 17.9979 5.85417 17.1854 6.15417 17.0875ZM5.60938 12.4833C7.22557 12.0443 8.89293 11.8218 10.5677 11.8219C13.5823 11.8219 16.575 12.551 19.224 13.9323C19.4104 14.026 19.5469 14.1865 19.6094 14.3823C19.641 14.4812 19.6525 14.5854 19.6431 14.6888C19.6338 14.7922 19.6039 14.8927 19.5552 14.9844C19.3188 15.4469 19.0417 15.7583 18.8677 15.7583C18.7408 15.7578 18.6158 15.7271 18.5031 15.6687C16.0544 14.3903 13.3311 13.7275 10.5687 13.7375C9.03222 13.7344 7.50235 13.9394 6.02083 14.3469C5.922 14.3739 5.81881 14.3812 5.71716 14.3683C5.61551 14.3555 5.51739 14.3227 5.4284 14.2719C5.33941 14.2211 5.2613 14.1533 5.19852 14.0724C5.13573 13.9914 5.08952 13.8988 5.0625 13.8C4.94583 13.3604 5.21354 12.5917 5.60938 12.4833V12.4833ZM5.46875 9.47708C5.3515 9.50717 5.22946 9.51375 5.10966 9.49642C4.98986 9.47909 4.87468 9.43821 4.77076 9.37613C4.66685 9.31405 4.57625 9.23201 4.50422 9.13473C4.43218 9.03746 4.38012 8.92688 4.35104 8.80937C4.22292 8.29062 4.54687 7.68854 5.01771 7.56979C6.83386 7.12247 8.69728 6.89548 10.5677 6.89375C14.1615 6.89375 17.6052 7.70208 20.801 9.29687C21.0206 9.40606 21.1879 9.59797 21.266 9.83041C21.3441 10.0629 21.3268 10.3168 21.2177 10.5365C21.0687 10.8365 20.7458 11.1594 20.3896 11.1594C20.2499 11.1589 20.112 11.1279 19.9854 11.0687C17.0631 9.60274 13.8371 8.84415 10.5677 8.85417C8.86458 8.85417 7.14896 9.06354 5.46875 9.47708Z" fill="white"/>
</svg>
