<svg width="25" height="25" viewBox="0 0 25 25" fill="none" xmlns="http://www.w3.org/2000/svg">
<path fill-rule="evenodd" clip-rule="evenodd" d="M0 12.5C0 15.8152 1.31696 18.9946 3.66117 21.3388C6.00537 23.683 9.18479 25 12.5 25C15.8152 25 18.9946 23.683 21.3388 21.3388C23.683 18.9946 25 15.8152 25 12.5C25 9.18479 23.683 6.00537 21.3388 3.66117C18.9946 1.31696 15.8152 0 12.5 0C9.18479 0 6.00537 1.31696 3.66117 3.66117C1.31696 6.00537 0 9.18479 0 12.5V12.5ZM22.8571 12.5C22.8571 15.2469 21.7659 17.8813 19.8236 19.8236C17.8813 21.7659 15.2469 22.8571 12.5 22.8571C9.75312 22.8571 7.11874 21.7659 5.17639 19.8236C3.23405 17.8813 2.14286 15.2469 2.14286 12.5C2.14286 9.75312 3.23405 7.11874 5.17639 5.17639C7.11874 3.23405 9.75312 2.14286 12.5 2.14286C15.2469 2.14286 17.8813 3.23405 19.8236 5.17639C21.7659 7.11874 22.8571 9.75312 22.8571 12.5V12.5Z" fill="white"/>
<path fill-rule="evenodd" clip-rule="evenodd" d="M7.14282 12.5C7.14282 18.96 9.27282 24.2857 12.5 24.2857C15.7271 24.2857 17.8571 18.96 17.8571 12.5C17.8571 6.04001 15.7271 0.714294 12.5 0.714294C9.27282 0.714294 7.14282 6.04001 7.14282 12.5ZM15.7143 12.5C15.7143 17.8743 14.0071 22.1429 12.5 22.1429C10.9928 22.1429 9.28568 17.8743 9.28568 12.5C9.28568 7.12572 10.9928 2.85715 12.5 2.85715C14.0071 2.85715 15.7143 7.12572 15.7143 12.5Z" fill="white"/>
<path d="M3.36007 6.02429L4.79721 4.43571C4.94007 4.56429 5.09578 4.69286 5.2615 4.81714C7.07721 6.17714 9.97578 7.01714 13.1401 7.01714C15.8415 7.01714 18.3572 6.40714 20.1844 5.36286C20.6244 5.11143 21.0158 4.83857 21.3544 4.54857L22.7458 6.17857C22.2809 6.57287 21.7796 6.92206 21.2486 7.22143C19.0829 8.46143 16.2001 9.15857 13.1401 9.15857C9.53721 9.15857 6.19007 8.19 3.97578 6.53143C3.76287 6.37193 3.55741 6.2027 3.36007 6.02429V6.02429ZM3.36007 18.9986L4.79721 20.5871C4.94007 20.4571 5.09578 20.33 5.2615 20.2057C7.07721 18.8457 9.97578 18.0057 13.1401 18.0057C15.8415 18.0057 18.3572 18.6157 20.1844 19.66C20.6244 19.9114 21.0158 20.1843 21.3544 20.4743L22.7458 18.8443C22.2804 18.4507 21.7791 18.1016 21.2486 17.8014C19.0829 16.5614 16.2001 15.8643 13.1401 15.8643C9.53721 15.8643 6.19007 16.8329 3.97578 18.4914C3.76286 18.6509 3.55741 18.8202 3.36007 18.9986V18.9986ZM0.714355 13.5714V11.4286H24.2858V13.5714H0.714355Z" fill="white"/>
</svg>
