<svg width="38" height="38" viewBox="0 0 38 38" fill="none" xmlns="http://www.w3.org/2000/svg">
<path fill-rule="evenodd" clip-rule="evenodd" d="M0 19C0 24.0391 2.00178 28.8718 5.56497 32.435C9.12816 35.9982 13.9609 38 19 38C24.0391 38 28.8718 35.9982 32.435 32.435C35.9982 28.8718 38 24.0391 38 19C38 13.9609 35.9982 9.12816 32.435 5.56497C28.8718 2.00178 24.0391 0 19 0C13.9609 0 9.12816 2.00178 5.56497 5.56497C2.00178 9.12816 0 13.9609 0 19ZM34.7429 19C34.7429 23.1753 33.0842 27.1795 30.1319 30.1319C27.1795 33.0842 23.1753 34.7429 19 34.7429C14.8247 34.7429 10.8205 33.0842 7.86812 30.1319C4.91576 27.1795 3.25714 23.1753 3.25714 19C3.25714 14.8247 4.91576 10.8205 7.86812 7.86812C10.8205 4.91576 14.8247 3.25714 19 3.25714C23.1753 3.25714 27.1795 4.91576 30.1319 7.86812C33.0842 10.8205 34.7429 14.8247 34.7429 19Z" fill="black"/>
<path fill-rule="evenodd" clip-rule="evenodd" d="M10.8571 19C10.8571 28.8192 14.0947 36.9143 19 36.9143C23.9052 36.9143 27.1428 28.8192 27.1428 19C27.1428 9.18081 23.9052 1.08572 19 1.08572C14.0947 1.08572 10.8571 9.18081 10.8571 19ZM23.8857 19C23.8857 27.1689 21.2908 33.6572 19 33.6572C16.7091 33.6572 14.1143 27.1689 14.1143 19C14.1143 10.8311 16.7091 4.34287 19 4.34287C21.2908 4.34287 23.8857 10.8311 23.8857 19Z" fill="black"/>
<path d="M5.10718 9.15691L7.29164 6.74228C7.50878 6.93771 7.74547 7.13314 7.99735 7.32205C10.7572 9.38925 15.1631 10.6661 19.9728 10.6661C24.079 10.6661 27.9028 9.73885 30.6801 8.15154C31.3489 7.76937 31.9439 7.35462 32.4585 6.91382L34.5735 9.39142C33.8669 9.99075 33.1049 10.5215 32.2978 10.9766C29.0059 12.8614 24.624 13.921 19.9728 13.921C14.4964 13.921 9.40878 12.4488 6.04307 9.92776C5.71943 9.68532 5.40714 9.4281 5.10718 9.15691ZM5.10718 28.8778L7.29164 31.2925C7.50878 31.0949 7.74547 30.9016 7.99735 30.7127C10.7572 28.6455 15.1631 27.3687 19.9728 27.3687C24.079 27.3687 27.9028 28.2959 30.6801 29.8832C31.3489 30.2654 31.9439 30.6801 32.4585 31.1209L34.5735 28.6433C33.866 28.0451 33.1041 27.5144 32.2978 27.0582C29.0059 25.1734 24.624 24.1137 19.9728 24.1137C14.4964 24.1137 9.40878 25.5859 6.04307 28.107C5.71942 28.3494 5.40713 28.6066 5.10718 28.8778ZM1.08569 20.6286V17.3714H36.9143V20.6286H1.08569Z" fill="black"/>
</svg>
